if (_typeface_js && _typeface_js.loadFace) _typeface_js.loadFace({"glyphs":{"0":{"ha":455,"x_min":0,"x_max":439,"o":"m 366 460 l 358 469 l 361 469 l 366 465 l 366 460 m 340 439 q 338 436 340 437 q 336 439 336 437 q 337 442 336 442 l 338 442 q 340 440 340 441 l 340 439 m 439 356 q 319 133 439 267 q 109 -3 197 -3 q 0 90 0 -3 q 71 269 0 168 q 172 403 142 370 q 313 482 247 482 q 353 473 349 482 q 334 475 347 473 q 316 477 322 477 q 250 452 287 477 q 211 396 211 424 l 217 396 q 321 435 290 435 l 328 435 q 161 271 232 359 q 67 67 67 154 q 102 9 67 9 q 179 43 140 9 q 315 214 263 115 q 372 425 372 321 q 370 457 372 441 q 383 439 381 446 q 439 356 439 408 m 396 380 l 396 409 l 387 409 l 387 380 l 396 380 z "},"1":{"ha":336,"x_min":-14,"x_max":396,"o":"m 396 437 l 230 225 q 168 117 216 207 q 115 26 125 34 q 50 11 95 24 q -14 -1 9 -1 q 0 31 -14 13 l 238 315 q 257 351 257 338 q 144 297 227 351 q 127 284 143 296 q 46 220 100 263 l 43 220 q 86 254 64 237 q 115 294 115 277 q 208 356 148 313 q 216 348 207 348 q 283 385 243 348 q 323 450 323 422 q 315 458 323 461 l 353 496 l 353 489 q 328 417 328 433 l 336 417 l 382 437 l 396 437 z "},"2":{"ha":436,"x_min":-50,"x_max":449,"o":"m 206 433 q 203 431 205 431 q 201 432 201 431 l 201 433 q 203 436 202 436 l 203 436 q 206 433 206 435 m 189 420 q 187 418 189 418 l 187 418 q 184 420 186 418 q 185 423 184 422 q 189 420 189 422 l 189 420 m 201 237 q 199 235 201 236 q 197 238 197 236 q 198 241 197 241 l 199 241 q 201 239 201 241 l 201 237 m 449 370 q 321 200 449 288 q 112 94 233 141 l 112 83 q 131 84 118 83 q 150 85 144 85 q 189 68 163 85 q 233 51 214 51 q 345 105 294 51 l 347 104 q 337 85 347 97 q 279 15 295 31 q 199 -22 240 -22 q 135 6 174 -22 q 62 35 95 35 q -11 -26 39 35 q -4 2 -11 -15 q 3 27 3 18 q -23 18 -8 27 q -48 8 -38 8 l -50 8 q 45 68 -42 20 q 132 131 45 69 q 252 218 203 181 q 302 256 270 230 q 368 387 368 319 q 324 417 368 417 q 302 391 308 417 q 296 353 300 378 q 168 251 271 268 l 168 243 l 189 233 q 180 232 186 233 q 171 230 174 230 q 125 292 125 230 q 145 378 125 342 l 147 378 l 147 375 l 145 374 q 134 316 134 337 q 180 354 141 317 q 235 399 198 371 q 342 446 284 418 q 307 460 342 460 q 258 451 288 460 q 216 442 229 442 l 214 442 q 302 463 251 463 q 395 441 351 463 q 449 370 449 415 m 300 414 q 204 373 253 414 q 153 284 153 331 q 155 278 153 283 q 155 271 155 274 l 158 269 q 166 267 161 267 l 176 267 q 261 319 220 267 q 300 414 300 368 m 262 18 l 252 18 q 222 5 244 14 l 222 -6 q 262 18 262 -6 z "},"3":{"ha":422,"x_min":-31,"x_max":435,"o":"m 233 445 l 233 444 q 232 441 233 441 q 229 444 229 442 q 231 446 230 446 l 232 446 q 233 445 233 446 m 435 412 q 297 273 435 343 q 319 242 297 264 q 340 204 340 220 q 315 115 340 176 q 123 -16 260 -16 q 77 -11 90 -16 q 183 12 147 -11 q 210 46 210 29 l 204 48 q 199 48 200 48 q 158 37 186 44 q 41 18 90 19 q 36 14 40 14 q 26 22 35 14 q -12 48 13 31 q -31 85 -31 61 q -8 137 -31 117 q 46 158 14 158 q 80 131 80 158 q 78 121 80 127 q 75 111 75 114 q 78 98 75 106 q 80 86 80 90 q 57 60 80 72 q 33 40 33 48 q 48 27 33 27 l 72 27 q 246 150 176 27 q 269 210 269 190 q 252 229 269 229 q 199 216 229 229 q 163 204 170 204 l 161 204 l 161 206 q 204 230 184 222 q 237 259 237 241 l 233 260 q 218 256 227 260 q 204 252 208 252 l 199 252 l 204 256 q 302 311 254 283 q 361 399 361 351 q 352 432 361 425 q 316 439 342 439 q 234 412 273 439 q 191 341 191 382 q 191 329 191 337 q 192 316 192 320 q 310 414 264 316 q 280 342 310 372 q 208 311 250 311 q 161 350 161 311 q 170 383 161 370 q 168 369 170 378 q 166 355 166 359 q 165 350 165 353 q 166 345 165 348 l 174 345 q 315 457 208 415 l 315 463 q 284 460 304 463 q 254 457 264 457 l 251 457 q 341 470 287 470 q 435 412 435 470 m 269 235 q 259 252 269 252 q 235 235 235 252 l 269 235 z "},"4":{"ha":393,"x_min":-13,"x_max":433,"o":"m 259 370 q 257 368 258 368 q 256 370 256 369 l 256 371 q 257 372 256 372 l 258 372 q 258 372 258 372 l 259 370 m 246 362 q 244 359 246 361 q 242 363 243 360 q 244 364 243 364 l 245 364 q 246 362 246 364 m 233 353 q 220 345 225 345 l 217 345 q 231 353 222 353 l 233 353 m 433 473 q 326 332 379 402 q 241 199 241 218 q 302 187 241 187 l 297 179 q 220 158 235 158 l 174 64 q 106 34 145 62 q 37 5 66 5 q 84 81 37 21 q 132 153 132 140 l 132 157 q 101 165 127 165 q 33 161 43 165 l -5 149 q -2 158 -5 153 q 0 166 0 163 q -9 174 0 175 l -13 174 q 50 234 9 193 q 107 329 58 245 q 172 446 130 368 q 220 536 191 488 q 239 538 227 536 q 259 540 252 540 l 284 540 l 102 281 l 102 273 l 111 273 l 204 337 l 210 337 l 59 225 q 40 193 40 211 q 60 192 46 193 q 81 191 73 191 q 125 195 94 191 q 170 197 154 197 l 315 374 q 326 404 326 387 l 315 404 q 271 378 300 396 l 269 378 q 430 473 409 473 l 433 473 m 256 171 l 256 179 l 230 179 l 230 171 l 256 171 m 149 171 l 149 179 l 111 179 l 111 171 l 149 171 m 31 166 l 31 174 l 18 174 l 18 166 l 31 166 z "},"5":{"ha":441,"x_min":-24,"x_max":517,"o":"m 517 433 q 484 405 517 422 q 436 388 450 388 q 415 387 429 388 q 395 387 401 387 q 349 394 379 387 q 303 401 319 401 l 296 401 l 270 375 q 275 389 270 381 q 279 409 279 397 l 270 409 l 244 370 l 244 363 l 257 363 l 257 358 q 189 281 191 290 l 190 278 l 190 273 q 227 277 202 273 q 264 281 251 281 q 340 254 318 281 q 359 172 359 229 q 286 38 359 100 q 142 -21 216 -21 q 104 -16 113 -21 q 224 22 180 -13 q 244 43 231 29 l 244 51 q 203 41 224 51 q 71 13 149 18 l 66 5 q 11 30 61 9 q -24 77 -24 44 q -3 127 -24 104 q 45 150 18 150 q 71 136 66 150 q 80 111 73 125 q 98 102 83 108 q 109 86 109 100 q 87 60 109 71 q 66 37 66 49 q 75 22 66 22 q 219 82 156 22 q 283 222 283 142 q 282 250 283 247 q 262 265 278 265 q 138 204 220 265 q 140 214 138 208 q 142 222 142 219 q 137 230 142 227 q 132 237 132 233 q 189 294 157 260 q 286 452 189 294 q 296 460 290 458 q 311 455 318 455 q 339 462 329 455 q 353 469 349 469 q 380 447 358 469 l 404 447 q 438 453 416 447 q 471 460 460 460 l 474 460 l 449 435 l 449 428 q 470 427 456 428 q 492 426 485 426 q 516 435 505 426 l 517 433 m 201 256 l 201 265 q 161 235 161 265 l 172 235 l 201 256 z "},"6":{"ha":527,"x_min":24,"x_max":645,"o":"m 645 458 q 546 507 601 507 q 479 496 500 507 q 446 415 479 415 q 421 429 425 415 q 422 462 422 429 q 267 348 380 462 l 267 338 q 331 282 294 328 q 369 210 369 236 q 285 51 369 120 q 113 -14 205 -14 q 48 11 73 -14 q 24 75 24 35 q 39 153 24 108 q 64 229 52 191 q 191 423 91 330 q 396 522 296 522 q 431 517 408 522 q 467 513 454 513 q 504 516 479 513 q 541 519 529 519 q 607 507 578 519 q 645 460 645 491 l 645 458 m 433 505 q 395 519 433 519 q 233 425 320 519 q 201 377 201 391 l 211 377 q 323 449 247 403 q 433 505 359 467 m 291 271 q 211 246 252 271 q 257 271 234 262 q 289 297 289 284 q 256 331 289 331 l 249 331 q 80 91 80 161 q 81 73 80 85 q 83 54 83 60 l 66 54 q 112 -6 66 -6 q 160 8 132 -6 q 192 41 192 24 q 165 39 183 41 q 139 37 148 37 q 105 41 113 37 q 160 50 140 41 q 252 143 210 70 q 291 271 291 213 m 99 44 q 96 41 98 41 l 96 41 q 93 44 93 42 l 93 45 q 96 50 93 50 l 96 50 q 99 45 98 50 l 99 44 z "},"7":{"ha":446,"x_min":-39,"x_max":496,"o":"m 182 487 q 166 462 177 476 l 166 467 q 180 489 166 489 l 182 487 m 144 410 q 85 343 99 343 q 77 350 77 343 q 140 420 77 356 l 144 410 m 496 449 q 324 279 439 392 q 220 170 283 242 q 115 -5 170 83 q 51 -9 43 -9 q 41 -7 47 -9 q 31 -5 35 -5 q 2 -7 21 -5 q -27 -9 -18 -9 l -39 -9 l 256 267 q 366 397 294 303 l 364 403 l 364 406 q 327 400 351 406 q 289 395 302 395 q 233 404 251 395 q 187 436 229 406 q 174 433 182 436 q 218 471 180 437 q 270 496 245 496 l 271 496 q 267 484 267 492 q 268 472 267 480 q 269 458 269 463 q 351 436 283 436 l 391 436 q 407 459 396 439 q 427 476 416 476 q 418 442 422 465 q 456 446 431 442 q 494 450 481 450 l 496 449 m 458 423 l 458 435 q 391 415 436 428 q 342 348 342 378 l 358 348 l 458 423 z "},"8":{"ha":414,"x_min":5,"x_max":495,"o":"m 350 336 l 347 334 l 345 336 l 345 336 q 347 338 346 338 l 347 338 q 350 336 350 338 m 337 328 l 334 326 l 332 328 l 332 328 q 334 331 333 330 l 334 330 q 337 328 337 330 m 495 435 q 383 302 495 366 q 343 284 353 284 l 340 284 l 345 289 q 405 352 394 338 q 435 431 435 391 q 433 463 435 458 q 410 479 429 479 q 412 458 410 472 q 414 436 414 444 q 400 385 414 405 q 363 345 395 376 l 358 345 q 396 441 396 395 q 375 489 396 489 q 304 454 332 489 q 276 377 276 421 q 294 310 276 310 l 298 310 q 319 319 306 313 l 324 319 q 298 294 298 307 q 311 239 298 281 q 324 172 324 197 q 253 32 324 92 q 102 -26 184 -26 q 35 -4 62 -26 q 5 58 5 19 q 81 197 5 108 q 214 276 109 229 l 214 289 q 184 387 184 353 q 229 477 184 440 q 326 511 271 511 q 431 503 399 511 q 495 435 495 486 m 345 494 l 345 508 q 262 481 295 508 q 229 404 229 453 l 239 404 q 345 494 275 455 m 265 140 q 254 215 265 174 q 217 269 239 269 q 189 261 209 269 q 166 246 166 252 l 166 237 q 208 248 180 242 l 210 246 q 77 75 77 165 q 91 47 77 60 q 120 33 105 33 l 189 33 q 242 73 217 33 q 265 140 265 109 m 219 35 q 184 31 208 35 q 150 26 161 26 q 112 33 137 26 q 75 40 87 40 q 107 -5 75 -5 l 140 -5 q 219 35 219 -5 z "},"9":{"ha":447,"x_min":-56,"x_max":439,"o":"m 361 473 l 357 473 q 348 477 353 473 l 354 477 q 361 473 359 477 m 276 206 q 256 184 276 189 q 246 197 252 190 q 276 212 257 201 l 276 206 m 439 350 q 412 249 439 295 q 239 40 336 122 q -5 -64 118 -64 q -56 -46 -45 -64 q -31 -51 -47 -46 q -6 -56 -15 -56 q 62 -43 18 -56 q 115 -13 115 -28 l 115 -8 q -14 73 -14 -8 q 16 107 -14 107 q 43 86 43 107 q 31 59 43 73 q 19 32 19 45 q 46 5 19 5 l 118 5 q 260 113 173 5 q 345 278 345 219 q 336 286 345 286 q 375 404 375 358 q 374 416 375 408 q 374 427 374 423 q 358 431 369 431 q 267 389 317 431 q 199 311 228 355 q 182 286 195 302 q 181 280 182 283 q 179 276 179 277 l 179 217 q 238 192 179 192 q 212 187 229 187 q 185 193 203 187 q 158 199 168 199 q 193 161 158 161 q 219 168 202 161 q 244 174 235 174 l 246 174 q 180 149 205 149 q 127 170 149 149 q 105 224 105 191 q 140 324 105 252 q 319 482 217 482 q 333 481 324 482 q 345 481 341 481 q 248 418 248 469 q 309 429 270 418 q 370 442 352 441 q 366 468 370 458 l 368 469 q 399 430 374 469 q 425 393 412 411 q 439 350 439 370 z "}," ":{"ha":338,"x_min":0,"x_max":0,"o":""},"!":{"ha":437,"x_min":40,"x_max":508,"o":"m 508 554 q 492 529 503 545 l 189 184 q 130 123 169 163 q 134 136 127 136 l 397 507 q 494 562 437 562 q 508 556 508 562 l 508 554 m 125 64 q 97 21 125 43 q 48 0 70 0 q 40 6 40 0 l 40 19 q 96 73 40 73 l 107 73 q 125 64 125 73 z "},"\"":{"ha":235,"x_min":107,"x_max":388,"o":"m 388 663 q 296 578 387 654 q 276 555 286 566 q 251 540 263 540 l 239 534 l 311 647 q 366 673 328 673 q 388 663 388 673 m 260 663 q 112 532 181 584 l 107 532 l 179 647 q 239 673 195 673 l 251 673 l 260 663 z "},"#":{"ha":581,"x_min":6,"x_max":615,"o":"m 615 473 q 581 427 608 458 q 496 319 532 365 l 496 310 l 594 310 l 581 300 l 479 300 l 395 197 l 395 185 l 513 185 l 513 177 l 377 177 q 216 -14 302 82 l 216 -8 l 338 163 l 338 174 q 298 175 325 174 q 258 176 272 176 q 172 171 223 176 l 27 -3 q 19 -15 27 -7 q 6 -22 11 -22 q 69 71 6 -7 q 134 163 132 149 l 132 172 l 53 172 l 40 179 l 40 184 l 53 190 l 155 190 l 229 286 l 229 300 l 121 300 l 117 307 l 126 313 l 249 313 q 343 435 311 390 q 388 465 366 465 q 403 460 403 465 q 296 324 393 441 l 296 316 q 425 311 351 311 l 449 311 l 454 316 q 517 399 464 326 q 581 473 562 463 q 604 477 590 477 q 615 473 615 477 m 433 286 l 433 298 l 279 298 q 198 201 276 296 l 198 189 l 356 189 q 433 286 392 222 z "},"$":{"ha":417,"x_min":16,"x_max":441,"o":"m 316 509 q 313 508 315 508 l 313 508 q 311 509 311 508 l 311 510 q 312 511 312 511 l 313 511 q 316 509 315 511 m 441 412 q 416 367 441 388 q 368 345 392 345 q 346 350 360 345 q 324 355 332 355 l 310 355 q 290 326 307 352 q 270 296 272 300 q 277 277 270 277 q 279 278 278 277 q 279 261 279 270 q 286 207 279 243 q 292 153 292 171 q 249 66 292 100 l 249 68 q 259 86 252 75 l 257 91 l 257 94 l 249 94 q 105 40 189 51 q 85 18 100 30 q 46 -31 71 -4 l 46 -24 q 77 33 77 27 l 77 37 q 46 68 76 43 q 16 120 16 92 q 30 160 16 140 q 62 180 43 180 q 82 171 72 180 q 93 152 93 161 q 79 121 93 138 q 66 91 66 104 q 66 82 66 88 q 67 73 67 77 q 91 60 77 60 q 105 68 100 60 q 144 130 144 127 l 142 139 q 107 172 116 139 q 67 210 98 205 q 152 158 139 210 q 190 195 165 158 q 216 246 216 231 q 199 319 216 271 q 182 391 182 366 q 216 469 182 446 q 212 432 216 457 q 208 393 208 407 q 216 383 208 383 q 252 417 220 383 q 305 457 287 454 q 383 492 365 465 q 415 534 393 507 q 417 529 416 532 q 404 497 417 514 q 390 473 390 481 q 415 452 390 471 q 441 412 441 433 m 404 437 q 385 457 404 457 q 356 410 356 457 q 372 388 356 388 l 378 388 q 392 413 380 394 q 404 437 404 433 m 358 462 q 284 431 315 462 q 254 356 254 399 l 254 336 q 262 319 254 319 q 275 328 269 319 q 358 462 357 446 m 241 180 q 224 224 241 224 l 118 68 q 113 51 113 62 q 201 79 165 51 q 241 159 241 109 l 241 180 z "},"%":{"ha":599,"x_min":50,"x_max":581,"o":"m 566 197 q 495 71 566 138 q 366 5 425 5 q 310 54 310 5 q 376 173 310 106 q 495 239 443 239 l 496 239 q 402 151 448 210 q 351 37 351 86 q 361 14 351 21 q 365 14 362 14 q 369 13 368 13 q 472 79 417 13 q 530 193 522 141 q 532 241 532 204 q 566 197 566 241 m 581 495 l 67 -54 l 59 -54 l 467 417 q 412 405 448 417 q 358 393 376 393 q 326 397 340 393 q 503 454 447 402 q 578 500 554 500 l 581 498 l 581 495 m 318 399 l 305 399 q 237 255 302 328 q 100 180 171 180 q 50 232 50 180 q 113 352 50 286 q 230 418 176 418 l 233 418 q 140 332 184 391 q 91 217 91 267 q 92 210 91 215 q 93 201 93 204 l 100 193 q 113 192 110 192 q 224 279 170 192 q 273 420 273 358 l 276 420 q 318 399 290 413 z "},"&":{"ha":817,"x_min":0,"x_max":912,"o":"m 519 546 l 502 562 l 505 564 q 519 549 510 560 l 519 546 m 526 541 l 526 540 q 524 536 526 538 q 521 538 522 537 q 524 541 521 541 l 524 541 q 526 541 526 541 m 498 567 l 493 567 q 486 572 490 567 l 490 572 q 498 567 496 572 m 532 519 l 532 502 q 524 465 532 475 l 524 474 q 526 504 524 484 q 527 534 527 524 q 532 519 532 526 m 481 575 q 396 554 439 573 l 391 554 q 458 576 404 576 l 469 576 q 475 576 471 576 q 481 575 479 575 m 370 529 l 366 524 l 366 529 l 370 534 l 370 529 m 396 316 l 393 315 l 391 316 l 393 318 q 396 316 395 317 m 912 446 q 897 403 912 422 q 859 383 882 383 q 838 401 838 383 l 838 452 l 826 465 q 752 447 752 465 q 763 434 752 443 q 774 409 774 425 q 746 378 774 378 q 739 380 743 378 l 736 380 q 705 410 726 390 q 588 319 679 410 q 514 230 572 313 q 507 235 515 235 l 502 235 q 435 171 467 206 q 437 153 435 155 q 447 145 446 148 q 452 130 447 134 q 498 -21 498 19 q 302 -276 498 -159 q 161 -310 245 -310 q 120 -310 120 -310 q 84 -297 113 -309 q 0 -180 0 -260 l 0 -152 q 140 -284 9 -284 l 161 -284 q 192 -279 192 -284 l 192 -271 q 149 -246 158 -260 l 153 -246 q 224 -259 187 -259 l 256 -259 q 376 -171 327 -229 q 430 -35 430 -106 q 418 54 430 -5 q 388 125 403 125 q 375 120 382 125 q 217 22 324 84 l 217 16 q 236 15 224 16 q 256 14 249 14 q 300 27 274 14 q 338 40 326 40 l 340 40 q 180 5 275 5 q 114 8 127 5 q 77 56 77 18 q 82 80 77 66 q 87 127 87 94 q 94 176 87 160 q 182 278 120 237 q 307 337 222 304 l 311 342 q 328 431 319 387 q 358 516 338 481 q 348 475 358 502 q 338 435 338 449 l 345 435 q 435 487 393 487 q 471 462 461 487 q 481 414 473 456 q 427 345 461 392 l 425 347 q 426 352 425 348 q 439 368 431 359 q 436 375 438 370 l 427 375 q 348 338 348 343 q 370 298 348 298 q 375 298 372 298 q 361 283 361 291 q 417 179 361 269 l 430 179 l 642 393 q 665 409 643 394 q 750 466 729 454 q 846 495 803 495 q 912 446 912 495 m 366 58 q 364 54 366 56 q 362 58 363 55 q 363 59 362 59 l 365 59 q 366 58 366 59 m 107 -59 q 102 -62 104 -61 q 98 -59 100 -61 l 97 -58 q 100 -56 98 -56 l 102 -56 q 107 -59 105 -56 m 90 -62 q 81 -67 87 -64 l 77 -67 q 85 -62 80 -67 l 90 -62 m 7 -142 q 5 -144 7 -144 l 4 -144 q 1 -140 2 -143 q 5 -139 3 -139 q 7 -142 6 -140 m 465 433 q 430 465 465 465 q 370 427 393 465 q 348 356 348 395 q 455 396 385 356 q 465 433 465 425 m 319 270 q 311 324 319 288 q 209 269 271 324 q 147 176 147 214 l 161 176 q 294 254 205 202 q 319 270 319 269 m 378 144 l 378 150 l 345 217 q 338 239 343 225 q 323 257 332 257 q 307 252 314 257 q 208 182 235 205 q 149 78 149 130 l 149 60 q 189 43 165 43 q 358 120 247 43 q 378 144 378 134 z "},"'":{"ha":235,"x_min":107,"x_max":260,"o":"m 260 663 q 112 532 181 584 l 107 532 l 179 647 q 239 673 195 673 l 251 673 l 260 663 z "},"(":{"ha":457,"x_min":64,"x_max":732,"o":"m 549 720 q 546 717 549 718 q 545 720 545 718 l 546 722 q 549 720 549 722 m 732 759 q 387 547 540 693 q 153 217 241 408 q 105 35 105 113 q 115 -54 105 -23 q 127 -84 116 -58 q 136 -112 136 -105 l 136 -115 q 94 -41 106 -72 l 81 -41 l 72 -136 q 64 -77 64 -107 q 78 160 64 85 q 383 608 125 406 q 532 711 473 680 l 536 711 q 520 700 531 707 q 522 690 523 696 l 527 690 q 725 759 680 759 l 732 759 m 698 -131 q 696 -134 698 -133 q 693 -131 694 -133 l 695 -130 q 698 -131 697 -130 m 144 -121 q 141 -123 142 -123 l 140 -123 q 138 -121 138 -122 l 138 -120 q 140 -118 138 -119 q 144 -121 142 -119 z "},")":{"ha":436,"x_min":-104,"x_max":496,"o":"m 428 727 l 427 727 q 423 731 423 727 l 423 734 l 428 732 l 428 727 m 496 514 q 130 -39 496 237 q 53 -90 123 -43 q 49 -91 52 -90 q 45 -94 47 -92 q 38 -90 39 -94 q 33 -85 38 -85 q -33 -106 10 -85 q -99 -127 -76 -127 l -104 -127 q 211 90 72 -58 q 418 412 345 230 q 458 581 458 510 q 449 671 458 639 q 431 719 441 695 l 431 722 l 436 719 q 467 667 455 684 l 476 667 l 476 757 q 496 620 496 709 l 496 514 m 33 -100 q 32 -103 33 -101 q 31 -105 32 -104 q 28 -102 29 -104 l 28 -101 l 28 -100 q 30 -99 28 -99 l 31 -99 q 33 -100 33 -99 m 11 -115 l 8 -118 l 6 -115 q 8 -112 7 -112 l 9 -112 q 11 -115 11 -113 m -9 -127 q -13 -131 -11 -130 q -14 -128 -14 -130 l -14 -127 q -12 -125 -14 -125 l -11 -125 q -9 -127 -10 -125 z "},"*":{"ha":260,"x_min":102,"x_max":372,"o":"m 372 593 l 260 593 q 275 546 260 576 q 289 500 289 517 l 289 496 q 230 578 248 549 q 120 489 210 578 l 115 489 q 195 591 163 546 l 195 599 q 102 625 159 606 l 107 629 l 193 629 q 196 639 196 644 q 195 642 195 641 q 166 722 182 675 l 171 727 q 230 642 214 674 l 243 642 q 340 727 286 685 l 343 727 q 271 633 313 687 l 271 631 q 270 626 271 629 q 321 609 270 616 q 372 593 372 602 z "},"+":{"ha":572,"x_min":54,"x_max":535,"o":"m 535 219 l 532 214 l 305 206 q 267 163 299 200 q 118 -3 219 106 l 118 1 l 254 189 l 254 203 l 62 203 q 54 214 54 203 q 72 232 54 232 l 286 232 l 404 388 q 449 415 425 415 q 468 410 445 415 q 455 385 468 400 l 336 239 l 336 227 l 535 219 z "},",":{"ha":227,"x_min":-59,"x_max":131,"o":"m 131 51 q 62 -56 131 -4 q -59 -105 -2 -105 l -59 -100 q -45 -93 -51 -98 q 16 -66 -23 -85 q 58 22 45 -46 q 102 78 69 78 q 131 51 131 78 z "},"-":{"ha":441,"x_min":51,"x_max":418,"o":"m 418 182 l 51 160 l 51 195 l 414 195 l 418 182 z "},".":{"ha":145,"x_min":16,"x_max":80,"o":"m 80 45 q 41 3 80 3 q 16 31 16 3 q 50 68 16 68 q 80 45 80 68 z "},"/":{"ha":519,"x_min":-94,"x_max":680,"o":"m 680 866 l -53 -62 l -94 -62 l 634 866 l 680 866 z "},":":{"ha":243,"x_min":22,"x_max":198,"o":"m 198 237 q 161 198 198 198 q 138 224 138 198 q 170 260 138 260 q 198 237 198 260 m 81 51 q 46 11 81 11 q 22 39 22 11 q 56 75 22 75 q 81 51 81 75 z "},";":{"ha":254,"x_min":-83,"x_max":211,"o":"m 211 237 q 172 195 211 195 q 149 210 155 195 l 149 225 q 182 264 149 264 q 211 237 211 264 m 86 40 q 25 -57 86 -9 q -83 -102 -33 -102 l -83 -96 q -6 -58 -35 -77 q 22 12 7 -47 q 62 64 35 64 q 86 40 86 64 z "},"<":{"ha":2442,"x_min":-40,"x_max":2426,"o":"m 2426 -131 q 2153 -547 2426 -395 q 1640 -673 1927 -673 q 1263 -595 1409 -673 q 1177 -621 1261 -595 q 945 -660 1053 -660 q 703 -615 802 -660 q 568 -430 568 -555 q 707 -225 568 -303 l 707 -174 q 720 -170 707 -169 l 720 -217 q 912 -179 813 -179 q 1113 -235 1046 -179 q 1136 -259 1131 -250 q 1152 -294 1139 -264 l 1156 -297 q 1438 -136 1235 -155 l 1438 -131 q 1213 -16 1327 -16 q 1202 -18 1206 -16 q 747 -136 972 -136 q 470 -94 596 -136 q 254 68 309 -40 l 249 68 q 86 -5 160 -5 q -40 98 -40 -5 q 0 172 -40 173 q -14 140 0 160 q -27 100 -27 119 q 83 21 -27 21 q 241 90 179 21 q 239 121 241 100 q 237 153 237 142 q 273 219 237 219 q 300 182 300 219 q 267 90 300 149 q 314 25 279 62 q 375 -18 353 -18 l 377 -18 q 359 46 359 14 q 369 90 359 77 q 395 115 389 115 l 403 115 l 403 107 q 377 62 377 79 q 422 10 377 21 q 500 5 435 7 q 511 4 503 5 q 524 3 519 3 q 717 21 677 3 q 637 56 691 34 q 517 108 551 84 q 458 217 458 149 q 643 429 458 351 q 944 490 788 490 q 1160 455 1061 490 q 1331 328 1282 412 q 1356 264 1356 282 l 1356 171 q 1379 166 1383 166 q 1386 166 1386 166 q 1440 182 1404 172 q 1879 256 1687 256 q 2246 176 2103 256 q 2426 -131 2426 76 m 2391 -140 q 2197 109 2391 31 q 1856 163 2059 163 q 1506 127 1714 163 l 1505 126 q 1519 111 1505 119 q 1539 98 1527 106 q 1637 -121 1637 8 q 1527 -361 1637 -264 q 1468 -412 1506 -377 q 1430 -456 1455 -427 q 1297 -575 1357 -538 q 1643 -656 1415 -656 q 2130 -534 1913 -656 q 2391 -140 2391 -388 m 1284 77 l 1270 77 q 1233 68 1257 77 q 1265 59 1257 59 l 1267 59 l 1284 77 m 1616 -131 l 1616 -90 q 1505 40 1615 -17 q 1331 86 1415 86 q 1309 76 1318 86 q 1292 56 1301 66 l 1297 51 q 1423 -21 1379 19 q 1506 -140 1473 -64 q 1544 -161 1531 -149 q 1527 -159 1538 -161 q 1510 -157 1515 -157 q 1512 -193 1510 -169 q 1514 -230 1514 -218 q 1506 -292 1514 -251 q 1497 -353 1497 -332 l 1497 -358 q 1582 -259 1548 -325 q 1616 -131 1616 -193 m 1103 76 l 1103 77 q 1101 81 1103 81 l 1100 81 q 1097 77 1097 81 l 1097 76 q 1100 72 1098 72 l 1101 72 q 1103 76 1103 72 m 1343 199 q 1300 337 1343 293 q 937 452 1188 452 q 548 340 672 452 q 474 217 474 274 q 519 129 474 173 q 608 85 564 85 l 612 85 q 602 130 602 105 q 612 163 602 146 q 637 184 623 184 l 642 180 q 642 177 642 179 q 631 155 642 168 q 620 131 620 142 q 650 77 620 77 q 850 90 786 77 q 901 102 867 94 l 1101 149 q 1148 158 1112 151 q 1195 166 1165 160 q 1213 179 1213 172 l 1213 206 q 1124 366 1213 308 q 941 417 1048 417 q 767 375 846 417 q 671 238 671 324 q 722 150 671 182 q 826 123 766 123 q 1011 264 1005 123 q 1021 233 1021 257 q 950 129 1021 170 q 821 94 890 94 q 699 126 749 94 q 640 232 640 163 q 671 324 640 286 q 944 435 758 435 q 1233 171 1227 435 l 1340 174 q 1343 199 1343 196 m 1164 -8 q 1133 -3 1141 -3 q 1042 -54 1128 -3 q 1103 -36 1057 -54 q 1164 -8 1147 -19 m 1480 -265 l 1480 -220 q 1470 -180 1480 -203 q 1442 -153 1457 -153 q 1282 -208 1364 -153 q 1190 -340 1190 -267 l 1190 -425 q 1200 -455 1190 -446 q 1335 -435 1255 -455 q 1455 -381 1426 -412 q 1480 -265 1480 -354 m 1433 -425 l 1430 -425 q 1213 -486 1340 -465 q 1272 -557 1223 -509 l 1284 -557 q 1369 -501 1326 -529 q 1433 -425 1420 -465 m 819 39 l 734 39 q 779 33 754 33 q 819 39 804 33 m 730 44 q 726 45 730 45 l 722 45 q 717 43 718 45 q 724 39 720 40 q 730 43 728 39 q 730 44 730 43 m 1093 -5 l 1088 0 l 960 0 q 863 -9 960 0 l 671 -26 q 580 -26 671 -26 q 390 5 446 -26 q 515 -71 390 -40 q 680 -94 612 -94 l 791 -94 q 1093 -5 956 -94 m 1145 -460 q 1136 -396 1145 -435 q 1059 -450 1094 -437 l 1067 -455 q 1131 -460 1141 -460 l 1145 -460 m 1136 -328 q 907 -208 1136 -208 q 739 -238 810 -208 q 730 -246 730 -242 q 840 -378 730 -310 q 1011 -442 941 -442 q 1098 -409 1060 -442 q 1136 -328 1136 -376 m 1238 -578 q 1161 -489 1177 -527 q 1100 -484 1148 -489 q 1025 -477 1075 -483 q 998 -473 1008 -473 q 933 -468 947 -470 q 876 -447 890 -462 q 842 -412 865 -435 q 717 -269 744 -325 q 709 -254 715 -263 q 693 -260 703 -254 q 586 -433 586 -334 q 718 -600 586 -546 q 947 -639 814 -639 q 1238 -578 1129 -639 m 914 -446 q 910 -444 913 -444 l 908 -444 q 905 -446 905 -444 q 909 -450 905 -447 q 913 -447 911 -450 l 914 -446 m 901 -442 l 876 -430 l 871 -430 q 896 -442 877 -442 l 901 -442 m 871 -425 q 868 -422 870 -422 l 867 -422 q 864 -425 864 -422 l 864 -426 q 867 -430 865 -430 l 867 -430 q 871 -426 870 -430 l 871 -425 m 284 180 q 271 201 284 201 q 253 170 256 201 q 254 127 254 178 q 259 111 254 117 q 284 180 284 144 m 390 7 l 390 9 q 387 13 389 13 l 386 13 q 383 9 384 13 l 383 7 q 386 5 384 5 l 387 5 q 390 7 389 5 z "},"=":{"ha":441,"x_min":51,"x_max":418,"o":"m 418 278 l 51 256 l 51 291 l 414 291 l 418 278 m 414 152 l 410 138 l 51 117 l 51 152 l 414 152 z "},">":{"ha":2434,"x_min":16,"x_max":2482,"o":"m 2482 105 q 2355 3 2482 3 q 2191 77 2281 3 l 2186 77 q 1968 -87 2128 -35 q 1688 -127 1845 -127 q 1238 -9 1465 -127 q 1233 -8 1236 -9 q 1107 -43 1167 -8 q 1003 -123 1069 -64 l 1003 -127 q 1284 -289 1209 -147 l 1289 -286 q 1307 -251 1295 -274 q 1329 -227 1312 -241 q 1529 -171 1393 -171 q 1722 -210 1626 -171 l 1722 -161 q 1735 -166 1735 -161 l 1735 -217 q 1872 -422 1872 -297 q 1738 -607 1872 -547 q 1495 -652 1639 -652 q 1294 -626 1394 -652 q 1230 -606 1260 -618 q 1187 -588 1186 -588 l 1179 -588 q 805 -665 1034 -665 q 290 -541 515 -665 q 16 -123 16 -389 q 197 184 16 85 q 567 264 341 264 q 1017 185 749 264 q 1054 174 1055 174 q 1084 179 1060 174 q 1083 222 1084 180 q 1084 267 1082 249 q 1094 307 1086 290 q 1175 409 1125 373 q 1500 498 1302 498 q 1799 436 1654 498 q 1984 225 1984 357 q 1924 117 1984 157 q 1805 64 1904 104 q 1762 41 1772 51 l 1723 28 q 1830 13 1750 13 l 1974 13 q 2031 26 2005 13 q 2064 71 2064 43 q 2038 115 2064 87 l 2038 123 q 2072 98 2052 123 q 2081 54 2081 85 q 2064 -9 2081 19 q 2127 32 2088 -9 q 2174 98 2160 68 q 2140 190 2140 157 q 2169 227 2140 227 q 2193 216 2182 227 q 2204 192 2204 205 q 2202 147 2204 176 q 2199 104 2199 118 l 2199 98 q 2357 28 2265 28 q 2469 109 2469 28 q 2455 148 2469 127 q 2441 180 2441 168 q 2482 105 2482 181 m 2188 139 l 2188 177 q 2171 210 2188 210 q 2157 189 2157 210 q 2184 118 2157 152 q 2188 139 2188 126 m 1966 225 q 1935 307 1966 271 q 1505 460 1803 460 q 1247 415 1358 460 q 1097 230 1097 354 q 1102 182 1097 182 l 1208 179 q 1498 442 1214 442 q 1695 397 1609 442 q 1800 239 1800 340 q 1742 134 1800 171 q 1622 102 1693 102 q 1491 137 1552 102 q 1420 241 1420 178 q 1430 271 1420 264 q 1615 131 1436 131 q 1718 158 1675 131 q 1770 246 1770 189 q 1674 384 1770 333 q 1500 425 1596 425 q 1317 374 1394 425 q 1228 214 1228 315 q 1229 208 1228 212 q 1230 201 1230 203 q 1230 184 1230 193 q 1246 174 1232 179 q 1297 166 1255 171 q 1356 153 1302 165 q 1610 94 1442 128 l 1690 85 l 1792 85 q 1821 139 1821 85 q 1810 163 1821 150 q 1800 185 1800 176 q 1805 192 1800 192 q 1830 171 1820 192 q 1839 138 1839 154 q 1830 93 1839 117 q 1921 136 1876 93 q 1966 225 1966 180 m 1723 51 l 1701 52 q 1660 49 1687 52 q 1622 46 1634 46 q 1661 41 1638 41 q 1723 51 1691 41 m 2056 16 q 1956 -15 2016 -9 q 1850 -18 1931 -18 q 1770 -18 1769 -18 l 1577 -1 q 1480 8 1480 8 l 1353 8 l 1348 3 q 1650 -86 1484 -86 q 2056 16 2019 -86 m 1343 84 l 1343 85 q 1341 90 1343 90 l 1339 90 q 1337 85 1337 90 l 1337 84 q 1339 80 1337 80 l 1341 80 q 1343 84 1343 80 m 1399 -45 q 1398 -45 1399 -45 l 1397 -45 q 1396 -45 1396 -45 l 1396 -47 q 1398 -50 1396 -49 q 1399 -46 1399 -48 l 1399 -45 m 1391 -43 q 1310 5 1312 5 q 1276 0 1300 5 q 1386 -43 1360 -43 l 1391 -43 m 1208 77 q 1172 85 1192 85 l 1156 85 l 1174 67 q 1208 77 1188 67 m 1710 -238 q 1632 -211 1710 -224 q 1533 -199 1565 -199 q 1305 -319 1305 -199 q 1343 -401 1305 -368 q 1430 -435 1381 -435 q 1601 -372 1501 -435 q 1710 -238 1710 -303 m 1575 -417 l 1527 -439 q 1575 -417 1560 -439 m 1856 -425 q 1767 -264 1856 -326 q 1731 -246 1742 -246 q 1690 -324 1721 -275 l 1647 -368 q 1634 -378 1644 -370 q 1600 -404 1619 -389 l 1565 -439 q 1506 -460 1548 -457 q 1442 -465 1485 -461 q 1415 -469 1437 -465 q 1281 -481 1358 -481 q 1204 -570 1264 -517 q 1493 -631 1310 -631 q 1724 -593 1628 -631 q 1856 -425 1856 -539 m 1383 -442 q 1307 -388 1343 -428 q 1297 -452 1297 -427 l 1310 -452 q 1373 -447 1301 -452 l 1383 -442 m 1148 64 q 1118 94 1122 94 q 937 48 1029 94 q 824 -81 824 -9 l 824 -123 q 858 -251 824 -185 q 944 -350 892 -317 q 935 -286 944 -328 q 926 -222 926 -243 q 929 -185 926 -210 q 931 -149 931 -161 q 918 -151 926 -149 q 904 -153 909 -153 l 898 -153 q 936 -132 907 -140 q 1019 -14 969 -58 q 1143 59 1063 26 l 1148 64 m 1251 -417 l 1251 -332 q 1160 -199 1251 -258 q 998 -145 1078 -145 q 970 -182 983 -145 q 960 -235 960 -214 q 970 -343 960 -319 q 1031 -403 985 -384 q 1232 -447 1143 -447 l 1242 -447 q 1251 -417 1251 -431 m 1230 -477 q 1013 -417 1086 -454 l 1008 -417 q 1118 -524 1030 -477 q 1156 -549 1143 -537 l 1169 -549 q 1203 -516 1181 -541 q 1230 -477 1225 -491 m 1143 -567 q 1008 -444 1079 -526 q 975 -404 997 -430 q 913 -353 972 -402 q 804 -113 804 -261 q 846 46 804 -26 q 936 134 860 69 l 936 136 q 601 171 784 171 q 251 118 389 171 q 50 -132 50 42 q 311 -524 50 -376 q 794 -648 530 -648 q 1102 -593 982 -648 q 1143 -567 1118 -586 z "},"?":{"ha":399,"x_min":40,"x_max":495,"o":"m 495 490 q 469 422 495 467 q 319 300 432 355 q 150 199 172 229 q 130 161 150 199 q 107 131 115 131 q 156 216 107 176 q 239 276 198 246 q 377 507 377 395 q 403 442 403 477 q 423 487 423 442 q 375 534 423 534 q 224 455 286 534 q 219 441 219 449 q 225 426 219 434 q 232 410 232 417 q 198 391 232 391 q 197 384 198 389 q 197 375 197 378 q 201 350 197 353 q 171 383 171 350 q 201 460 171 410 q 219 468 206 468 q 296 529 246 486 q 420 559 382 559 q 473 540 451 559 q 495 490 495 521 m 121 59 q 95 19 121 39 q 48 0 69 0 q 40 8 40 0 l 40 21 q 51 61 40 40 q 80 86 63 86 q 121 59 121 86 z "},"@":{"ha":629,"x_min":50,"x_max":586,"o":"m 500 315 q 440 238 477 291 q 397 158 397 177 q 423 136 397 136 q 457 147 437 136 q 489 158 477 158 l 492 158 q 403 123 467 123 q 347 160 347 123 q 348 173 347 164 q 350 187 350 182 l 343 187 q 224 123 259 123 q 185 157 185 123 q 260 269 185 214 q 390 319 329 319 q 419 304 409 319 q 435 289 430 289 l 441 289 q 500 321 473 321 l 500 315 m 586 291 q 570 246 586 280 q 546 204 555 212 q 505 166 532 193 l 500 166 q 546 244 546 212 l 556 244 q 568 311 568 288 q 417 431 568 431 q 197 347 298 431 q 91 140 91 258 q 151 32 91 69 q 276 0 201 0 q 458 51 380 0 q 559 204 547 107 q 560 199 559 203 q 561 195 561 196 l 561 185 q 458 41 561 98 q 275 -8 370 -8 q 123 33 186 -8 q 50 165 50 81 q 179 366 50 283 q 420 439 294 439 q 531 409 484 439 q 586 313 586 373 l 586 291 m 415 292 q 408 311 415 309 l 391 311 q 293 252 354 311 q 232 157 232 193 q 248 140 232 140 q 349 199 282 140 q 415 292 415 258 z "},"A":{"ha":1388,"x_min":78,"x_max":1934,"o":"m 1934 853 q 1833 699 1934 777 q 1661 606 1753 637 q 1577 576 1633 596 l 1390 338 q 1263 111 1310 237 l 1263 100 l 1267 100 q 1289 106 1270 100 q 1433 184 1367 126 l 1438 184 q 1344 102 1437 157 q 1227 16 1242 43 l 1152 16 q 1121 31 1147 31 l 1022 31 q 1009 46 1009 31 q 1015 56 1009 56 l 1105 56 l 1139 77 l 1139 78 q 1099 94 1139 83 q 976 155 1055 107 q 446 -41 724 -41 q 400 -40 431 -41 q 356 -39 370 -39 q 479 -257 356 -180 q 733 -321 582 -321 q 931 -292 841 -321 q 1093 -180 1044 -254 q 1110 -117 1110 -154 q 1088 -51 1110 -86 l 1096 -51 q 1121 -81 1110 -51 q 1131 -125 1131 -106 q 1013 -271 1131 -207 q 819 -331 913 -326 q 706 -336 720 -336 q 483 -277 580 -332 q 348 -99 368 -212 l 337 -37 l 332 -33 q 149 62 218 -13 q 78 256 78 141 l 78 305 q 91 357 78 317 q 264 570 132 486 q 581 660 404 660 q 851 586 717 660 l 856 586 q 866 601 861 591 q 910 655 883 632 q 945 675 924 666 q 960 680 950 677 l 960 682 q 950 724 960 696 q 941 766 941 751 q 997 897 941 850 q 1134 941 1049 941 q 1237 918 1192 941 q 1294 837 1294 888 l 1289 837 q 1141 923 1262 923 q 1015 883 1063 923 q 963 764 963 840 q 985 684 963 705 q 1126 606 1058 675 q 1152 576 1134 595 q 1276 556 1173 556 q 1404 687 1303 589 q 1836 923 1647 923 l 1876 923 q 1920 901 1904 923 q 1934 853 1934 881 m 1921 853 q 1840 913 1921 913 q 1735 897 1786 913 q 1649 842 1673 878 q 1629 814 1643 832 q 1713 867 1647 822 q 1808 898 1758 898 q 1813 897 1809 898 q 1817 896 1816 896 l 1826 886 q 1718 858 1733 886 l 1727 858 q 1619 750 1683 843 q 1533 612 1576 681 q 1516 581 1527 602 l 1529 581 q 1848 877 1655 720 l 1848 882 q 1841 890 1848 890 l 1876 896 q 1709 725 1823 848 q 1602 606 1673 686 l 1607 606 q 1724 658 1634 606 q 1839 730 1796 699 q 1921 853 1921 790 m 1619 799 q 1589 757 1610 784 q 1619 799 1600 770 m 1599 814 q 1455 680 1537 778 q 1506 720 1472 694 q 1348 556 1453 667 l 1371 556 q 1415 572 1402 556 q 1535 733 1455 626 l 1529 733 q 1522 732 1525 733 q 1599 814 1571 773 m 1512 558 q 1510 564 1511 564 q 1502 553 1502 564 q 1503 551 1502 551 q 1512 558 1512 551 m 1396 543 l 1340 543 l 1223 403 q 1236 332 1226 358 q 1272 305 1240 321 l 1396 543 m 1263 543 q 1216 550 1248 543 q 1169 556 1185 556 l 1164 556 l 1160 551 q 1147 562 1156 558 l 1143 562 q 1164 532 1150 546 l 1164 551 l 1201 469 q 1223 490 1203 470 q 1263 543 1228 504 m 1173 526 l 1173 528 q 1170 532 1172 532 l 1168 532 q 1166 528 1166 532 l 1166 526 q 1168 522 1166 522 l 1170 522 q 1173 526 1172 522 m 1134 581 l 1134 586 q 1013 656 1076 656 q 1006 655 1010 656 q 1068 610 1019 639 q 1134 581 1117 582 m 989 637 q 972 656 983 656 q 907 620 928 656 q 989 637 945 637 m 1204 338 l 1204 385 l 1174 355 l 1204 338 m 1185 452 q 1177 471 1184 459 q 1143 527 1149 517 q 1096 572 1122 555 q 1008 595 1057 595 q 941 582 971 595 q 895 535 902 566 q 920 442 920 484 q 918 414 920 433 q 916 385 916 395 q 1013 377 931 384 q 1112 372 1074 372 l 1118 372 l 1185 452 m 1263 288 l 1263 292 q 1238 305 1260 299 l 1238 306 l 1237 303 l 1235 291 q 1228 233 1234 277 q 1227 214 1227 220 l 1227 203 l 1263 288 m 1215 252 l 1215 254 q 1213 260 1215 257 q 1211 254 1211 259 l 1211 251 q 1213 241 1211 243 q 1215 252 1215 248 m 1209 221 l 1209 233 q 1202 206 1209 226 q 1196 179 1196 186 l 1195 176 l 1196 170 q 1209 221 1209 174 m 1289 85 l 1284 85 q 1246 60 1251 85 l 1247 60 q 1289 85 1273 60 m 907 442 l 907 458 q 882 519 907 519 q 863 380 863 479 q 903 397 894 380 q 907 442 907 407 m 1204 284 l 1204 315 q 1160 331 1181 331 q 1002 172 1158 331 l 1002 170 q 1160 111 1058 124 q 1204 284 1204 208 m 1096 343 q 970 363 1064 363 l 936 363 q 910 361 913 363 q 885 310 885 347 q 915 246 885 290 q 963 203 945 203 l 1096 343 m 1139 98 q 1136 99 1137 99 l 1134 98 q 1137 93 1135 94 q 1139 98 1139 94 m 890 361 l 867 361 l 869 358 q 870 346 869 354 q 872 334 872 338 l 876 334 l 890 361 m 1118 100 q 1115 104 1118 104 q 1114 101 1114 103 l 1114 100 q 1114 98 1114 98 q 1118 100 1117 99 m 1101 105 q 1097 107 1099 107 l 1096 105 l 1099 102 q 1101 105 1101 104 m 1084 108 l 1084 110 q 1082 113 1084 113 l 1081 113 q 1078 110 1078 113 l 1078 108 q 1081 105 1079 106 l 1082 105 q 1084 108 1084 106 m 1071 117 q 1067 118 1069 118 l 1066 118 q 1063 117 1063 118 q 1067 112 1065 113 q 1071 117 1069 113 m 1059 119 l 1059 121 q 1056 125 1059 125 l 1055 125 q 1053 121 1053 125 l 1053 119 q 1056 113 1053 113 q 1059 119 1059 115 m 1046 123 l 1046 124 q 1043 127 1046 127 l 1042 127 q 1040 124 1040 127 l 1040 123 q 1042 120 1040 120 l 1044 120 q 1046 123 1046 120 m 1038 127 l 1038 129 q 1036 132 1038 132 l 1035 132 q 1032 129 1032 132 l 1031 127 q 1034 125 1032 125 l 1036 125 q 1038 127 1038 125 m 851 305 l 829 358 l 826 358 q 778 343 787 358 q 745 233 774 278 l 749 233 q 804 264 790 255 q 851 305 825 279 m 759 342 q 627 309 710 342 q 508 241 541 275 q 517 242 513 242 q 561 184 552 242 q 574 182 564 182 q 704 221 654 182 q 759 342 759 264 m 754 374 q 698 456 754 427 q 594 479 654 479 q 458 440 524 479 q 363 338 393 401 q 337 256 337 286 q 430 193 377 210 q 586 305 478 247 q 679 340 595 310 q 754 374 754 368 m 941 187 q 864 281 917 222 l 859 281 q 749 203 812 236 q 561 144 637 144 q 519 151 547 144 q 477 158 492 158 q 473 155 474 157 q 536 68 473 103 q 647 40 589 40 q 869 122 740 40 q 907 149 882 131 q 941 187 941 177 m 842 556 l 842 562 q 588 620 749 620 q 255 532 399 620 q 86 251 86 428 q 249 9 86 87 q 329 -14 299 -14 q 350 31 339 -14 q 359 90 359 71 q 346 117 359 98 q 328 144 329 141 q 305 252 305 188 q 386 445 305 365 q 578 524 466 524 q 778 372 746 524 l 787 372 q 804 374 793 372 q 819 375 814 375 q 819 471 819 477 q 842 556 821 500 m 502 236 l 501 237 q 498 241 501 241 l 498 241 q 495 237 496 241 l 495 236 q 498 233 496 233 l 499 233 q 502 236 501 234 m 490 184 l 490 198 q 476 184 476 198 l 490 184 m 486 229 q 446 187 466 213 l 465 187 l 486 229 m 665 12 q 661 14 665 14 l 659 14 q 655 12 655 14 q 656 9 656 11 l 660 8 q 665 9 663 8 l 665 12 m 634 31 q 538 56 581 33 q 473 127 494 79 q 465 158 465 146 q 430 170 460 170 q 383 107 383 123 q 448 56 383 89 q 534 26 510 26 q 570 25 546 26 q 607 24 595 24 q 617 25 610 24 q 626 26 623 26 l 634 31 m 412 172 q 337 233 385 194 l 337 211 q 348 158 337 190 q 375 120 360 120 q 412 172 386 138 m 647 6 q 615 6 632 6 q 375 81 464 6 l 372 81 q 360 45 366 81 q 355 0 355 15 l 355 -19 q 401 -24 374 -24 l 456 -24 q 647 6 581 -24 m 1806 883 q 1799 878 1806 880 q 1792 883 1792 878 q 1798 885 1792 885 l 1801 885 q 1806 883 1803 885 m 1784 877 q 1778 875 1782 876 q 1767 871 1774 873 q 1762 872 1764 871 q 1769 874 1765 872 q 1775 877 1773 877 l 1784 877 m 1752 867 l 1752 865 q 1750 863 1752 863 l 1748 866 q 1749 871 1748 869 q 1752 867 1752 871 m 1740 861 l 1740 860 q 1738 859 1739 859 q 1735 861 1736 859 q 1736 864 1735 864 l 1737 864 q 1740 861 1740 863 m 1522 732 q 1506 720 1514 726 q 1522 732 1514 729 z "},"B":{"ha":1480,"x_min":104,"x_max":2176,"o":"m 1533 834 q 1532 832 1533 833 q 1530 829 1531 830 q 1528 831 1529 830 q 1527 834 1528 833 q 1529 836 1528 836 l 1531 836 q 1533 834 1533 835 m 1219 268 q 1217 265 1219 266 l 1214 269 q 1215 271 1215 271 l 1216 271 q 1219 269 1219 271 l 1219 268 m 2176 783 q 2084 606 2176 674 q 1888 543 2001 543 q 1767 570 1816 543 q 1706 669 1706 604 q 1740 761 1706 719 q 1822 804 1774 804 l 1835 804 q 1756 757 1770 768 q 1723 674 1723 727 q 1778 582 1723 614 q 1888 554 1824 554 q 2066 616 1989 554 q 2146 781 2146 682 q 2060 932 2146 884 q 1880 971 1991 971 q 1532 854 1702 971 q 1497 819 1497 831 q 1508 821 1500 819 q 1519 823 1515 823 q 1508 813 1515 821 l 1508 811 q 1523 780 1508 802 q 1544 747 1542 753 q 1557 669 1557 718 q 1404 454 1557 535 l 1404 449 q 1461 321 1461 397 q 1299 64 1461 184 l 1299 60 q 1314 34 1299 56 q 1329 -8 1329 11 q 1324 -21 1329 -16 q 1309 25 1316 2 q 1281 56 1296 56 q 1220 37 1291 56 q 1091 19 1150 19 l 1074 19 q 1064 20 1070 19 q 1056 21 1059 21 q 1027 35 1034 31 q 1004 56 1010 44 l 1004 75 q 1027 134 1004 118 l 1027 132 q 1020 100 1027 122 q 1013 60 1013 78 q 1022 45 1013 58 q 1053 96 1021 64 l 1053 158 q 1048 161 1049 159 q 1040 150 1044 158 l 1038 153 l 1038 155 l 1040 157 q 1129 276 1069 197 q 1173 318 1133 281 q 1188 329 1184 329 q 1198 323 1196 329 q 1113 237 1113 238 q 1069 130 1069 184 q 1070 117 1069 125 q 1072 105 1072 109 l 1076 105 q 1096 110 1083 105 q 1115 115 1108 115 q 1156 118 1128 115 q 1198 120 1183 120 q 1337 356 1337 239 q 1333 382 1337 365 q 1329 409 1329 400 q 1353 347 1353 391 l 1353 269 q 1371 385 1371 304 q 1350 431 1371 431 q 1324 414 1325 431 q 1310 418 1319 418 q 1286 416 1302 418 q 1263 414 1271 414 q 1214 441 1214 414 q 1247 482 1214 478 q 1316 487 1254 484 q 1332 487 1316 487 q 1442 578 1388 487 q 1487 728 1487 654 q 1474 779 1487 779 q 1386 705 1468 779 q 1366 679 1379 698 l 1084 289 q 1027 224 1065 267 q 968 171 1021 217 q 943 142 943 149 q 947 93 943 125 q 952 45 952 61 q 844 -250 952 -119 q 568 -387 730 -387 q 350 -279 424 -387 q 283 -35 289 -190 q 251 -14 281 -32 q 104 217 104 72 q 248 490 104 396 q 559 568 372 572 q 665 732 589 650 q 743 813 720 792 q 832 882 789 858 q 979 920 901 920 q 1020 918 1003 920 q 1029 916 1022 918 q 1040 913 1037 913 q 1109 915 1063 913 q 1179 917 1156 917 q 1404 867 1255 917 q 1434 854 1405 867 q 1465 846 1452 846 q 1508 867 1482 854 q 1891 989 1747 989 q 2082 943 2005 989 q 2176 783 2176 888 m 1461 791 l 1461 794 l 1438 764 q 1461 791 1461 787 m 1307 886 q 1168 904 1255 904 l 1118 904 q 1072 898 1091 904 q 1115 872 1097 872 q 1211 880 1144 872 q 1307 886 1272 888 m 1399 495 l 1396 495 q 1358 479 1383 490 q 1356 473 1356 477 l 1358 473 q 1371 467 1362 467 q 1399 495 1380 475 m 1386 432 q 1383 436 1386 436 l 1383 436 q 1381 435 1382 436 q 1379 439 1381 439 l 1378 439 q 1377 439 1377 439 l 1377 439 q 1374 442 1376 442 l 1373 442 q 1371 439 1371 442 l 1371 439 q 1373 436 1371 436 l 1374 436 q 1375 436 1375 436 l 1375 435 l 1375 434 q 1378 431 1376 431 l 1379 431 q 1380 431 1379 431 l 1380 430 q 1383 423 1380 423 q 1386 430 1386 425 l 1386 432 m 1340 449 q 1313 458 1332 458 q 1291 454 1300 458 l 1299 442 l 1297 442 q 1279 446 1291 442 q 1262 449 1267 449 l 1240 449 q 1290 439 1255 439 l 1319 439 q 1340 449 1339 439 m 992 898 l 960 898 q 850 873 909 898 q 759 810 788 848 q 992 898 905 877 m 1278 423 q 1223 442 1257 427 l 1222 441 q 1262 423 1222 423 l 1278 423 m 886 758 q 884 764 886 764 l 882 764 q 877 758 877 764 l 877 757 q 882 752 877 752 l 884 752 q 886 756 886 752 l 886 758 m 1433 827 q 1249 867 1372 867 q 1123 854 1174 867 l 1123 846 q 1136 818 1134 828 q 1145 755 1145 796 q 1120 578 1145 654 q 942 385 1082 468 q 883 355 922 374 q 822 336 852 346 q 779 300 781 322 q 917 198 845 279 l 922 198 q 1063 402 977 267 q 1201 608 1156 549 q 1433 827 1233 651 m 1120 613 q 1035 479 1084 543 q 1064 509 1041 484 q 1120 613 1120 574 m 1351 257 q 1348 259 1350 258 l 1347 258 q 1346 258 1347 258 l 1346 257 q 1348 256 1347 256 l 1348 256 q 1351 257 1350 256 m 1081 863 l 1081 864 q 1057 884 1081 874 q 1024 891 1037 891 q 866 850 970 891 q 721 767 769 811 q 640 663 673 723 q 610 613 632 646 q 608 620 608 616 q 640 688 608 635 q 572 568 572 620 l 581 568 q 1081 863 824 789 m 751 801 l 751 802 q 749 806 751 806 q 746 799 747 803 l 746 797 q 751 801 751 797 m 1115 779 q 1094 844 1115 844 q 1053 832 1083 844 q 746 597 850 758 q 711 521 711 543 q 719 507 711 513 q 754 467 727 500 q 792 355 774 441 l 799 355 q 985 482 878 355 q 1102 688 1085 602 q 1009 724 1080 724 q 777 602 898 724 l 772 602 q 879 692 814 654 q 1011 733 950 733 q 1102 705 1048 733 l 1107 705 q 1115 779 1115 733 m 871 752 q 838 733 865 747 q 759 679 835 731 q 635 580 747 671 l 618 566 l 618 557 q 654 544 626 555 q 687 534 680 533 q 811 693 735 614 q 871 752 834 713 m 1227 85 l 1227 90 l 1148 45 l 1156 45 q 1193 59 1181 54 q 1227 85 1205 68 m 1175 99 q 1169 107 1176 107 q 1120 100 1151 107 q 1081 83 1081 93 q 1110 56 1081 56 q 1146 71 1124 56 q 1175 99 1167 85 m 777 353 q 725 473 777 421 q 700 487 711 487 q 687 435 687 454 q 777 353 687 353 m 1115 32 q 1109 33 1113 33 l 1107 33 q 1102 32 1103 33 q 1109 28 1105 28 q 1115 32 1112 28 m 1089 45 l 1064 75 q 1053 59 1053 71 q 1072 40 1053 40 q 1089 45 1084 40 m 715 338 q 671 437 671 375 q 673 468 671 448 q 675 498 675 488 q 640 522 675 512 q 591 530 611 530 q 585 529 589 530 q 559 498 574 519 l 559 484 q 599 380 559 422 q 700 338 639 338 l 715 338 m 904 180 q 851 248 892 212 q 777 286 808 286 q 712 193 754 231 q 649 153 688 178 q 608 83 608 125 q 629 49 608 56 q 673 45 640 45 q 904 180 799 45 m 772 323 q 623 355 670 326 q 548 482 565 390 q 355 187 417 351 l 355 180 q 387 155 355 167 q 433 145 414 145 q 451 153 439 145 q 473 161 462 161 q 494 150 483 161 q 498 157 496 152 q 522 193 506 169 q 766 305 601 309 q 772 323 772 315 m 759 286 q 733 291 759 291 q 598 252 659 291 q 507 145 537 213 q 516 145 510 146 q 526 144 523 144 q 557 162 538 144 q 589 180 576 180 q 607 175 595 180 q 625 170 618 170 q 705 215 650 170 q 759 286 759 260 m 626 24 q 548 81 568 44 q 543 101 547 83 q 535 115 541 115 l 496 115 l 496 56 q 490 59 494 56 q 486 96 486 69 l 447 96 q 510 39 447 60 q 604 24 557 24 l 626 24 m 553 540 l 516 540 q 243 458 361 540 q 112 217 112 366 q 254 0 112 83 q 281 -11 273 -11 q 288 -9 284 -11 q 326 171 297 80 q 279 264 279 212 q 283 269 281 267 q 334 189 309 189 q 364 257 344 212 q 477 442 412 361 q 553 540 524 500 m 728 32 q 608 16 666 16 q 439 85 486 16 q 427 125 438 101 q 350 157 396 137 l 348 157 q 317 83 333 157 q 303 -11 303 20 q 305 -21 303 -18 q 450 -40 351 -40 q 725 24 608 -40 q 728 32 728 28 m 930 53 l 930 99 q 922 130 930 113 q 454 -56 684 -56 q 376 -47 427 -56 q 298 -39 325 -39 q 359 -271 298 -184 q 568 -370 429 -370 q 831 -234 724 -370 q 930 53 930 -106 m 1381 434 q 1380 431 1381 432 l 1380 432 q 1381 435 1380 435 l 1381 435 l 1381 434 m 1377 439 q 1375 436 1377 437 q 1377 439 1376 438 m 665 453 q 662 449 664 449 l 661 449 q 658 453 659 449 l 658 454 q 661 458 659 458 l 662 458 q 665 454 664 458 l 665 453 z "},"C":{"ha":844,"x_min":90,"x_max":1179,"o":"m 1179 764 q 1089 621 1179 681 q 922 567 1008 567 q 889 569 911 567 q 856 572 867 572 q 744 516 781 533 q 631 471 671 481 q 580 457 614 466 q 417 427 525 447 q 332 190 332 324 q 444 51 332 51 q 448 52 445 51 q 452 53 450 53 q 474 233 454 143 q 490 296 480 254 q 490 298 490 296 q 688 418 564 418 q 805 311 805 418 q 770 201 805 261 q 477 18 690 64 q 493 -65 482 -10 q 494 -67 493 -66 q 490 -78 494 -75 q 486 -73 487 -79 q 460 18 476 -43 q 409 22 441 22 q 384 20 401 22 q 359 18 368 18 q 262 56 298 18 q 225 155 225 94 q 256 286 225 182 q 302 418 286 385 q 149 488 208 422 q 90 650 90 555 q 138 792 90 733 q 269 873 179 842 q 307 882 287 880 q 395 904 309 882 q 484 917 444 917 q 634 853 587 917 q 644 827 644 840 l 639 827 q 484 904 606 904 q 404 891 435 904 q 538 846 516 857 q 655 764 585 825 q 1015 871 877 871 q 1179 764 1179 871 m 1158 773 q 1024 861 1158 861 q 979 856 998 861 q 1035 805 1033 832 q 1035 778 1035 805 q 937 629 1035 704 q 885 588 918 616 l 909 588 q 1067 642 983 588 q 1158 773 1158 703 m 873 677 q 864 687 873 687 q 837 671 848 687 q 826 639 826 656 l 826 629 q 831 626 826 626 q 858 645 842 626 q 873 677 873 665 m 1022 779 l 1022 792 q 986 727 1010 760 q 1009 800 1009 764 q 954 836 1009 836 q 690 720 808 836 l 690 719 q 714 669 690 707 q 739 616 739 631 q 732 613 737 615 q 674 705 708 658 l 673 703 q 587 626 663 701 q 511 546 515 553 l 507 536 l 517 536 q 813 613 669 536 q 877 695 813 695 q 882 677 882 690 q 833 610 882 652 l 844 601 q 895 635 863 610 l 916 654 q 859 601 897 636 l 856 597 l 856 593 q 962 670 909 617 q 1022 779 1022 732 m 838 585 l 833 585 q 805 567 823 579 q 800 562 802 566 q 823 573 804 566 q 838 585 839 578 m 795 557 l 795 558 q 793 562 795 562 l 792 562 q 789 558 789 562 l 789 557 q 791 554 789 554 l 793 554 q 795 557 795 555 m 786 553 l 786 555 q 783 559 785 559 l 782 559 q 779 555 780 559 l 779 553 q 782 549 780 549 l 783 549 q 786 553 785 549 m 778 549 l 778 551 q 775 554 777 554 l 774 554 q 772 551 772 554 l 772 549 q 774 547 772 547 l 775 547 q 778 549 778 547 m 593 677 q 591 678 592 678 q 582 670 582 678 q 583 669 582 669 q 593 677 593 669 m 562 652 q 560 653 562 653 l 559 653 q 557 650 557 652 l 557 648 l 559 648 l 560 648 l 562 648 l 562 648 l 562 652 m 549 639 q 547 640 549 640 l 546 640 q 545 637 545 639 l 545 635 l 547 635 l 547 635 l 549 635 l 549 635 l 549 639 m 831 593 l 821 601 l 819 601 q 655 535 734 559 q 486 511 595 517 q 452 473 460 491 l 467 473 q 831 593 656 473 m 634 751 l 634 752 q 613 779 634 761 q 435 861 512 869 l 442 866 q 370 871 418 871 q 307 831 340 871 l 309 831 q 365 844 328 831 q 422 858 401 858 l 427 856 q 310 817 334 832 q 259 712 259 785 q 296 611 259 654 q 391 554 334 567 q 634 751 511 677 m 784 323 q 690 410 784 410 q 635 401 667 410 q 588 375 597 390 q 679 397 633 397 l 711 397 q 729 390 715 397 q 779 291 772 366 q 784 323 784 305 m 328 869 l 324 869 q 176 808 241 869 q 111 665 111 747 l 111 639 l 115 631 q 212 777 140 719 q 284 824 238 791 q 328 869 298 839 m 375 534 l 370 536 q 246 709 246 620 q 253 749 246 723 q 260 789 260 775 q 174 710 220 775 q 127 602 127 645 q 136 580 127 591 q 219 508 167 537 q 324 477 274 477 l 336 477 q 355 503 337 477 q 375 534 373 528 m 762 298 q 690 375 762 375 q 618 355 650 375 q 707 278 707 347 q 631 141 707 210 q 494 53 570 85 l 498 53 q 670 134 580 53 q 762 298 762 218 m 698 276 q 631 342 698 342 q 595 337 604 342 q 538 267 577 327 q 498 187 498 206 q 549 158 498 158 q 581 167 561 158 q 613 176 602 176 q 548 145 593 145 q 490 168 524 145 q 476 71 476 136 q 477 56 476 62 q 619 140 551 79 q 698 276 698 210 m 308 431 q 303 433 306 433 l 294 433 q 286 431 289 433 q 295 428 289 428 l 297 428 q 307 431 304 428 q 308 431 308 431 m 281 436 q 149 503 206 449 l 149 498 q 275 435 212 435 q 281 436 278 435 m 149 506 l 149 507 q 146 511 148 511 l 145 511 q 142 507 142 511 l 142 506 q 145 503 142 503 l 146 503 q 149 506 149 504 m 484 35 l 484 36 q 481 40 484 40 l 480 40 q 477 36 478 40 l 477 35 q 480 31 478 31 l 481 31 q 484 35 484 31 m 370 31 q 269 107 290 59 q 248 150 262 121 q 247 139 248 146 q 246 130 246 132 q 276 57 246 84 q 351 31 305 31 l 370 31 m 986 727 q 916 654 965 695 q 986 727 963 697 z "},"D":{"ha":1021,"x_min":16,"x_max":1600,"o":"m 876 700 l 872 700 q 863 707 870 700 l 867 707 l 876 700 m 859 712 l 854 712 l 850 715 l 851 715 l 853 717 q 859 712 854 716 m 1600 642 q 1526 488 1600 547 q 1359 431 1456 431 q 1272 455 1309 431 q 1228 530 1228 483 q 1243 585 1228 551 q 1276 623 1259 623 l 1284 623 q 1241 535 1241 572 q 1356 457 1241 457 q 1514 505 1446 457 q 1591 644 1591 557 q 1528 757 1591 718 q 1396 789 1475 789 q 1080 682 1244 789 q 1072 665 1072 677 q 1078 636 1072 669 q 1084 567 1084 599 q 1034 342 1084 511 q 1016 296 1026 317 q 769 67 937 129 q 427 22 647 22 q 370 25 408 22 q 313 27 332 27 q 214 18 283 27 q 80 9 154 9 q 39 16 50 9 q 28 53 27 25 q 16 73 24 60 q 98 109 16 109 q 251 81 182 109 l 238 81 q 194 90 243 81 q 100 99 139 99 l 54 99 q 35 91 46 99 q 24 73 24 82 q 37 60 24 60 q 88 69 53 60 q 174 78 123 78 q 297 56 186 78 q 431 119 364 87 q 548 210 507 159 l 804 524 q 893 618 824 549 q 966 690 966 692 l 966 693 l 965 695 q 827 793 891 768 q 804 802 807 802 q 739 802 804 802 q 709 797 725 802 l 709 795 q 768 755 709 772 q 846 720 836 736 l 842 720 q 732 754 760 754 q 734 724 732 744 q 736 695 736 705 q 709 567 736 621 l 709 564 q 712 545 709 557 q 714 526 714 532 q 637 401 714 459 q 602 380 632 397 q 707 546 707 444 l 701 546 q 535 347 654 458 q 595 375 568 359 l 505 321 q 403 264 429 276 q 289 239 347 239 q 132 290 191 239 q 67 439 67 343 q 142 646 67 552 q 318 784 208 729 q 553 858 466 858 q 732 840 615 858 q 795 823 752 833 q 891 806 815 820 q 1008 754 965 793 q 1034 738 1025 738 q 1093 772 1053 749 q 1187 818 1124 787 l 1196 818 q 1192 805 1197 807 q 1112 762 1158 789 q 1049 712 1049 725 q 1059 695 1049 704 q 1393 797 1246 797 l 1455 797 q 1498 785 1466 797 q 1600 642 1600 747 m 305 66 l 305 66 q 303 62 304 63 q 302 65 302 64 l 302 66 q 303 67 302 67 l 304 67 q 305 66 305 67 m 293 71 q 288 66 292 68 q 283 71 286 67 q 287 72 284 72 l 289 72 q 293 71 291 72 m 281 75 q 275 68 279 71 q 271 75 271 74 q 274 77 271 77 l 277 77 q 281 75 279 77 m 267 78 q 260 75 264 75 q 254 78 257 75 q 259 80 255 80 l 261 80 q 267 78 266 80 m 1042 682 l 1042 684 q 1029 700 1042 700 l 1000 669 q 1008 661 1000 661 l 1013 661 l 1042 682 m 1013 725 q 951 774 1013 749 q 866 797 897 797 l 854 797 q 977 700 923 757 l 981 700 q 1000 709 987 700 q 1013 725 1013 719 m 1059 645 q 1054 661 1059 656 q 1021 621 1021 642 q 1059 645 1059 621 m 850 802 l 850 803 q 848 804 849 803 l 848 804 q 846 802 846 803 l 846 802 q 848 799 847 800 q 850 802 850 800 m 994 656 l 987 656 q 966 637 983 656 q 949 613 949 617 q 994 656 994 628 m 1072 574 q 1064 635 1072 618 l 1029 613 q 1054 460 1046 564 q 1072 574 1072 524 m 939 602 l 939 606 q 939 607 939 607 q 935 602 937 607 l 936 601 l 939 602 m 727 818 q 690 823 708 823 l 680 823 q 701 813 687 813 q 727 818 712 813 m 698 774 q 682 789 698 789 q 650 779 669 789 q 675 774 672 774 l 698 774 m 1029 495 q 1015 601 1029 579 l 1013 601 q 991 593 1004 601 q 1009 618 1009 606 l 1003 618 l 970 585 l 971 585 q 985 589 977 585 q 970 567 970 578 q 974 532 970 555 q 977 496 977 509 q 930 312 977 405 q 811 161 884 222 q 773 125 792 145 q 955 274 888 182 q 1029 495 1029 374 m 719 690 q 701 764 719 752 q 667 766 679 766 l 616 766 q 437 648 486 707 q 458 649 448 649 q 517 639 494 649 q 548 626 522 639 q 629 624 615 626 q 696 585 664 617 q 719 690 719 596 m 667 810 q 615 827 656 827 q 220 661 351 827 q 435 755 314 724 q 663 805 549 780 l 667 810 m 693 575 q 586 618 663 618 l 561 618 q 604 503 604 562 q 578 406 604 460 q 693 575 693 521 m 970 514 q 957 564 970 564 q 944 559 949 564 q 720 300 841 474 q 530 120 627 165 q 369 48 476 97 q 450 39 368 39 q 887 250 739 39 q 970 514 970 368 m 583 516 q 570 574 583 544 q 530 610 554 610 q 366 529 483 610 q 522 618 410 583 q 458 635 511 635 q 420 631 437 635 q 310 486 337 553 l 323 495 q 275 368 275 450 q 361 298 275 298 q 514 365 446 298 q 583 516 583 431 m 768 119 l 768 121 q 766 125 768 125 l 765 125 q 762 121 762 125 l 762 119 q 764 117 762 117 l 766 117 q 768 119 768 117 m 768 102 l 768 103 q 766 107 768 107 l 765 107 q 762 103 762 107 l 762 102 q 764 99 762 99 l 766 99 q 768 102 768 100 m 760 98 l 760 100 q 758 104 760 104 l 757 104 q 754 100 754 104 l 754 98 q 757 94 754 94 l 758 94 q 760 98 760 94 m 751 94 l 751 95 q 748 99 750 99 l 747 99 q 745 95 745 99 l 745 94 q 747 91 745 91 l 748 91 q 751 94 751 92 m 743 89 l 743 90 q 740 94 742 94 l 739 94 q 736 90 736 94 l 736 89 q 739 86 737 86 l 740 86 q 743 89 743 87 m 734 85 l 734 87 q 732 91 734 91 l 731 91 q 728 87 728 91 l 728 85 q 731 81 729 81 l 732 81 q 734 85 734 81 m 522 759 l 517 759 q 428 733 503 759 q 231 614 324 697 q 121 422 121 515 q 130 385 121 408 q 139 350 139 362 q 109 397 123 362 q 96 452 96 431 q 98 457 96 454 q 98 460 97 460 q 267 733 130 592 q 233 712 252 728 q 186 675 217 701 q 75 449 75 574 q 127 311 75 362 q 265 260 178 260 q 366 278 323 260 q 315 276 355 276 q 161 329 201 276 l 163 329 q 318 286 239 286 q 224 404 224 313 q 522 759 224 604 m 725 81 l 725 83 q 722 86 724 86 l 722 86 q 719 83 719 86 l 719 81 q 722 78 720 79 l 722 78 q 725 81 725 79 m 714 78 q 711 80 713 80 l 709 78 l 712 75 q 714 78 714 77 m 705 73 l 705 74 q 701 78 704 78 l 701 78 q 698 74 699 78 l 698 73 q 701 68 699 68 l 701 68 q 705 73 704 68 m 692 68 l 692 70 q 689 73 691 73 l 688 73 q 685 70 686 73 l 685 68 q 688 66 686 66 l 689 66 q 692 68 692 66 m 433 99 l 336 60 l 343 60 q 433 99 409 60 m 85 43 q 78 58 85 52 l 71 58 q 50 53 60 58 q 76 43 53 43 l 85 43 m 93 31 q 35 45 73 35 q 46 31 35 31 l 93 31 m 356 524 q 343 511 356 517 q 342 511 342 511 q 356 524 342 517 m 159 332 q 157 329 159 329 l 156 329 q 153 332 153 330 l 153 333 l 153 334 q 152 334 153 334 l 151 334 q 149 336 149 334 l 149 337 l 148 337 q 145 341 146 337 l 145 342 q 144 342 144 342 l 143 342 q 140 345 140 342 l 140 346 q 143 350 141 350 l 144 350 q 147 346 146 350 q 148 347 147 347 l 149 347 q 152 342 151 347 l 152 342 q 155 338 155 342 l 155 336 q 156 337 155 337 l 157 337 q 159 333 159 337 l 159 332 z "},"E":{"ha":650,"x_min":50,"x_max":913,"o":"m 913 693 q 863 601 913 634 q 757 572 819 572 q 655 597 682 572 q 625 633 645 609 q 450 546 527 576 q 505 538 495 542 q 548 505 531 530 q 557 487 557 490 q 527 462 557 462 q 470 474 507 462 q 414 487 433 487 q 343 457 396 487 q 155 198 155 348 q 256 62 155 62 q 269 237 256 189 q 374 372 292 325 q 469 397 418 397 q 612 279 612 397 q 499 89 612 165 q 279 14 405 26 l 279 9 q 287 -26 279 -3 q 294 -62 294 -50 q 284 -53 288 -63 q 262 14 277 -31 q 83 116 126 33 q 70 164 70 142 l 71 192 q 198 436 71 323 q 292 500 237 458 q 271 499 282 499 q 81 591 131 499 q 50 700 50 650 q 147 850 50 795 q 199 1008 145 949 q 351 1067 252 1067 q 491 1025 428 1067 q 562 905 562 979 q 556 896 562 897 q 438 1037 543 996 q 380 1050 404 1050 l 351 1049 q 222 1010 273 1048 q 165 891 166 967 l 164 873 q 170 863 164 866 l 172 863 q 198 869 182 863 q 224 876 215 876 l 270 876 q 471 806 366 876 q 484 806 484 806 l 551 827 q 680 876 609 846 q 746 888 711 888 q 814 833 814 888 q 811 806 814 822 q 913 693 913 773 m 804 814 l 804 858 q 751 883 804 883 q 658 853 682 883 q 727 819 711 850 q 763 815 739 819 q 799 811 787 811 q 804 814 802 812 m 706 819 l 706 821 q 663 837 706 837 q 591 806 616 837 l 597 806 q 706 819 580 806 m 903 698 q 842 783 903 753 q 732 806 793 806 q 706 732 731 793 l 706 730 l 727 717 l 732 717 l 745 725 q 730 696 737 718 q 709 667 724 677 q 671 652 708 667 q 642 633 643 640 q 752 589 677 589 q 853 613 812 589 q 903 698 903 642 m 719 700 q 671 661 701 688 q 719 700 719 682 m 719 709 q 693 717 711 718 q 635 652 635 679 q 719 709 675 652 m 714 808 l 692 808 q 602 791 660 808 q 535 749 535 770 q 546 730 535 741 q 556 709 556 719 l 553 709 l 522 738 q 488 699 507 726 q 467 653 467 669 q 507 649 479 653 q 548 645 534 645 q 618 680 563 645 q 714 808 714 741 m 625 658 l 625 661 q 604 648 616 658 l 612 648 q 625 658 625 648 m 492 764 q 471 747 484 760 q 492 764 486 754 m 607 633 l 599 633 q 566 628 577 633 q 543 614 558 623 q 489 589 522 602 q 433 564 433 567 q 444 554 433 553 l 447 556 q 528 586 463 553 q 607 633 591 617 m 522 628 q 480 633 503 633 l 454 633 q 441 602 450 627 l 447 602 q 522 628 454 602 m 458 794 q 271 863 407 863 q 172 840 212 863 q 185 812 181 819 q 208 794 195 794 q 310 832 287 833 q 211 781 276 817 l 211 777 q 269 724 269 724 q 337 692 310 692 q 458 794 408 763 m 549 489 q 514 469 538 481 l 524 469 q 549 489 549 469 m 532 498 q 527 505 530 500 l 524 505 q 511 494 521 505 q 496 482 501 484 q 532 498 532 483 m 530 513 q 467 534 514 534 l 449 534 q 437 530 446 534 q 446 517 439 521 q 456 518 450 518 q 487 515 467 518 q 517 513 507 513 l 530 513 m 487 482 l 487 484 q 484 487 486 487 l 484 487 q 481 484 481 486 l 481 482 l 484 479 l 484 479 l 487 482 m 433 517 l 425 526 q 423 521 424 522 q 428 513 423 514 l 433 517 m 546 367 l 546 368 q 539 377 543 375 q 536 373 537 376 l 536 372 q 539 368 537 368 q 540 367 541 368 l 543 364 l 543 364 l 546 367 m 551 360 q 548 364 550 364 l 547 364 q 545 360 545 363 l 545 359 q 547 355 545 355 l 548 355 q 551 359 551 355 l 551 360 m 177 779 l 177 781 l 157 827 q 152 829 155 828 q 139 824 146 829 q 83 725 83 783 l 83 703 q 88 684 83 693 q 121 722 101 699 l 168 768 q 177 779 174 774 m 326 666 l 323 671 q 252 712 264 704 q 190 764 214 737 l 182 760 q 104 653 104 687 q 105 648 104 652 q 278 576 171 576 q 313 581 296 576 l 326 666 m 387 492 l 383 494 l 382 492 l 383 489 l 387 492 m 395 505 q 377 517 389 509 l 375 517 q 297 479 340 517 l 300 479 q 319 485 304 479 q 395 505 333 491 m 374 487 l 370 487 q 338 474 363 487 l 342 474 l 374 487 m 334 469 l 334 471 q 331 474 333 474 l 330 474 q 328 471 328 473 l 328 469 l 330 467 l 331 467 l 334 469 m 326 465 l 326 466 q 323 469 325 469 l 322 469 q 319 466 320 469 l 319 465 l 322 462 l 323 462 l 326 465 m 356 527 l 356 530 q 336 546 353 534 l 334 546 q 299 544 322 546 q 265 541 277 541 q 157 559 199 541 q 104 586 138 572 q 157 526 104 548 q 244 508 199 508 q 340 519 290 508 q 356 527 356 523 m 104 590 q 101 594 103 594 l 100 594 q 98 590 98 593 l 98 589 q 100 585 98 585 l 101 585 q 104 589 104 586 l 104 590 m 545 302 q 519 364 545 364 q 369 303 450 364 q 505 372 412 356 l 496 377 q 487 378 494 377 q 476 378 480 378 q 300 206 375 378 l 300 204 q 348 180 300 180 q 369 184 355 180 q 390 189 382 189 l 390 185 q 364 172 390 178 q 344 168 358 168 q 318 174 334 168 q 292 180 301 180 l 288 172 q 273 75 273 121 l 273 60 q 456 131 372 60 q 545 302 545 205 m 586 291 q 551 358 586 358 q 554 329 551 349 q 557 300 557 310 q 463 121 557 219 q 492 135 477 127 q 437 96 475 121 q 275 40 365 56 l 275 31 q 527 155 414 31 l 507 146 q 586 291 586 204 m 454 114 l 454 115 q 453 118 454 116 q 449 113 450 117 l 450 112 l 454 114 m 259 31 q 205 48 259 48 l 190 48 q 259 31 222 31 m 186 55 l 184 56 l 182 56 l 181 55 q 184 50 182 53 l 186 55 m 789 771 l 786 768 l 785 768 l 783 771 l 783 772 q 785 777 783 776 l 786 777 q 789 772 789 775 l 789 771 m 770 751 q 752 734 762 734 l 750 736 q 770 751 751 739 m 345 842 q 337 838 342 839 q 330 842 330 840 q 335 843 332 842 l 339 843 q 345 842 340 843 m 323 837 l 319 833 l 318 837 l 319 838 l 323 837 m 543 372 l 543 372 q 541 368 543 368 l 540 368 l 540 368 q 543 372 541 372 l 543 372 m 364 298 l 361 296 l 361 296 l 358 298 l 358 300 q 361 303 359 303 l 361 303 q 364 300 363 302 l 364 298 z "},"F":{"ha":1219,"x_min":73,"x_max":1782,"o":"m 1782 709 l 1780 711 l 1777 711 q 1768 724 1767 720 q 1589 800 1701 800 q 1577 792 1579 800 q 1466 759 1520 763 q 1428 754 1453 758 q 1272 623 1373 740 q 1121 422 1207 549 q 1156 417 1139 417 q 1254 447 1217 417 q 1295 477 1290 477 q 1306 475 1299 477 q 1318 473 1314 473 q 1339 481 1321 473 l 1343 477 l 1343 473 q 1219 273 1246 351 l 1126 230 l 1116 230 q 1198 353 1117 250 l 1193 358 q 1223 404 1206 376 q 1228 414 1223 410 q 1156 399 1224 412 q 1096 378 1128 394 q 985 222 1032 277 q 1006 98 1006 160 q 874 -205 1006 -79 q 564 -331 741 -331 q 306 -230 394 -331 q 227 39 220 -132 q 195 60 224 42 q 73 264 73 136 q 241 513 73 421 q 551 583 384 591 q 712 685 610 616 q 762 724 728 699 q 1013 808 846 785 q 1241 838 1088 818 q 1315 845 1289 845 q 1393 844 1341 845 q 1470 844 1444 844 q 1539 840 1493 844 q 1607 836 1584 836 q 1611 831 1612 836 q 1782 709 1782 791 m 890 762 l 890 763 q 887 766 889 766 l 886 766 q 883 763 884 766 l 883 762 l 886 759 l 887 759 l 890 762 m 873 758 l 873 760 l 873 760 l 871 760 l 871 760 l 871 759 l 872 755 l 873 758 m 1390 754 l 1381 759 q 1288 768 1367 759 q 1097 781 1165 781 q 751 682 966 781 q 695 566 695 656 q 701 551 695 557 q 741 521 703 548 q 781 493 779 494 q 789 493 783 493 l 804 494 q 962 535 878 494 q 1062 647 1062 583 q 1000 696 1062 696 q 903 680 948 696 l 890 676 q 885 673 888 674 l 883 673 q 992 703 941 703 q 1070 652 1070 703 q 1065 621 1070 635 q 1126 698 1093 644 l 1128 698 q 1134 688 1134 698 q 1107 637 1134 677 q 982 503 1044 545 q 806 452 907 452 l 806 439 q 808 413 806 431 q 810 388 810 396 q 1031 435 918 425 q 1078 494 1042 445 q 1193 624 1122 553 q 1326 728 1278 709 q 1345 734 1332 730 q 1390 754 1360 739 m 862 756 l 861 757 l 859 757 l 857 756 q 859 751 858 754 l 862 756 m 848 749 q 836 746 845 749 q 848 749 842 746 m 831 742 q 828 746 830 745 l 827 746 q 824 742 825 745 l 824 741 q 827 736 825 736 l 828 736 q 831 741 830 737 l 831 742 m 819 736 q 802 728 806 736 l 819 736 m 1019 422 l 996 422 q 889 407 956 422 q 805 366 805 389 q 817 354 805 357 q 840 350 825 353 q 891 328 848 348 q 984 375 916 347 q 1006 396 1002 382 l 995 396 q 963 386 983 396 q 931 375 943 376 q 968 404 931 390 q 1019 422 994 413 m 976 353 l 976 358 q 909 319 941 348 l 909 315 q 930 298 920 304 q 947 315 935 304 q 976 353 957 328 m 687 647 q 630 616 674 642 q 580 583 587 591 q 666 562 609 578 q 687 647 671 612 m 799 406 q 766 464 799 450 q 705 503 730 479 q 674 532 695 513 q 553 554 643 554 q 503 519 533 554 q 738 366 713 500 q 764 364 747 366 q 791 363 782 363 q 794 370 794 365 q 789 375 794 376 q 799 406 799 382 m 730 289 l 728 289 l 728 286 l 730 289 m 715 350 q 583 307 650 350 q 490 204 517 264 l 496 204 q 635 235 546 204 q 715 350 715 262 m 917 281 l 891 307 q 823 243 859 283 q 818 251 818 244 q 873 315 818 261 l 873 319 q 797 345 834 345 q 655 206 752 275 q 471 149 584 156 l 471 111 l 463 115 l 463 153 q 390 171 439 162 q 549 81 390 81 q 758 138 654 81 q 917 281 863 194 m 712 363 l 712 369 q 671 437 712 404 q 532 477 621 477 q 451 465 476 477 q 362 369 421 450 q 303 260 303 289 q 391 212 343 212 q 411 217 398 212 q 430 222 423 222 q 448 213 437 222 q 468 204 458 204 q 501 238 477 204 q 534 281 530 279 q 712 363 603 346 m 720 97 l 720 98 q 718 102 720 102 l 717 102 q 714 98 714 101 l 714 97 l 717 94 l 718 94 l 720 97 m 640 212 q 482 184 561 187 q 476 170 475 178 q 640 212 612 170 m 467 179 q 465 184 466 180 q 462 174 462 168 l 462 171 q 467 179 467 172 m 414 455 q 289 374 344 439 q 235 238 235 309 q 248 174 235 209 q 252 184 252 178 q 283 269 283 262 q 281 292 283 276 q 279 315 279 307 l 283 315 q 291 286 284 299 l 296 289 q 414 455 347 387 m 707 94 l 706 94 q 628 83 680 94 q 549 72 576 72 q 397 127 426 72 q 375 179 391 145 q 296 251 367 193 q 274 209 287 245 q 260 160 260 173 q 283 123 260 147 q 524 41 358 41 q 707 94 621 41 m 516 554 l 489 554 q 227 480 348 554 q 86 262 86 394 q 222 59 86 119 l 227 59 q 239 145 233 87 q 210 260 210 205 q 269 408 210 338 q 401 498 324 473 q 463 518 432 508 q 516 554 495 531 m 385 197 l 382 198 l 380 197 l 382 193 l 385 197 m 375 199 l 375 201 q 372 204 374 204 l 372 204 q 369 201 370 203 l 369 199 l 372 197 l 372 197 l 375 199 m 981 107 l 981 155 q 966 201 981 186 l 965 199 l 963 199 q 423 8 757 8 q 248 33 369 8 q 242 35 245 35 l 238 35 q 316 -220 238 -130 q 561 -318 399 -318 q 857 -192 733 -318 q 981 107 981 -66 m 477 26 q 252 127 338 41 l 248 115 q 239 56 244 96 q 293 35 245 46 q 355 26 336 26 l 477 26 m 874 667 l 873 665 l 871 665 l 869 666 l 873 670 l 874 667 l 874 667 m 864 659 l 861 656 l 861 656 l 858 659 l 858 661 q 861 665 859 664 l 861 665 q 864 661 863 663 l 864 659 m 856 654 l 853 652 l 852 652 l 850 654 l 850 656 q 852 660 850 659 l 853 660 q 856 656 856 659 l 856 654 m 844 646 l 841 644 l 840 644 l 837 646 l 837 648 q 840 652 838 651 l 840 652 q 843 648 843 650 l 844 646 m 826 633 l 823 631 l 822 631 l 819 633 l 819 635 q 822 639 821 639 l 823 639 q 826 635 825 637 l 826 633 m 810 621 l 807 618 l 806 618 l 804 621 l 804 623 q 806 626 804 626 l 807 626 q 810 623 809 625 l 810 621 z "},"G":{"ha":1049,"x_min":9,"x_max":1386,"o":"m 1386 759 q 1164 490 1386 625 q 1109 460 1145 479 l 819 355 q 618 311 745 328 q 597 249 597 298 q 674 115 597 115 q 833 166 761 115 q 935 260 857 182 q 1024 311 987 311 q 1035 305 1035 311 q 1034 298 1035 303 q 1034 291 1034 293 l 1040 291 l 1062 303 l 1065 303 l 998 235 q 994 239 998 239 q 909 176 991 239 q 896 150 901 161 l 896 145 l 981 222 l 985 222 l 903 123 q 861 73 889 109 q 817 -22 857 67 q 819 -21 818 -21 q 998 172 871 45 q 1011 184 1002 177 l 846 -12 q 764 -111 820 -41 q 644 -271 764 -111 l 406 -591 q 359 -621 383 -621 q 332 -589 332 -621 q 465 -319 332 -524 q 457 -319 457 -319 q 384 -330 442 -321 q 310 -337 339 -337 q 109 -286 193 -337 q 9 -117 9 -225 q 109 73 9 -4 q 318 145 202 145 q 465 104 402 145 q 538 -24 538 56 q 465 -163 538 -109 q 310 -212 398 -212 q 224 -203 271 -212 q 158 -168 158 -190 q 307 -197 254 -197 q 451 -153 389 -197 q 521 -26 521 -104 q 463 77 521 43 q 343 107 416 107 q 140 43 227 107 q 43 -139 43 -27 q 132 -281 43 -231 q 305 -323 205 -323 q 458 -298 406 -323 q 535 -219 486 -286 q 707 11 591 -140 q 794 112 735 46 l 794 115 q 650 77 720 77 q 482 227 482 77 q 486 266 482 240 q 490 305 490 292 q 283 375 342 305 q 273 388 279 380 l 225 481 q 201 581 201 527 q 300 806 201 717 q 534 891 396 891 q 577 889 548 891 q 620 886 606 886 q 661 900 637 886 q 700 920 693 918 q 913 960 811 960 q 1021 952 972 960 q 1129 895 1075 943 q 1147 878 1145 881 q 1168 856 1162 856 q 1207 858 1181 856 q 1246 861 1233 861 q 1386 759 1386 861 m 1300 733 l 1300 785 q 1283 810 1300 797 q 1255 823 1267 823 l 1177 823 q 1175 786 1177 810 q 1173 751 1173 762 l 1173 746 l 1257 746 q 1279 740 1265 746 q 1300 733 1293 733 m 1305 671 l 1305 674 q 1257 610 1272 634 q 1299 654 1274 623 l 1302 659 q 1305 671 1305 665 m 1162 802 l 1161 819 q 1023 780 1106 819 q 899 703 949 745 q 922 661 899 684 q 1152 741 1049 719 q 1162 802 1162 751 m 1147 853 l 1147 856 q 1139 869 1142 865 q 916 947 1067 947 q 653 878 738 947 q 861 746 773 832 l 871 746 q 1147 853 997 817 m 1152 728 q 1097 719 1123 728 q 952 648 1024 692 q 937 639 946 646 l 937 631 q 976 562 949 606 q 1027 588 983 563 q 1152 728 1128 646 m 1297 719 q 1283 732 1297 726 q 1262 738 1270 738 l 1185 738 q 1149 694 1172 738 q 1116 635 1120 640 q 869 527 1019 527 q 853 528 864 527 q 836 529 842 529 l 827 534 l 832 536 q 955 554 910 528 q 917 623 939 587 l 912 623 q 873 597 899 614 q 755 505 867 593 q 648 414 719 476 q 777 393 648 393 q 1057 486 890 393 q 1201 584 1135 528 q 1297 719 1297 664 m 899 648 q 891 669 899 656 q 877 682 884 682 l 873 682 q 730 546 803 635 q 725 536 725 541 q 899 648 821 607 m 840 728 l 840 733 q 631 858 725 858 q 557 805 607 858 q 508 727 508 752 l 508 725 q 635 751 601 751 l 644 751 q 564 730 604 741 q 494 697 506 713 q 482 612 482 680 q 554 452 482 514 q 631 545 560 452 q 730 643 667 591 q 840 728 785 686 m 1025 300 q 997 291 1008 300 q 925 214 963 264 q 986 249 947 218 q 1025 300 1025 281 m 950 222 l 917 201 l 912 192 q 950 222 928 192 m 593 866 q 527 871 566 871 q 323 800 411 871 q 230 612 230 725 q 252 516 230 554 q 275 553 263 528 q 296 593 289 583 q 462 707 346 664 q 589 861 503 787 q 593 866 591 863 m 777 380 q 687 390 746 380 q 648 396 648 396 l 640 396 q 631 366 635 385 q 777 380 711 366 m 546 431 l 546 439 q 529 452 540 444 q 467 526 483 498 q 447 618 447 563 q 450 649 447 629 q 452 680 452 670 l 452 687 q 338 608 393 661 q 273 492 273 545 l 273 482 q 502 370 377 370 l 509 370 q 546 431 511 370 m 452 313 q 448 315 452 315 l 447 315 q 444 313 444 315 q 448 309 444 309 l 450 309 q 452 311 452 308 l 452 313 m 754 4 l 754 5 q 751 9 753 9 l 750 9 q 747 5 748 9 l 747 4 q 750 0 748 0 l 751 0 q 754 4 753 0 m 439 316 q 273 409 361 332 q 332 342 273 374 q 425 315 385 315 q 431 316 427 315 q 439 316 436 317 m 626 89 l 626 90 q 623 94 625 94 l 623 94 q 620 90 620 94 l 620 89 q 623 86 621 86 l 623 86 q 626 89 626 87 m 615 90 q 612 93 614 92 l 612 93 q 610 90 610 92 l 610 89 q 611 87 610 87 l 612 87 q 615 90 613 87 m 593 102 q 534 166 566 121 q 548 123 534 143 q 585 102 562 102 l 593 102 m 743 -8 q 662 -109 734 -13 q 589 -208 589 -204 q 738 -16 658 -147 q 743 -8 739 -14 m 669 -204 q 583 -265 634 -235 q 538 -289 566 -273 q 452 -414 516 -309 q 375 -553 397 -508 q 363 -595 363 -580 q 369 -608 363 -608 l 372 -608 q 388 -595 378 -605 l 669 -204 m 733 759 q 720 755 730 755 l 713 755 q 700 759 703 755 q 703 760 701 760 l 728 760 q 733 759 732 760 m 675 755 q 666 752 675 753 l 664 752 q 656 754 660 752 l 656 755 q 664 757 656 757 l 667 757 q 675 755 671 757 z "},"H":{"ha":1573,"x_min":73,"x_max":2243,"o":"m 1522 524 l 1517 519 l 1517 524 l 1522 529 l 1522 524 m 1501 500 l 1500 498 q 1492 490 1500 490 l 1492 494 q 1500 503 1495 497 l 1500 502 l 1501 500 m 2243 819 q 2176 709 2243 752 q 2081 668 2155 696 q 2049 656 2070 665 q 2020 637 2039 650 q 1653 486 1875 549 q 1645 477 1650 483 q 1617 435 1636 463 q 1472 247 1543 325 q 1433 204 1459 233 q 1411 153 1408 175 q 1458 127 1434 152 l 1460 127 q 1535 179 1467 127 l 1538 179 l 1538 174 q 1428 90 1477 116 l 1434 90 q 1472 101 1448 90 q 1510 112 1496 112 l 1512 111 q 1393 78 1452 78 l 1393 59 q 1407 51 1393 51 q 1488 79 1446 51 q 1556 132 1491 81 q 1591 161 1568 142 q 1632 197 1603 174 l 1632 184 q 1553 111 1619 161 q 1460 46 1499 70 q 1399 28 1430 28 q 1349 62 1362 28 q 1334 127 1341 95 l 1331 127 q 1262 98 1310 127 l 1255 98 q 1244 102 1246 98 q 1278 125 1253 116 q 1318 140 1298 133 q 1364 216 1329 146 q 1407 302 1386 259 q 1436 353 1417 319 l 1436 358 q 1346 388 1375 388 q 950 81 1183 157 l 950 78 q 1013 30 950 51 q 1102 13 1065 13 q 1140 19 1115 13 q 1177 26 1164 26 q 1101 3 1161 3 q 976 33 1025 3 q 950 55 976 33 q 922 68 934 68 q 696 20 862 42 q 458 0 548 0 q 208 43 307 0 q 73 235 73 103 q 243 465 73 381 q 543 532 378 532 q 648 524 604 532 q 719 511 720 511 q 836 516 764 511 l 836 517 q 831 538 836 525 q 827 559 827 552 q 832 567 827 564 q 945 498 851 498 q 1305 606 1091 498 q 1331 621 1314 611 q 1423 671 1359 637 q 1458 690 1436 676 l 1458 695 q 1423 715 1431 703 q 1415 754 1415 726 q 1418 763 1415 757 q 1420 772 1420 768 q 1316 814 1420 814 q 1155 777 1232 814 q 1061 656 1061 731 l 1061 644 q 1095 593 1061 612 q 1158 578 1122 578 q 1260 606 1208 578 q 1321 634 1312 634 q 1158 570 1246 570 q 1085 593 1118 570 q 1049 656 1049 618 q 1145 779 1049 728 q 1305 823 1226 823 q 1453 754 1453 823 q 1451 736 1453 748 q 1449 719 1449 725 q 1466 703 1449 703 q 1524 726 1495 703 q 1573 766 1549 746 q 1637 800 1595 777 q 1701 848 1659 817 l 1709 848 l 1691 831 q 1714 814 1714 827 q 1656 773 1714 800 q 1585 737 1595 744 q 1530 677 1560 720 l 1556 698 l 1556 695 q 1420 502 1511 630 q 1400 473 1413 492 q 1399 457 1399 469 q 1484 481 1468 457 l 1487 473 l 1517 473 q 1538 481 1530 473 l 1836 772 q 2119 904 1973 904 q 2243 819 2243 904 m 2220 819 q 2123 895 2220 895 q 1858 749 1986 895 q 2065 823 1969 823 q 2127 770 2127 823 q 2075 677 2127 734 q 2173 725 2131 689 q 2220 819 2220 766 m 2118 766 q 2081 814 2118 814 l 2079 813 q 2097 778 2097 800 q 2037 669 2097 730 l 2046 669 q 2059 673 2039 669 q 2118 766 2118 727 m 2028 652 l 2016 652 l 1921 593 q 2028 652 1988 625 m 2059 770 q 2024 797 2059 797 q 1740 613 1923 797 q 1710 574 1738 612 q 1671 516 1691 547 q 1678 516 1679 515 q 1836 574 1775 550 q 1978 652 1952 623 q 1934 665 1962 655 q 1904 688 1907 678 l 1906 690 q 1995 665 1947 665 q 2059 770 2059 724 m 1917 587 l 1917 589 q 1914 593 1917 593 l 1913 593 q 1910 589 1910 593 l 1910 587 q 1913 583 1910 583 l 1914 583 q 1917 587 1917 583 m 1908 583 l 1908 584 q 1906 588 1908 588 l 1905 588 q 1902 584 1903 588 l 1902 583 q 1905 580 1903 580 l 1906 580 q 1908 583 1908 581 m 1899 578 l 1899 579 q 1896 583 1898 583 l 1895 583 q 1893 579 1893 583 l 1893 578 q 1895 575 1893 575 l 1896 575 q 1899 578 1899 576 m 1891 574 l 1891 576 q 1888 580 1891 580 l 1887 580 q 1885 576 1885 580 l 1885 574 q 1887 570 1885 570 l 1888 570 q 1891 574 1891 570 m 1870 565 l 1870 566 q 1868 570 1870 570 l 1867 570 q 1864 566 1864 570 l 1864 565 q 1867 562 1864 562 l 1868 562 q 1870 565 1870 563 m 1522 465 l 1510 465 q 1471 455 1493 465 q 1444 409 1444 443 q 1445 404 1444 407 l 1466 396 q 1522 465 1487 417 m 1449 442 l 1449 452 q 1372 422 1383 452 q 1420 414 1396 414 l 1449 442 m 1451 375 q 1402 388 1451 394 l 1407 396 q 1364 409 1394 404 q 1356 396 1359 406 l 1436 366 l 1440 366 q 1451 375 1451 366 m 1492 690 q 1222 550 1357 620 q 935 468 1061 475 q 972 375 972 423 q 970 353 972 368 q 968 331 968 338 q 1014 351 978 331 q 1062 378 1038 365 q 1143 406 1100 398 q 1202 415 1173 410 q 1254 439 1239 423 q 1346 549 1284 477 q 1395 594 1363 564 q 1492 690 1436 633 m 1415 120 q 1404 132 1415 132 q 1390 90 1390 132 l 1394 85 q 1415 120 1415 100 m 1228 409 l 1215 409 q 1177 401 1204 409 q 943 259 999 349 q 917 140 917 218 q 922 132 917 133 l 923 131 l 925 132 q 943 140 929 133 q 1164 328 1106 234 q 1019 256 1158 328 l 1009 256 q 1087 311 1010 274 q 1185 358 1136 334 q 1228 409 1207 372 m 1061 143 l 1061 144 q 1058 149 1060 149 l 1057 149 q 1054 144 1055 149 l 1054 143 q 1057 140 1055 141 l 1058 140 q 1061 143 1061 141 m 947 364 q 781 473 947 473 q 827 370 827 420 q 774 260 827 307 q 661 204 730 222 q 644 202 655 204 q 593 187 622 198 q 688 170 637 170 q 789 184 747 170 q 813 200 806 189 q 827 222 820 210 q 840 236 830 226 q 819 199 826 219 l 821 199 q 886 239 846 199 q 935 302 920 273 q 864 260 891 283 q 873 269 871 267 q 935 311 894 283 q 947 364 947 321 m 896 115 l 896 121 q 893 146 896 130 q 891 171 891 163 q 893 198 891 180 q 896 225 896 216 q 810 174 873 209 l 810 153 q 851 98 810 98 q 896 115 861 98 m 802 370 q 785 433 802 401 q 736 469 764 469 q 558 385 652 469 q 462 217 462 299 l 462 210 q 490 204 473 204 l 529 204 q 703 239 627 204 q 802 370 802 283 m 840 90 q 797 171 797 123 q 692 153 738 153 q 623 160 659 153 q 576 187 570 170 q 527 190 564 187 q 477 192 496 192 l 458 192 q 528 75 458 119 q 666 39 587 39 q 840 90 757 39 m 679 498 l 674 503 q 541 521 635 521 q 263 455 387 521 q 112 235 112 375 q 488 13 112 13 q 515 12 497 13 q 543 11 534 11 q 618 26 595 11 q 431 197 458 53 q 374 232 403 214 q 342 288 342 254 q 350 311 342 306 l 349 304 q 372 244 348 272 q 428 217 396 217 q 441 251 433 217 q 452 294 444 265 q 679 498 500 432 m 864 260 q 840 236 852 249 q 864 260 850 249 z "},"I":{"ha":1259,"x_min":88,"x_max":1835,"o":"m 1835 926 q 1781 883 1835 901 q 1719 847 1758 876 q 1672 797 1677 816 q 1626 749 1655 781 l 1383 430 q 1463 471 1419 439 q 1537 524 1527 518 l 1537 519 q 1468 457 1537 491 q 1371 414 1434 444 q 1263 289 1327 363 q 625 13 1015 13 q 441 39 522 13 q 410 53 435 40 q 382 64 387 64 q 343 68 370 64 q 305 72 331 69 q 165 117 226 80 q 88 233 88 163 q 155 346 88 303 q 288 388 209 380 q 331 391 302 389 q 385 425 347 393 q 441 468 435 465 q 808 562 591 559 q 837 618 818 604 l 837 615 q 830 594 837 610 q 824 562 824 578 q 975 514 927 547 q 1008 502 993 502 q 1080 519 1023 509 q 1166 549 1133 530 q 1569 821 1228 747 q 1651 838 1597 825 q 1704 867 1670 848 q 1835 926 1758 897 m 1709 856 l 1709 857 q 1706 861 1708 861 l 1706 861 q 1703 857 1703 861 l 1703 856 q 1706 851 1703 851 l 1706 851 q 1709 856 1709 851 m 1698 851 q 1676 837 1676 844 l 1677 836 q 1698 851 1683 837 m 1604 810 q 1596 810 1596 810 q 1379 734 1457 775 q 1220 575 1266 673 l 1230 575 q 1281 601 1248 583 l 1604 810 m 1655 818 l 1649 818 q 1575 777 1638 818 q 1371 639 1507 730 q 1247 567 1348 625 q 1216 550 1236 562 q 1208 505 1208 545 q 1284 427 1208 427 q 1289 430 1287 428 q 1533 707 1423 610 q 1655 818 1575 743 m 901 532 q 838 545 866 545 l 824 545 l 829 536 q 885 532 897 532 l 901 532 m 1272 404 l 1272 409 q 1161 519 1169 433 l 1153 519 q 1084 498 1159 519 q 1016 477 1061 492 q 1046 382 1046 431 q 898 183 1046 271 q 650 85 797 123 l 650 83 q 684 71 650 78 q 727 64 715 64 l 772 64 q 1056 166 925 64 q 1166 273 1098 199 q 1263 391 1234 347 q 1272 404 1272 404 m 1017 395 q 977 468 1017 449 q 912 473 925 471 q 850 490 878 477 l 838 490 q 636 408 732 490 q 535 219 535 323 q 562 140 535 180 q 628 94 591 94 q 743 123 670 94 q 854 174 848 165 l 848 174 q 814 173 837 174 q 781 171 792 171 q 645 210 715 171 l 645 212 q 650 222 645 219 q 786 187 727 187 q 947 242 882 187 q 1017 395 1017 300 m 813 536 l 813 538 q 808 549 813 546 l 764 549 q 580 521 669 549 q 420 430 479 489 l 387 396 l 387 391 q 522 337 486 378 q 543 362 532 343 q 561 391 556 386 q 811 532 669 514 l 813 536 m 865 178 l 865 180 q 863 184 865 184 l 862 184 q 859 180 860 184 l 859 178 q 862 174 860 174 l 863 174 q 865 178 865 174 m 591 90 q 586 94 589 90 q 561 115 578 101 q 509 244 509 157 q 513 282 509 257 q 517 321 517 308 q 463 364 517 345 q 385 380 416 380 q 337 321 355 380 q 323 237 323 276 q 412 77 323 127 l 502 77 q 581 85 509 77 l 591 90 m 817 46 l 739 46 q 671 61 720 46 q 612 77 623 77 q 522 70 582 77 q 433 64 463 64 l 437 59 q 581 26 547 26 l 643 26 q 817 46 727 26 m 364 81 q 288 241 288 149 q 303 313 288 275 q 336 378 319 345 q 326 379 332 378 q 316 380 319 380 q 186 346 244 380 q 117 238 117 305 q 203 118 117 163 q 358 80 276 80 q 364 81 360 81 z "},"J":{"ha":1532,"x_min":50,"x_max":2161,"o":"m 1241 516 l 1240 514 l 1238 514 l 1238 516 q 1225 529 1230 521 l 1225 532 l 1241 516 m 2161 882 l 2158 877 q 1937 762 2045 848 q 1757 588 1870 709 q 1770 519 1765 564 l 1775 519 l 1826 554 l 1835 554 l 1835 551 q 1762 494 1807 536 q 1656 371 1710 411 q 1510 302 1605 332 q 1431 210 1481 269 q 1412 187 1425 202 q 1577 275 1512 212 q 1656 321 1624 321 q 1642 302 1656 313 q 1386 161 1523 204 q 1089 -55 1229 15 q 733 -139 921 -139 q 574 -112 636 -139 q 496 -83 507 -83 q 423 -90 472 -83 q 350 -98 374 -98 q 158 -65 236 -98 q 50 77 50 -20 q 99 189 50 140 q 211 238 148 238 l 224 238 q 78 83 78 206 q 201 -68 78 -33 q 418 -85 260 -85 q 484 -71 457 -85 q 395 98 395 13 q 553 332 395 246 q 846 404 684 404 q 1115 237 1115 404 q 1059 115 1115 174 q 1276 161 1101 125 q 1412 307 1335 218 l 1412 311 q 1331 379 1351 336 q 1318 486 1314 414 q 1246 511 1261 486 l 1247 511 q 1276 505 1257 511 q 1305 498 1295 498 l 1322 498 q 1510 728 1348 611 l 1510 733 q 1453 736 1488 736 q 1298 704 1365 736 q 1213 583 1213 663 q 1216 560 1213 575 q 1220 536 1220 545 q 1202 583 1202 548 q 1291 709 1202 663 q 1451 746 1362 746 q 1489 744 1463 746 q 1527 741 1514 741 q 2000 890 1775 890 q 2079 886 2016 890 q 2158 886 2127 884 l 2161 882 m 2025 861 q 2022 863 2024 863 l 2020 861 l 2024 858 q 2025 861 2025 859 m 2030 848 l 2025 848 q 1834 720 1897 789 q 1993 823 1836 723 q 2030 848 2007 830 m 2013 856 l 1987 856 q 1939 846 1983 856 q 1599 698 1725 800 l 1599 696 q 1604 680 1599 690 q 1609 665 1609 670 q 1604 647 1609 658 q 1599 629 1599 635 q 1628 632 1609 629 q 1658 634 1648 634 q 1683 632 1666 634 q 1708 629 1699 629 q 1763 683 1730 651 q 2013 856 1899 810 m 2033 882 l 2000 882 q 1544 733 1768 882 l 1552 724 q 1542 724 1547 724 q 1527 720 1533 724 q 1353 503 1394 627 l 1356 503 l 1359 502 q 1438 532 1375 502 q 1390 507 1419 517 q 1356 490 1364 499 q 1343 435 1343 475 q 1362 361 1343 393 q 1423 323 1385 323 l 1426 324 l 1430 324 q 1548 455 1506 401 q 1471 494 1492 463 q 1460 519 1466 506 q 1445 536 1451 538 q 1458 581 1451 544 q 1497 652 1466 618 q 1744 812 1591 755 q 2033 882 1855 854 m 1698 613 l 1698 615 q 1678 628 1698 628 l 1664 628 q 1599 618 1628 628 q 1611 608 1609 608 l 1688 608 q 1698 613 1693 608 m 1744 562 l 1740 567 l 1655 477 l 1658 477 l 1661 476 q 1710 490 1674 476 q 1739 508 1733 499 q 1744 543 1744 517 l 1744 562 m 1681 595 q 1616 601 1647 595 q 1601 605 1613 602 q 1584 608 1590 608 q 1560 595 1573 608 l 1560 601 q 1570 613 1564 605 l 1570 615 q 1568 627 1570 619 q 1565 639 1565 635 q 1572 660 1565 648 q 1579 679 1579 671 q 1527 622 1559 679 q 1497 543 1497 568 q 1516 496 1497 515 q 1564 476 1536 476 q 1681 595 1621 531 m 1727 477 q 1723 477 1723 477 l 1634 452 q 1527 324 1613 431 l 1527 319 l 1532 319 q 1557 328 1547 327 q 1727 477 1685 385 m 1089 237 q 842 396 1089 396 q 569 324 688 396 q 428 96 428 239 q 505 -58 428 12 q 517 -62 510 -62 q 522 -58 523 -62 q 505 21 505 -19 q 618 230 505 142 q 848 311 724 311 q 953 285 911 311 q 1003 195 1003 254 q 965 94 1003 153 l 965 90 q 1055 137 1018 90 q 1089 237 1089 182 m 1254 136 l 1223 136 q 1121 112 1215 136 q 1042 94 1105 108 q 957 56 1008 79 q 923 43 945 52 l 926 39 q 922 39 924 39 q 864 12 909 39 q 795 -16 819 -16 l 778 -16 q 773 -1 773 -16 q 804 31 773 7 q 757 46 795 32 q 566 -62 690 -12 q 556 -67 560 -62 q 751 -123 604 -123 q 1050 -20 870 -123 q 1105 13 1069 -9 q 1114 21 1105 13 l 1105 21 q 1070 19 1093 21 q 1035 18 1046 18 q 931 33 971 18 l 937 33 q 979 30 951 33 q 1021 26 1006 26 q 1254 136 1153 26 m 778 134 q 754 179 778 179 q 717 125 717 179 q 726 89 717 107 q 751 67 736 67 q 770 96 761 67 q 778 134 778 120 m 977 185 q 846 269 977 269 q 635 197 734 269 q 526 11 526 119 q 549 -54 526 -54 q 657 -10 574 -54 q 739 53 739 35 q 705 127 705 102 q 755 189 705 189 q 791 139 791 189 q 765 59 791 102 q 829 41 778 41 q 911 66 870 54 q 965 121 948 79 q 977 185 977 154 m 543 -78 q 541 -75 543 -75 l 539 -75 q 536 -78 537 -76 l 536 -79 q 540 -83 537 -83 l 541 -83 q 543 -79 543 -83 l 543 -78 m 535 -75 l 535 -75 q 532 -72 534 -72 q 530 -75 530 -73 l 534 -78 q 535 -75 535 -77 m 1560 721 l 1560 720 q 1559 717 1560 718 q 1557 720 1557 718 l 1557 722 q 1558 722 1558 722 l 1559 722 q 1560 721 1560 722 m 928 130 q 904 94 928 94 q 890 101 899 94 q 876 107 881 107 q 865 98 865 107 q 867 77 865 85 q 854 111 854 85 q 898 158 854 158 q 928 130 928 158 m 880 64 l 876 64 l 875 64 q 872 68 873 66 l 871 68 l 871 71 l 872 72 l 880 64 z "},"K":{"ha":1656,"x_min":88,"x_max":1992,"o":"m 1452 760 l 1452 759 q 1451 755 1451 756 q 1449 758 1449 757 l 1449 760 q 1450 760 1449 760 l 1451 760 q 1452 760 1452 760 m 1992 877 q 1902 944 1966 944 q 1777 868 1851 944 q 1683 743 1716 805 q 1879 836 1789 836 l 1908 836 q 1920 831 1912 834 q 1957 779 1957 816 q 1925 746 1957 746 q 1896 779 1896 746 q 1909 801 1896 792 q 1921 818 1921 810 q 1879 827 1921 827 q 1714 738 1796 827 q 1561 566 1637 652 q 1377 441 1458 461 q 1346 427 1365 438 q 1425 275 1425 361 q 1421 228 1425 259 q 1417 182 1417 197 q 1444 212 1428 196 q 1480 243 1457 224 l 1503 260 q 1554 286 1536 286 q 1480 243 1507 262 q 1444 212 1459 227 q 1412 144 1412 179 q 1433 59 1412 59 q 1520 145 1498 59 l 1520 136 q 1512 93 1520 117 l 1520 93 q 1503 71 1508 83 q 1629 251 1629 168 l 1628 252 q 1624 275 1626 260 l 1628 275 q 1637 246 1637 275 q 1624 201 1637 227 l 1634 201 q 1537 78 1634 182 q 1428 16 1478 16 q 1389 32 1415 16 q 1351 48 1362 48 l 1339 48 q 1313 -14 1335 41 l 1313 -8 q 1322 22 1313 3 q 1331 53 1331 42 q 1270 149 1270 113 q 1294 235 1270 186 q 1339 315 1316 275 l 1339 321 q 1331 374 1339 345 q 1305 414 1321 414 l 1249 414 l 1241 422 q 1236 427 1238 422 q 1243 422 1242 421 l 1246 422 q 1257 444 1249 430 q 1364 481 1312 454 q 1466 570 1410 505 q 1550 674 1508 622 q 1656 779 1586 709 l 1666 789 q 1735 861 1702 825 q 1770 898 1746 874 q 1904 955 1838 955 q 1992 877 1992 955 m 1608 291 q 1602 286 1607 288 q 1598 291 1600 288 q 1601 292 1598 292 l 1604 292 q 1608 291 1606 292 m 1575 290 q 1569 286 1575 286 q 1561 291 1561 290 q 1567 292 1563 292 l 1569 292 q 1575 290 1573 292 m 1527 163 q 1524 160 1527 160 l 1524 160 q 1522 162 1522 160 l 1522 164 q 1524 168 1522 168 q 1527 163 1526 165 m 1564 877 q 1534 843 1564 857 q 1487 823 1510 833 q 1430 746 1461 806 l 1439 746 l 1409 715 l 1257 476 q 1295 457 1273 473 l 1294 457 q 1277 460 1288 457 q 1260 463 1266 463 q 1169 361 1235 463 q 1062 204 1136 307 q 764 33 959 83 q 634 5 718 22 q 530 -6 579 -6 l 490 -6 q 216 64 326 -6 q 88 300 88 146 q 250 577 88 468 q 570 674 394 674 q 690 863 581 796 q 913 920 783 920 q 1027 907 975 920 q 1089 885 1058 896 q 1109 887 1096 885 q 1129 890 1122 890 q 1192 813 1182 890 q 1237 758 1237 768 q 1235 741 1237 752 q 1233 724 1233 730 q 1412 808 1287 724 q 1533 893 1536 893 l 1544 893 q 1564 877 1564 893 m 1434 789 q 1367 712 1367 742 l 1369 711 l 1434 789 m 1364 752 l 1228 696 q 1225 693 1225 696 q 1263 677 1225 677 q 1308 688 1298 677 l 1364 752 m 1201 784 q 1196 795 1201 791 l 1196 766 q 1201 784 1201 772 m 1120 842 q 1093 856 1112 856 q 1061 842 1067 856 l 1120 842 m 1346 435 q 1339 436 1344 436 l 1337 436 q 1331 435 1332 436 q 1339 431 1334 431 q 1346 435 1343 431 m 1324 410 l 1324 412 q 1321 415 1324 415 l 1320 415 q 1318 412 1318 415 l 1318 410 q 1320 408 1318 408 l 1321 408 q 1324 410 1324 408 m 1318 415 l 1318 416 q 1314 420 1318 420 q 1313 416 1313 418 l 1313 415 q 1314 413 1313 413 q 1318 415 1316 414 m 1287 669 q 1273 669 1280 669 q 1177 698 1225 669 q 1118 774 1122 730 q 1115 827 1116 791 l 1035 827 q 920 705 979 791 q 864 626 869 629 l 859 626 l 854 631 q 997 823 890 715 l 995 823 q 880 770 939 823 q 821 661 821 717 q 943 568 821 568 q 1074 604 1003 568 q 1012 572 1059 586 q 941 561 970 561 q 910 563 930 561 q 880 566 890 566 l 878 564 q 917 492 893 540 l 925 492 q 1121 552 998 492 q 1287 669 1244 612 m 1061 871 l 1061 873 q 971 893 1000 893 l 905 893 q 618 789 709 893 q 583 674 583 749 q 829 604 719 667 l 831 606 q 822 633 831 615 q 813 661 813 651 q 873 777 813 726 q 997 832 928 823 q 1061 871 1018 835 m 1337 224 l 1337 226 q 1334 230 1337 230 l 1333 230 q 1331 226 1331 230 l 1331 224 q 1333 220 1331 220 l 1334 220 q 1337 224 1337 220 m 1495 75 q 1434 51 1461 61 q 1452 37 1444 45 q 1456 37 1453 37 q 1479 50 1467 37 q 1495 75 1492 63 m 1343 78 q 1337 111 1343 89 q 1331 216 1320 171 q 1308 135 1308 174 l 1308 102 q 1334 71 1321 71 q 1343 78 1343 71 m 876 568 l 876 570 q 871 576 876 576 q 869 570 869 576 l 869 568 q 872 564 869 564 q 876 568 876 564 m 1356 60 l 1351 66 l 1351 60 l 1356 60 m 904 457 l 867 457 q 886 393 876 446 l 888 393 q 904 457 904 393 m 901 492 q 882 527 901 505 q 586 635 791 635 q 631 564 587 608 q 651 564 642 564 q 846 492 774 564 l 901 492 m 771 502 q 767 503 770 503 l 764 503 q 761 502 761 503 q 765 496 762 500 q 771 502 771 500 m 758 506 q 751 508 758 508 l 750 508 q 744 505 744 508 q 751 502 744 503 q 758 506 758 502 m 741 511 q 736 513 739 513 l 733 513 q 730 511 730 513 q 736 508 730 509 q 741 511 740 509 m 1257 621 q 1249 618 1255 620 q 1222 599 1238 606 q 1120 534 1188 576 q 920 463 1044 491 q 900 382 917 431 q 872 303 886 343 q 867 294 871 299 q 777 201 826 231 q 645 163 715 163 q 613 165 635 163 q 581 168 592 168 q 549 126 581 126 q 531 134 541 126 q 509 142 521 142 l 509 105 q 502 142 502 121 q 514 182 502 170 q 403 206 468 182 q 451 111 403 157 q 551 58 500 64 l 551 58 l 551 60 l 551 61 q 550 61 551 61 l 549 61 q 546 65 547 61 l 546 66 q 549 71 547 71 l 550 71 q 553 66 552 71 l 553 65 q 554 66 553 66 q 557 60 557 64 l 557 58 l 557 58 l 562 58 l 562 53 q 608 48 577 53 q 653 43 638 43 l 700 43 q 741 56 705 43 q 963 225 876 107 l 1257 621 m 864 377 q 826 463 864 430 q 706 496 754 473 q 665 514 701 497 l 653 514 q 476 437 553 514 q 399 259 399 359 l 399 230 q 529 210 441 210 q 701 235 618 210 q 845 326 799 267 q 864 377 864 351 m 838 286 l 838 289 q 668 201 780 235 q 613 187 649 197 q 606 182 613 187 l 640 182 q 838 286 777 182 m 618 22 q 412 126 483 37 q 387 163 401 138 q 366 230 379 187 q 316 323 316 288 q 326 343 316 343 q 361 252 326 278 q 606 561 382 507 l 606 564 q 570 634 594 587 q 548 635 566 635 q 304 580 417 635 q 121 412 183 519 q 100 345 100 376 l 100 252 q 134 163 100 214 q 313 33 197 68 q 536 8 395 8 q 613 19 547 8 l 618 22 m 1118 633 q 1116 631 1118 631 l 1114 631 q 1112 633 1112 631 l 1112 635 q 1115 640 1112 640 q 1118 635 1118 639 l 1118 633 m 1099 621 q 1097 616 1099 618 q 1093 620 1094 618 l 1094 623 q 1096 623 1095 623 q 1099 621 1098 623 m 1086 612 q 1081 607 1086 607 l 1080 608 q 1084 615 1081 613 l 1086 612 m 517 100 q 515 98 517 98 l 514 98 q 511 100 511 98 l 511 102 q 514 105 512 105 l 515 105 q 517 102 517 105 l 517 100 m 545 70 q 542 66 544 66 l 541 66 q 538 70 538 66 l 538 71 q 537 71 538 71 l 536 71 q 534 73 534 71 l 534 75 l 534 75 l 533 75 q 530 78 530 76 l 530 79 q 529 78 530 78 l 528 78 q 524 83 524 78 l 524 83 l 523 83 l 522 83 q 519 87 519 83 l 519 89 l 519 90 l 519 90 q 516 92 516 90 l 516 94 q 519 98 517 98 l 519 98 q 522 94 522 98 l 522 93 l 523 93 q 527 89 526 93 q 529 90 528 90 q 532 83 532 88 l 532 83 q 533 83 532 83 l 534 83 q 536 79 536 83 l 536 78 l 537 78 q 540 75 539 78 q 541 75 541 75 l 542 75 q 545 71 545 75 l 545 70 z "},"L":{"ha":1128,"x_min":45,"x_max":1754,"o":"m 1754 736 q 1633 551 1754 629 q 1412 481 1526 481 q 1368 487 1397 481 q 1322 494 1338 494 q 1051 408 1211 408 q 1011 409 1033 408 q 645 115 819 206 q 804 77 755 77 q 875 84 823 77 q 929 92 927 92 q 930 92 930 92 q 837 68 920 88 q 858 68 844 69 q 877 67 871 67 q 1011 108 941 67 q 1126 192 1042 127 q 1128 187 1128 189 q 997 81 1128 179 q 1063 106 1024 81 q 1123 149 1093 127 q 1136 153 1123 155 q 808 26 1019 26 q 607 85 738 26 l 589 85 q 505 53 554 68 q 387 29 440 33 q 262 28 376 28 q 130 45 186 28 q 45 123 45 69 q 225 210 45 210 q 536 152 345 210 q 612 127 561 143 q 615 127 612 127 q 688 179 629 127 q 853 353 738 222 q 893 401 867 368 l 891 404 q 815 398 866 404 q 739 391 765 391 q 500 554 500 391 q 665 784 500 697 q 958 856 800 856 q 1013 850 977 856 q 1067 844 1048 844 q 1113 847 1082 844 q 1160 851 1144 851 q 1284 827 1240 851 q 1312 818 1302 818 q 1358 828 1327 818 q 1404 838 1388 838 q 1424 837 1411 838 q 1445 836 1438 836 q 1479 842 1444 836 q 1594 856 1563 856 q 1754 736 1754 856 m 963 113 l 960 111 l 958 112 q 960 115 958 114 q 963 113 962 115 m 955 109 q 952 107 954 107 q 949 106 951 106 q 949 108 949 106 l 949 110 q 950 111 949 111 q 952 111 951 111 q 955 109 954 110 m 1484 787 l 1484 789 q 1481 792 1483 792 l 1480 792 q 1478 789 1478 792 l 1478 787 q 1480 784 1478 785 l 1481 784 q 1484 787 1484 785 m 1455 818 q 1451 821 1455 821 l 1450 821 q 1445 818 1445 821 q 1451 814 1448 816 q 1455 818 1453 816 m 1484 766 q 1480 772 1483 768 q 1478 767 1478 772 l 1478 766 q 1480 762 1478 762 q 1484 766 1482 764 m 1479 749 l 1479 750 q 1476 754 1478 754 l 1476 754 q 1473 750 1473 754 l 1473 749 q 1475 746 1473 746 l 1476 746 q 1479 749 1479 747 m 1420 826 q 1415 827 1418 826 q 1411 827 1412 827 l 1398 827 q 1357 822 1381 827 q 1326 806 1326 816 q 1333 798 1326 806 q 1343 792 1337 792 q 1420 826 1353 792 m 1472 783 q 1452 800 1472 800 q 1361 766 1413 800 l 1361 765 q 1366 738 1361 756 q 1371 711 1371 720 q 1318 606 1371 661 q 1418 677 1369 625 q 1472 783 1472 734 m 1744 739 q 1697 823 1744 792 q 1600 848 1657 848 q 1463 823 1505 848 q 1493 800 1473 818 l 1493 778 q 1409 650 1493 713 q 1324 589 1381 629 q 1180 507 1268 555 q 1034 439 1109 476 l 1034 435 q 1081 430 1057 430 q 1204 446 1143 430 q 1310 503 1282 467 l 1310 507 q 1305 521 1310 511 q 1301 536 1301 531 q 1322 562 1301 562 q 1340 536 1340 562 q 1331 507 1338 528 q 1394 498 1347 498 q 1617 563 1506 498 q 1744 739 1744 637 m 1327 784 q 1308 797 1319 797 q 1253 771 1295 797 q 1211 738 1211 746 q 1216 721 1211 731 q 1228 711 1222 711 q 1327 784 1265 733 m 1292 805 q 1202 831 1276 831 l 1118 831 l 1105 826 q 1202 749 1158 794 l 1292 805 m 1361 711 l 1361 722 q 1343 759 1361 759 q 1241 677 1276 719 q 1254 613 1254 635 q 1246 606 1254 606 q 1241 608 1242 606 l 1228 656 l 1225 660 q 1126 554 1171 612 l 1143 554 q 1285 594 1219 554 q 1361 711 1361 640 m 1327 524 l 1327 556 q 1313 538 1313 556 q 1321 519 1313 519 l 1322 519 l 1327 524 m 1241 557 l 1241 558 q 1238 562 1240 562 l 1238 562 q 1235 558 1235 562 l 1235 557 q 1238 554 1235 554 l 1238 554 q 1241 557 1241 555 m 1232 552 l 1232 553 q 1229 557 1231 557 l 1228 557 q 1225 553 1225 557 l 1225 552 q 1227 549 1225 549 l 1229 549 q 1232 552 1232 550 m 1213 698 l 1195 724 q 1062 575 1168 719 q 1059 567 1061 572 q 1213 698 1109 612 m 1220 549 l 1215 549 q 1114 536 1227 549 q 1075 490 1100 522 q 1220 549 1145 509 m 1187 736 q 1133 790 1177 758 q 1067 823 1088 823 q 995 800 1048 823 q 837 604 837 734 q 865 516 837 563 q 935 463 897 463 q 1016 570 941 463 q 985 631 985 606 q 1011 669 985 669 q 998 629 998 648 q 1024 583 998 583 q 1187 736 1116 688 m 1114 480 l 1114 481 q 1110 486 1113 486 l 1109 486 q 1107 481 1107 486 l 1107 480 q 1109 477 1107 477 l 1111 477 q 1114 480 1113 478 m 1103 475 l 1103 477 q 1101 481 1103 481 l 1100 481 q 1097 477 1098 481 l 1097 475 q 1100 473 1098 473 l 1101 473 q 1103 475 1103 473 m 1091 472 l 1091 473 q 1088 477 1090 477 l 1087 477 q 1084 473 1085 477 l 1084 472 q 1087 468 1085 468 l 1088 468 q 1091 472 1090 468 m 1083 467 l 1083 469 q 1080 473 1082 473 l 1080 473 q 1076 469 1077 473 l 1076 467 q 1079 465 1077 465 l 1080 465 q 1083 467 1083 465 m 1072 465 q 1069 467 1070 467 l 1067 465 q 1069 462 1067 463 l 1072 465 m 1059 460 q 1056 463 1059 463 q 1054 460 1055 463 l 1054 460 q 1056 457 1055 458 l 1059 460 m 1029 836 q 947 844 994 844 q 728 781 831 844 q 610 601 610 709 q 836 460 610 460 l 896 460 q 827 602 827 526 q 888 745 827 688 q 1024 831 923 778 q 1029 836 1026 831 m 905 417 l 893 417 q 847 415 878 417 q 800 412 816 412 q 652 446 714 412 q 576 568 576 488 q 747 805 576 703 l 743 805 q 513 545 513 695 q 741 399 513 399 q 905 417 811 399 m 450 142 q 444 144 448 144 l 441 144 q 435 142 438 144 q 442 136 435 137 q 450 142 450 136 m 429 146 q 425 147 427 146 l 412 147 q 397 145 406 147 q 410 142 401 142 l 414 142 q 428 145 425 142 q 429 146 429 145 m 391 150 q 387 152 390 152 l 384 152 q 380 150 380 151 q 385 147 382 147 q 391 150 391 148 m 471 68 q 467 71 470 70 l 466 71 q 462 68 463 70 q 467 66 464 66 q 471 68 469 66 m 556 98 q 460 126 539 114 q 355 136 395 136 q 300 93 300 136 l 300 83 q 374 72 300 72 l 415 72 q 556 98 519 72 m 454 64 l 321 64 q 372 51 331 51 l 395 51 q 454 64 405 51 m 292 123 l 288 123 q 265 102 265 123 q 279 85 265 91 l 292 123 m 458 161 q 224 199 366 199 q 60 130 60 199 q 140 57 60 80 q 264 41 194 41 q 291 42 273 41 q 318 43 309 43 q 282 70 308 46 q 257 102 257 94 q 270 123 257 115 q 364 161 328 161 l 458 161 z "},"M":{"ha":1688,"x_min":83,"x_max":2298,"o":"m 2298 733 q 2174 593 2298 637 q 1971 562 2087 562 q 1876 566 1901 562 q 1784 578 1836 571 q 1744 585 1743 585 l 1735 585 l 1725 576 q 1709 562 1718 572 l 1505 294 q 1455 216 1499 288 q 1386 71 1386 105 q 1430 46 1386 46 q 1497 73 1463 46 q 1594 153 1536 103 q 1624 235 1624 187 l 1624 256 q 1584 278 1605 278 q 1493 229 1535 278 q 1451 132 1454 184 l 1444 132 q 1484 237 1444 191 q 1583 286 1525 286 q 1642 227 1642 286 q 1484 43 1642 122 q 1390 8 1413 8 q 1343 18 1390 8 q 1297 28 1299 26 q 1274 67 1274 37 q 1343 211 1274 113 q 1445 355 1377 259 q 1681 593 1500 429 l 1681 597 q 1667 602 1676 602 q 1663 601 1664 602 q 1088 48 1657 600 q 1019 -5 1048 9 q 988 20 1004 -5 q 972 58 972 42 q 1034 179 972 98 q 1326 534 1199 400 l 1042 260 q 446 -8 762 -8 q 203 43 299 -8 q 83 243 83 109 q 186 457 83 361 q 403 572 279 544 q 561 601 466 586 q 913 728 677 728 q 955 726 928 728 q 997 724 983 724 q 1024 725 1034 724 l 1396 667 l 1642 818 q 1674 827 1657 827 q 1698 810 1698 827 q 1556 639 1698 781 l 1556 635 q 1626 623 1622 623 l 1628 621 l 1875 797 q 1906 805 1886 804 q 2005 850 1955 827 q 2110 873 2064 873 q 2178 853 2159 873 q 2195 831 2184 846 q 2267 801 2248 815 q 2298 733 2298 778 m 2178 831 q 2102 856 2178 856 q 1901 789 2027 856 q 1875 762 1875 775 q 1886 764 1879 762 q 1898 766 1893 766 l 1901 765 l 1901 764 l 1885 741 q 2178 831 2046 826 m 2285 734 q 2248 799 2285 777 q 2172 818 2217 818 q 1948 748 2064 818 q 1757 606 1894 715 l 1757 601 q 1805 595 1773 599 q 1969 580 1943 580 q 2164 607 2082 580 q 2285 734 2285 646 m 1881 757 q 1829 712 1866 757 l 1834 712 q 1881 757 1858 728 m 1829 738 q 1676 613 1775 699 l 1701 613 l 1829 738 m 1681 810 l 1681 814 l 1676 818 q 1607 766 1645 818 l 1624 766 l 1624 764 l 1505 648 q 1681 810 1571 691 m 1607 751 l 1607 760 q 1535 695 1586 760 l 1607 751 m 1653 618 l 1653 618 q 1650 623 1653 623 l 1649 623 q 1647 618 1647 623 l 1647 618 q 1649 613 1647 613 l 1650 613 q 1653 618 1653 613 m 1479 695 q 1433 661 1463 684 l 1440 661 q 1460 675 1444 661 q 1479 695 1476 690 m 1438 684 l 1438 685 l 1438 687 l 1435 687 l 1434 687 l 1433 687 l 1432 685 l 1432 684 l 1433 682 l 1434 682 l 1436 682 l 1438 682 l 1438 684 m 1489 631 q 1487 632 1488 632 q 1478 624 1478 632 q 1480 623 1478 623 q 1484 622 1482 622 q 1489 631 1489 622 m 1425 677 q 1407 665 1413 674 q 1425 677 1417 669 m 1390 652 l 1386 652 q 1254 541 1309 597 q 1329 601 1273 555 q 1390 652 1385 646 m 1637 606 q 1530 516 1600 576 l 1228 210 l 1637 606 m 1246 536 q 1223 516 1223 526 l 1223 516 q 1246 536 1238 521 m 1611 610 q 1548 623 1581 623 l 1539 623 q 1118 163 1291 391 q 1090 122 1099 138 q 1074 77 1074 95 l 1084 77 l 1517 529 q 1611 610 1550 557 m 1425 648 q 1402 639 1415 648 q 1267 529 1356 604 l 854 140 q 984 233 937 194 q 1024 265 998 243 l 1425 648 m 1331 31 q 1328 53 1331 38 q 1326 75 1326 68 q 1328 103 1326 85 q 1331 131 1331 121 l 1331 132 q 1292 51 1292 105 l 1292 39 q 1300 31 1292 31 l 1331 31 m 1377 656 q 1313 669 1356 662 l 1016 703 q 944 705 1002 705 q 751 690 818 705 q 586 601 644 668 q 905 406 905 589 q 878 310 905 347 q 747 185 836 252 q 556 125 673 130 q 529 77 561 77 q 518 79 525 77 q 508 81 511 81 q 500 73 500 81 q 502 64 500 70 q 505 54 505 58 l 505 51 q 487 93 487 65 q 509 132 487 118 q 423 164 492 143 q 343 204 366 182 q 342 199 343 203 q 342 195 342 196 l 342 184 q 393 71 342 118 q 509 26 443 26 l 538 26 q 513 43 529 31 q 538 37 522 43 q 562 31 553 31 q 850 171 700 31 l 1272 567 q 1377 656 1320 606 m 896 403 q 798 536 896 494 q 620 567 726 567 l 564 567 q 549 476 549 543 q 597 481 565 476 q 645 486 629 486 q 772 452 721 486 q 832 340 832 412 q 819 269 832 314 q 896 403 896 318 m 1024 9 q 1019 11 1023 11 q 1016 9 1016 11 q 1019 5 1017 7 q 1024 9 1022 6 m 837 138 q 836 138 837 138 q 828 130 828 138 q 829 127 828 128 q 837 138 837 127 m 820 123 l 819 125 l 817 125 l 814 122 q 817 120 815 121 l 819 120 l 819 120 l 820 121 l 820 123 m 806 110 l 806 111 q 804 115 806 115 l 803 115 q 800 111 801 115 l 800 110 q 803 107 801 107 l 804 107 q 806 110 806 108 m 808 323 q 652 439 808 439 q 568 431 599 439 l 568 427 q 629 376 606 388 q 706 358 660 358 q 743 363 728 358 q 730 350 743 357 q 631 362 667 350 q 556 427 585 379 l 551 427 q 526 418 535 418 q 347 243 382 350 q 343 227 346 237 q 394 191 349 208 q 458 176 434 176 q 488 175 469 176 q 517 174 508 174 q 742 220 645 174 q 778 239 755 226 q 786 248 782 243 q 808 323 808 274 m 734 192 q 526 145 648 160 q 581 140 547 140 q 664 153 620 140 q 734 192 718 168 m 548 562 l 530 562 q 251 476 384 562 q 96 244 96 376 q 205 69 96 127 q 420 22 292 22 l 436 22 q 318 171 318 85 q 309 260 318 236 l 309 303 l 318 311 q 316 281 316 302 q 321 260 316 268 q 337 292 330 274 q 535 469 383 401 l 538 473 q 548 562 534 527 m 513 46 q 510 43 512 43 l 509 43 q 507 46 507 43 l 507 47 q 509 51 507 51 l 510 51 q 513 47 512 51 l 513 46 z "},"N":{"ha":1327,"x_min":83,"x_max":2490,"o":"m 1346 727 q 1343 725 1345 725 l 1343 725 q 1341 726 1342 726 l 1341 727 q 1342 728 1342 728 l 1343 728 q 1346 727 1345 728 m 2490 652 q 2351 452 2490 527 q 2099 391 2236 391 q 1880 534 1880 391 q 1926 626 1880 589 q 2025 661 1969 661 q 2051 652 2047 661 q 2032 652 2041 652 q 1936 623 1975 652 q 1893 534 1893 589 q 1966 438 1893 468 q 2096 417 2019 417 q 2342 465 2235 417 q 2481 650 2481 528 q 2372 783 2481 743 q 2185 810 2297 810 q 1808 720 1953 810 q 1822 723 1813 720 q 1835 725 1831 725 q 1893 680 1893 725 q 1875 645 1893 660 q 1836 631 1858 631 q 1807 656 1817 631 q 1784 682 1798 682 q 1489 465 1720 682 q 1402 383 1459 439 q 1222 185 1341 318 q 1190 150 1210 174 l 1105 26 q 1078 6 1093 7 q 1097 51 1078 27 q 1082 30 1095 49 q 1062 16 1073 16 l 1062 22 q 1118 158 1105 98 l 1187 487 q 1137 419 1170 464 q 401 -46 795 -46 q 183 10 269 -46 q 83 203 83 77 q 258 496 83 378 q 597 601 413 601 q 781 561 722 601 q 854 395 854 513 q 785 233 854 300 q 628 145 726 174 q 602 140 611 140 l 487 140 q 473 121 480 131 q 454 111 465 111 q 434 121 442 111 q 418 132 425 132 q 403 105 403 132 q 407 84 403 98 q 410 62 410 70 l 410 60 q 395 105 395 71 q 408 145 395 116 q 336 170 383 157 q 527 31 336 31 q 716 79 626 31 q 876 197 779 113 q 965 278 935 248 l 965 273 q 871 184 951 255 q 769 104 819 138 q 709 64 747 92 q 714 64 713 64 q 872 156 768 73 q 989 265 941 211 q 1088 393 1019 300 q 1139 465 1105 416 l 1131 465 q 1164 508 1143 479 l 1280 703 q 1369 827 1326 785 l 1379 827 q 1353 763 1378 804 q 1318 700 1322 713 l 1331 712 q 1313 670 1331 707 q 1292 618 1295 630 l 1202 203 l 1445 495 q 1466 516 1449 499 q 1619 662 1608 652 q 1811 741 1715 737 q 2206 853 2043 853 q 2396 809 2319 853 q 2490 652 2490 756 m 1114 439 l 1110 435 q 1109 437 1109 436 q 1114 444 1110 439 l 1114 439 m 1093 414 l 1080 401 l 1080 406 l 1093 418 l 1093 414 m 1062 380 q 1046 363 1061 377 l 1044 363 q 1062 383 1044 366 l 1062 380 m 1029 342 l 972 286 l 972 291 l 1029 345 l 1029 342 m 1790 728 q 1658 682 1726 728 q 1550 589 1618 656 q 1364 393 1463 506 q 1790 728 1556 588 m 1505 508 q 1343 350 1451 456 q 1267 261 1318 320 l 1505 508 m 1213 554 q 1208 549 1210 553 q 1174 495 1187 513 q 1213 554 1202 532 m 1147 472 l 1147 474 q 1144 477 1146 477 l 1143 477 q 1141 474 1141 477 l 1141 472 q 1143 469 1141 470 l 1144 469 q 1147 472 1147 470 m 1254 243 q 1240 231 1240 236 q 1241 230 1240 230 q 1254 243 1254 230 m 1126 127 l 1126 132 l 1114 107 l 1114 99 q 1118 102 1116 100 q 1126 127 1126 122 m 824 319 l 824 324 q 781 278 798 298 q 768 260 777 272 q 586 158 709 199 l 599 158 q 733 207 668 158 q 824 319 795 253 m 832 383 q 690 473 832 473 q 462 394 564 473 q 334 192 357 313 q 415 161 353 161 q 431 164 420 161 q 447 166 441 166 q 462 164 452 166 q 476 161 471 161 q 659 213 560 161 q 806 332 758 264 q 832 383 832 368 m 705 58 l 705 60 q 701 64 704 64 l 701 64 q 698 60 699 64 l 698 58 q 701 56 699 56 l 702 56 q 705 58 704 56 m 694 56 l 694 56 q 692 60 694 60 l 691 60 q 688 56 688 60 l 688 56 q 691 51 689 51 l 692 51 q 694 56 694 51 m 842 452 q 752 551 842 520 q 606 572 691 572 q 274 477 429 572 q 96 204 96 369 q 191 27 96 85 q 395 -21 269 -21 q 505 -9 435 -21 q 607 18 582 3 q 568 15 594 18 q 529 13 542 13 q 313 145 338 13 q 305 201 311 164 q 295 224 304 208 q 288 248 288 237 q 297 264 288 264 q 309 217 297 224 q 446 432 338 349 q 688 516 553 516 q 842 452 786 516 z "},"O":{"ha":1126,"x_min":83,"x_max":1438,"o":"m 1415 741 l 1407 749 l 1411 749 q 1415 746 1412 748 l 1415 741 m 1423 728 q 1420 733 1421 730 l 1420 736 l 1423 733 l 1423 728 m 1438 678 q 1420 631 1438 642 q 1424 645 1419 636 q 1428 656 1428 653 l 1428 724 q 1438 705 1438 719 l 1438 678 m 1364 593 q 1362 589 1364 590 q 1359 593 1360 590 l 1361 594 q 1364 593 1363 594 m 1351 587 q 1350 585 1351 585 q 1346 588 1348 585 q 1348 591 1347 591 l 1349 591 q 1351 589 1351 590 l 1351 587 m 1335 585 q 1329 580 1335 582 q 1321 583 1326 580 l 1320 584 q 1325 586 1320 586 l 1329 586 q 1335 585 1335 586 m 1309 581 q 1308 580 1309 580 q 1300 576 1307 576 q 1292 580 1294 576 q 1291 581 1292 580 q 1297 581 1293 581 l 1304 581 q 1309 581 1309 581 m 1402 754 l 1398 754 q 1280 778 1341 778 q 1286 729 1280 762 q 1292 679 1292 696 q 1138 311 1292 501 q 819 60 995 134 q 792 -5 802 22 q 781 -39 789 -17 q 745 -94 772 -59 q 487 -225 646 -225 q 311 -156 374 -225 q 252 26 252 -90 q 257 102 252 81 q 270 166 270 158 l 270 179 q 140 262 191 205 q 83 403 83 325 q 186 591 83 523 q 401 652 275 652 q 435 649 412 652 q 469 647 458 647 l 479 647 q 726 775 596 775 q 747 774 737 775 q 1081 877 936 877 q 1241 826 1195 877 q 1270 792 1241 826 q 1402 754 1379 792 m 1272 703 q 1254 779 1272 766 l 1214 779 q 1198 774 1206 779 q 1204 751 1198 774 q 1211 724 1210 729 q 1267 634 1259 701 q 1272 663 1272 650 l 1272 703 m 1190 728 q 1171 772 1190 772 q 1152 765 1152 772 q 1164 740 1152 752 q 1190 728 1177 728 m 1156 734 q 1134 759 1156 736 q 1042 724 1105 759 q 1089 706 1062 715 l 1091 707 q 1126 718 1097 706 q 1156 734 1156 730 m 1249 792 q 1081 869 1211 869 q 777 774 954 869 q 837 762 806 762 l 845 762 q 895 790 853 768 q 943 813 937 812 q 1069 838 991 838 q 1142 826 1118 838 q 1169 803 1147 823 q 1200 787 1186 787 q 1249 792 1228 787 m 1169 786 q 1127 814 1169 801 q 1070 826 1091 826 q 964 803 1026 826 q 871 749 900 779 l 871 746 q 891 736 882 736 l 896 736 q 1067 787 995 787 q 1104 781 1080 787 q 1141 774 1128 774 q 1169 786 1169 774 m 1169 684 l 1168 685 q 1156 720 1168 720 q 1096 698 1112 720 q 1139 631 1131 660 q 1152 608 1142 622 q 1169 684 1169 656 m 1116 766 q 1094 777 1101 777 q 1081 775 1090 777 q 1069 774 1073 774 q 983 755 1042 774 q 917 717 917 734 q 932 706 917 706 q 1116 766 957 706 m 1072 696 q 1016 711 1058 711 q 1011 709 1015 711 q 1006 707 1008 707 q 960 677 987 696 l 960 673 q 990 631 971 659 q 1072 696 1029 661 m 1254 631 q 1240 692 1254 673 q 1219 711 1227 711 l 1211 711 q 1203 649 1211 692 q 1199 650 1202 650 q 1193 650 1196 650 l 1193 715 q 1180 722 1193 719 q 1177 655 1180 712 q 1165 610 1175 640 q 1155 562 1155 579 l 1155 541 l 1185 595 l 1185 593 q 1129 427 1171 568 q 1080 315 1117 386 q 1254 631 1254 481 m 958 698 l 958 699 q 956 703 958 703 l 955 703 q 952 699 952 703 l 952 698 q 955 695 952 695 l 956 695 q 958 698 958 695 m 950 692 l 950 694 q 947 698 949 698 l 947 698 q 944 694 944 698 l 944 692 q 947 690 945 690 l 947 690 q 950 692 950 690 m 1134 586 q 1120 648 1134 612 q 1081 690 1102 690 q 998 626 1062 690 q 1008 581 998 602 q 1021 496 1021 553 q 1016 454 1021 482 q 1011 410 1011 425 l 1011 409 q 1086 492 1047 441 q 1134 586 1134 555 m 1136 514 q 1135 530 1136 519 q 1134 545 1134 540 q 1081 468 1118 518 q 1054 430 1069 455 q 1067 439 1059 433 q 1129 503 1086 463 q 1136 514 1136 508 m 926 682 l 917 682 q 850 631 895 667 l 926 682 m 876 724 q 851 733 863 733 q 785 680 838 733 q 722 608 737 631 q 876 724 798 685 m 1096 319 q 1049 269 1065 289 q 1096 319 1074 292 m 985 532 q 977 601 985 572 q 943 564 958 584 q 972 608 956 584 q 959 640 972 616 q 943 665 947 665 q 935 660 941 665 q 782 528 850 602 q 747 490 770 516 q 712 356 712 443 q 789 264 712 264 q 888 308 826 264 q 952 390 952 355 q 935 409 952 393 q 955 404 943 404 l 960 404 q 985 532 985 465 m 909 695 l 909 698 q 902 709 904 709 q 901 707 900 709 q 739 567 855 689 q 597 388 622 444 q 637 432 606 391 q 738 541 670 469 q 777 575 751 552 q 840 638 808 607 q 909 695 878 675 m 722 759 l 709 759 q 587 723 654 759 q 495 639 517 685 q 540 621 524 627 l 546 621 q 722 759 650 717 m 1131 487 q 1129 494 1131 490 q 1061 433 1099 460 q 979 352 1025 409 q 907 273 932 292 q 799 238 861 238 q 564 161 682 187 q 587 83 564 117 q 655 43 612 43 q 799 90 724 43 q 802 94 800 91 q 800 124 802 104 q 799 153 799 144 q 819 102 813 153 q 837 112 825 105 q 1029 264 970 191 q 1095 372 1059 302 q 1131 487 1131 441 m 981 210 q 888 136 941 170 q 823 94 865 123 q 818 85 818 89 q 870 111 829 85 q 922 149 909 136 q 981 210 941 169 m 819 746 q 757 759 781 759 q 559 608 709 759 q 589 554 585 586 l 585 554 q 551 593 552 593 l 546 593 q 505 549 532 579 q 305 204 351 370 q 303 198 303 202 q 309 187 303 189 q 482 174 341 174 q 483 172 482 172 l 484 177 l 485 190 l 495 301 q 495 298 495 300 q 505 340 498 313 q 814 741 556 542 q 819 746 817 742 m 526 606 q 487 621 526 621 q 446 563 470 621 q 423 486 423 509 l 423 481 q 476 542 429 486 q 526 606 526 601 m 764 243 l 760 248 q 700 351 700 281 q 712 452 700 397 q 663 388 706 441 q 559 182 559 262 q 764 243 637 182 m 597 378 l 597 380 q 595 383 597 383 l 594 383 q 591 380 591 383 l 591 378 q 593 375 591 376 l 595 375 q 597 378 597 376 m 802 80 l 802 81 q 705 43 739 49 q 760 56 722 43 q 802 80 802 69 m 467 626 q 435 635 454 635 q 417 635 429 635 q 401 634 406 634 q 196 580 281 634 q 96 404 96 517 q 211 225 96 291 q 273 199 256 199 l 279 199 q 283 210 279 202 q 358 372 324 308 q 397 442 374 399 q 425 536 407 475 q 467 626 441 589 m 541 81 l 541 82 q 538 86 541 86 l 538 86 q 536 85 537 86 q 534 90 536 90 l 533 90 q 530 85 530 90 l 530 84 q 533 81 531 81 l 534 81 q 535 82 534 81 l 535 81 q 538 77 536 77 l 538 77 q 541 81 541 77 m 567 56 l 567 56 q 564 60 566 60 l 564 60 q 562 60 563 60 q 559 64 562 64 l 559 64 q 556 60 556 64 l 556 58 q 559 56 556 56 l 559 56 q 561 56 560 56 l 561 56 q 564 51 561 51 l 564 51 q 567 56 567 51 m 545 75 q 542 77 544 76 l 541 77 q 540 75 540 77 l 540 75 q 541 73 540 73 l 542 73 q 545 75 543 73 m 554 64 l 554 65 q 551 68 553 68 l 551 68 q 549 68 550 68 l 549 69 q 547 73 549 73 l 546 73 q 543 69 543 73 l 543 68 q 546 64 543 64 l 547 64 q 548 64 547 64 l 548 64 q 551 61 549 61 l 551 61 q 554 64 554 61 m 799 48 q 754 37 783 47 q 709 26 725 26 q 568 41 608 26 q 482 149 505 66 q 363 161 428 152 q 300 171 294 171 q 281 130 290 171 q 275 77 275 96 l 275 26 q 492 -217 275 -217 q 770 -27 675 -217 q 799 48 784 -1 m 1203 649 q 1202 647 1204 648 l 1203 649 m 1201 633 q 1198 631 1200 631 l 1198 631 q 1196 633 1196 631 l 1196 635 q 1198 639 1196 638 q 1201 635 1201 637 l 1201 633 m 1196 620 q 1193 618 1195 618 l 1192 618 q 1192 619 1192 618 l 1192 620 q 1192 621 1192 621 l 1194 621 q 1196 620 1196 621 m 1192 607 q 1188 605 1191 606 q 1187 606 1187 605 l 1187 608 q 1188 609 1187 609 q 1192 607 1190 609 m 943 564 q 926 532 933 547 q 943 564 932 549 m 926 532 q 912 460 912 499 q 920 422 912 437 q 904 458 904 441 q 926 532 904 488 m 935 409 q 920 422 925 413 q 935 409 925 416 m 536 84 q 535 82 536 83 l 535 82 q 536 85 535 85 l 536 84 m 562 58 q 561 56 562 57 l 561 56 q 562 60 561 59 l 562 58 m 549 68 q 548 64 549 65 l 548 65 q 549 68 548 67 z "},"P":{"ha":1158,"x_min":64,"x_max":1896,"o":"m 1896 743 q 1803 587 1896 652 q 1624 529 1720 529 l 1592 529 q 1546 541 1590 530 q 1537 665 1492 581 q 1615 705 1571 702 q 1735 686 1668 713 q 1640 701 1692 709 q 1550 665 1583 698 q 1556 549 1500 583 q 1600 538 1596 538 q 1782 591 1702 538 q 1874 749 1874 652 q 1822 846 1874 810 q 1714 878 1776 878 q 1556 861 1613 878 q 1393 777 1441 826 l 1393 772 q 1449 606 1449 693 q 1364 446 1449 507 q 1188 393 1290 393 q 1158 397 1166 393 q 1123 399 1148 398 q 1088 401 1101 401 l 1061 401 q 1023 350 1050 393 q 932 227 968 263 q 823 125 891 184 q 703 -146 819 -33 q 428 -259 586 -259 q 174 27 174 -259 q 153 45 168 36 q 64 203 64 98 q 153 406 64 313 q 345 529 230 486 q 414 551 355 532 q 441 562 434 557 q 462 581 457 569 q 477 635 465 600 q 618 796 534 737 q 819 861 711 861 q 864 858 834 861 q 909 856 894 856 q 963 858 927 856 q 1017 861 1000 861 q 1268 823 1086 861 l 1266 822 q 1334 806 1289 818 l 1332 805 q 1367 818 1349 805 q 1398 831 1385 830 q 1382 809 1398 818 q 1358 792 1361 797 q 1375 789 1362 789 q 1688 891 1530 891 q 1826 858 1768 891 q 1896 743 1896 817 m 1358 774 l 1358 776 l 1355 779 l 1354 779 l 1352 776 l 1352 774 l 1354 772 l 1355 772 l 1358 774 m 1350 780 l 1347 783 l 1346 783 l 1345 779 l 1348 777 l 1350 779 l 1350 780 m 1345 784 l 1345 785 l 1342 789 l 1341 789 l 1339 785 l 1339 784 l 1341 779 l 1342 779 l 1345 784 m 1319 796 l 1319 798 l 1316 802 l 1316 802 l 1313 798 l 1313 796 l 1316 792 l 1316 792 l 1319 796 m 1307 800 l 1306 801 l 1303 805 l 1303 805 l 1300 801 l 1300 800 l 1303 797 l 1304 797 l 1307 800 m 1329 759 q 1318 767 1321 767 q 1267 725 1306 767 q 1222 669 1236 690 q 1251 690 1232 676 q 1329 759 1300 730 m 1175 831 q 1052 850 1134 850 l 962 850 q 949 849 958 850 q 937 848 941 848 l 928 844 l 966 818 q 1001 822 979 818 q 1035 827 1027 827 q 1145 831 1066 831 q 1160 832 1149 832 q 1175 831 1172 832 m 1385 642 q 1377 700 1385 669 q 1348 743 1367 743 q 1341 739 1341 743 q 1342 731 1341 736 q 1343 724 1343 726 q 1335 724 1341 724 q 1326 725 1329 725 q 1316 715 1324 725 q 1269 669 1300 701 q 1133 516 1227 626 q 1064 414 1084 459 q 1129 408 1077 408 q 1124 421 1129 414 q 1118 435 1118 429 q 1141 426 1126 434 q 1166 418 1156 418 q 1153 452 1153 437 q 1192 521 1153 486 q 1174 488 1190 518 q 1163 454 1163 469 q 1201 427 1163 427 q 1316 507 1280 466 q 1362 635 1362 559 q 1360 663 1362 645 q 1358 690 1358 681 q 1371 669 1371 682 q 1383 631 1380 647 q 1385 642 1385 635 m 1295 778 q 1217 807 1281 796 q 1129 814 1170 814 q 1054 808 1093 814 q 992 791 992 798 q 1001 760 992 780 q 1013 728 1011 736 q 1019 608 1019 697 l 1021 608 l 1022 610 q 1051 618 1044 618 q 979 508 1023 600 q 1000 449 979 463 l 1004 452 q 1291 772 1129 645 l 1295 778 m 923 787 l 923 789 l 920 792 l 920 792 l 917 789 l 917 787 l 920 784 l 920 784 l 923 787 m 910 784 l 910 785 l 907 789 l 907 789 l 904 785 l 904 784 l 907 779 l 907 779 l 910 784 m 856 844 q 833 845 850 845 q 600 764 688 845 q 494 631 517 686 q 856 844 637 791 m 941 814 q 882 840 928 831 q 643 748 755 819 q 465 567 522 672 l 465 562 q 511 572 492 562 q 561 608 528 584 q 823 766 665 683 q 941 814 864 779 m 982 695 q 971 784 982 784 q 738 691 918 784 q 626 593 694 668 q 601 554 601 564 q 733 420 733 521 q 726 386 733 408 q 719 353 719 364 q 746 363 728 356 q 899 494 822 397 q 979 674 979 596 q 944 698 979 689 q 896 705 918 705 q 818 690 861 705 q 766 674 769 674 q 901 712 829 712 q 942 704 915 712 q 982 695 968 695 m 634 628 q 548 564 596 606 l 583 564 l 588 567 q 634 628 602 589 m 992 436 q 966 487 980 449 q 864 395 918 440 q 741 329 804 343 q 703 321 728 327 q 667 279 693 317 l 667 278 l 669 278 q 797 197 729 268 l 800 197 q 895 296 833 228 q 954 368 922 330 q 987 423 964 387 q 992 436 992 431 m 494 623 l 494 623 l 491 628 l 490 628 l 487 623 l 487 623 l 490 618 l 491 618 l 494 623 m 707 417 q 673 503 707 465 q 593 541 640 541 q 562 441 562 484 q 656 342 562 342 q 707 417 707 342 m 486 551 l 474 551 q 447 516 447 551 q 486 551 469 532 m 601 334 q 549 437 549 359 q 575 546 549 486 q 534 551 562 551 q 442 474 519 551 l 442 463 q 488 368 442 407 q 588 332 530 332 q 594 333 590 332 q 601 334 598 334 m 631 270 l 607 270 q 530 258 574 270 q 473 220 473 243 q 498 204 473 204 q 631 270 576 204 m 779 180 q 732 239 779 205 q 661 270 688 270 q 637 258 646 270 l 639 257 q 495 197 542 197 q 455 219 455 197 q 536 270 455 252 q 644 283 594 283 q 669 316 669 301 q 517 345 562 325 q 430 462 444 376 q 225 163 277 315 q 195 46 195 74 q 269 9 195 22 q 366 0 319 0 q 474 10 406 0 q 562 40 562 23 q 447 126 447 50 q 490 180 447 180 q 536 142 536 180 q 530 118 536 134 q 524 94 524 103 q 588 56 524 56 q 691 103 625 56 q 779 180 747 142 m 442 546 q 205 427 306 517 q 90 197 90 326 q 174 48 90 104 l 179 53 q 430 500 225 289 q 442 546 442 532 m 797 107 l 792 107 q 707 66 765 92 q 366 -13 502 -13 q 273 -3 316 -13 q 190 19 246 7 q 428 -251 190 -251 q 683 -142 569 -251 q 797 107 797 -33 m 1303 568 l 1303 567 l 1299 566 l 1294 567 l 1297 570 l 1300 570 l 1303 568 l 1303 568 m 1281 564 l 1278 561 l 1277 561 l 1273 564 l 1276 566 l 1277 566 l 1281 564 m 1265 559 l 1262 557 l 1260 559 l 1262 561 l 1265 559 m 1252 554 q 1241 549 1238 549 l 1240 549 l 1240 551 q 1247 554 1242 552 l 1252 554 m 1233 546 l 1230 541 l 1230 541 l 1227 546 l 1227 547 l 1230 551 l 1230 551 l 1233 547 l 1233 546 m 1222 538 l 1217 538 l 1222 541 l 1222 538 m 1209 534 l 1209 532 q 1205 524 1209 524 q 1200 526 1202 525 l 1208 534 l 1209 534 m 759 669 l 758 669 q 754 665 754 669 l 749 665 l 749 665 q 753 669 749 669 l 759 669 m 741 659 l 741 656 l 739 656 l 738 656 l 736 656 l 736 659 l 736 660 l 736 661 l 738 662 l 739 662 l 741 661 l 741 659 l 741 659 m 727 648 l 724 644 l 723 644 l 720 648 l 720 649 l 723 653 l 724 653 l 727 649 l 727 648 m 714 638 l 711 635 l 710 635 l 707 638 l 707 640 l 711 644 l 711 644 l 714 640 l 714 638 m 698 628 l 694 628 l 693 629 l 696 633 l 698 631 l 698 628 z "},"Q":{"ha":976,"x_min":16,"x_max":1223,"o":"m 1223 781 q 1168 655 1223 699 q 1137 628 1156 649 q 1118 575 1129 620 q 607 8 1027 207 q 669 -11 616 -11 q 714 0 686 -11 q 759 11 743 11 q 693 -28 749 3 q 759 -37 711 -37 q 1011 109 883 -37 l 1015 109 q 1019 100 1019 109 q 764 -68 937 -22 l 759 -73 q 882 -78 789 -78 q 1150 11 1075 -78 q 1175 64 1156 35 l 1175 54 q 1067 -76 1175 -25 q 886 -118 977 -118 q 590 -75 768 -118 q 481 -46 545 -62 q 458 -46 481 -46 q 390 -62 427 -54 q 244 -69 361 -69 q 16 -16 16 -69 q 69 22 16 14 q 190 31 122 31 q 259 68 216 56 q 246 161 246 120 q 271 305 246 225 q 589 781 370 613 l 575 781 q 382 688 475 781 q 259 505 305 612 q 249 496 255 496 q 379 709 249 612 q 620 804 499 800 q 1013 939 826 939 q 1223 781 1223 939 m 774 22 q 772 21 773 21 q 769 20 771 20 q 768 22 768 20 l 768 22 q 771 26 769 24 q 774 22 774 25 m 1201 786 q 1143 897 1201 859 q 1017 930 1094 930 q 907 916 949 930 q 1075 872 1075 913 l 1074 872 l 1072 871 q 1051 883 1059 883 q 947 903 1021 903 q 675 804 774 903 l 673 800 l 673 795 q 698 786 681 795 q 725 777 715 777 q 851 840 797 840 q 907 817 895 840 l 904 817 q 879 822 895 817 q 853 827 862 827 q 787 808 829 827 q 741 766 741 786 q 755 760 741 760 q 883 791 800 760 q 1009 823 966 823 q 1115 777 1078 823 l 1115 783 q 1104 821 1115 798 q 1093 854 1093 844 q 1134 645 1134 819 q 1183 707 1164 660 q 1201 786 1201 748 m 941 741 l 941 746 q 936 764 941 764 q 923 791 931 778 l 916 791 l 871 768 l 867 764 q 905 750 873 762 q 941 741 930 741 m 1120 705 q 1119 711 1120 707 q 1118 719 1118 716 q 1105 700 1114 716 q 1089 687 1099 687 q 1115 741 1115 709 q 1080 795 1115 774 q 1015 813 1050 813 q 932 791 932 813 q 941 768 932 793 q 979 705 953 730 q 1015 659 1008 675 q 1031 546 1031 622 q 972 332 1031 437 q 1057 466 1006 363 q 1110 612 1110 572 q 1078 605 1099 612 q 1046 597 1057 597 l 1046 602 q 1105 626 1081 610 q 1120 705 1120 636 m 792 746 l 766 746 l 766 741 q 773 732 769 737 q 792 746 783 736 m 945 680 q 911 729 945 710 q 850 746 882 746 q 813 731 838 746 q 789 706 789 717 q 804 669 789 705 q 811 588 811 650 q 688 319 811 457 q 863 469 783 361 q 945 680 945 582 m 751 714 l 751 719 q 734 736 741 736 q 659 664 705 736 q 607 561 626 610 q 676 640 631 595 q 751 714 746 709 m 706 760 l 706 764 q 655 781 684 781 q 584 722 636 781 q 511 639 547 681 q 612 707 545 663 q 661 728 614 709 q 706 760 691 741 m 954 581 q 949 588 954 588 l 941 580 q 741 230 856 377 q 881 389 819 296 q 954 581 954 498 m 777 621 q 764 687 777 687 q 673 597 755 684 q 556 369 556 476 q 567 326 556 345 q 602 302 581 302 q 610 305 608 303 q 728 446 683 365 q 777 621 777 534 m 968 591 q 958 669 968 652 q 954 658 956 669 q 941 597 948 637 q 947 599 944 599 q 962 588 956 599 q 963 578 962 585 q 965 568 965 572 q 874 351 965 473 q 707 176 806 258 q 607 86 667 142 q 610 96 608 90 l 655 140 q 545 86 602 117 q 556 68 545 77 q 563 59 562 60 l 564 59 q 574 62 566 62 q 572 53 573 59 q 572 43 572 46 q 576 31 572 35 q 738 144 647 58 q 968 591 968 361 m 675 719 q 545 646 616 700 q 441 540 473 591 q 389 454 391 459 q 363 358 363 403 q 467 246 363 246 q 589 292 554 246 q 541 351 541 307 q 541 364 541 357 l 532 359 l 532 364 q 551 458 532 407 q 621 627 588 556 q 675 719 621 627 m 829 176 q 827 177 828 177 q 819 168 819 177 q 823 167 820 168 q 829 176 829 167 m 898 498 q 751 348 814 388 q 572 244 654 288 q 437 225 535 225 q 409 237 429 225 q 347 369 347 270 q 311 243 311 310 q 323 170 311 206 q 363 112 337 125 q 408 138 370 113 q 467 163 444 163 q 536 104 500 163 l 541 104 q 589 123 557 104 q 651 160 620 142 q 707 204 685 182 q 814 344 755 252 q 898 498 870 431 m 811 163 l 628 39 q 811 163 772 105 m 623 36 q 621 38 623 38 l 619 38 q 616 36 616 38 l 616 34 q 619 31 617 31 l 620 31 q 623 34 623 31 l 623 36 m 613 30 l 613 31 q 610 35 613 35 l 610 35 q 607 31 607 35 l 607 29 q 610 24 607 24 q 613 30 613 26 m 536 21 q 534 22 535 22 l 532 21 l 535 18 q 536 21 536 19 m 503 91 l 503 96 q 487 131 503 117 q 450 145 471 145 q 372 109 417 145 q 437 86 387 86 l 481 86 q 503 91 490 86 m 527 28 q 524 31 526 30 l 524 31 q 521 28 521 30 l 521 26 q 524 21 521 21 q 527 26 527 22 l 527 28 m 524 41 q 511 77 524 69 q 433 76 425 77 q 363 91 400 78 q 358 88 366 89 q 350 88 354 87 l 350 96 q 281 203 292 150 q 264 109 264 177 q 269 73 264 100 l 271 68 q 288 69 279 69 q 444 46 348 69 q 503 31 464 39 q 511 31 503 31 q 524 41 524 31 m 532 -31 q 529 -28 531 -29 l 528 -28 q 526 -31 526 -29 l 526 -33 q 528 -37 526 -37 l 529 -37 q 532 -33 532 -37 l 532 -31 m 520 -27 q 515 -26 519 -26 l 513 -26 q 510 -27 510 -26 q 516 -31 510 -30 q 520 -27 519 -30 m 490 -16 q 474 -12 481 -12 l 471 -12 q 458 -16 463 -12 q 468 -18 462 -16 q 477 -19 474 -19 l 484 -19 q 490 -16 487 -19 m 454 -5 l 450 -1 q 286 45 342 45 q 276 39 278 45 l 269 48 q 211 24 222 48 q 235 22 219 24 q 259 21 251 21 q 268 22 262 21 q 276 22 273 22 q 297 16 291 22 l 446 -11 q 454 -5 450 -10 m 385 -19 q 324 -5 347 -5 q 374 -19 340 -19 l 385 -19 m 437 -32 q 355 -28 431 -28 q 302 -1 351 -28 q 219 13 276 13 q 206 11 216 13 q 201 -3 201 6 q 216 -37 201 -22 q 251 -51 231 -51 l 296 -51 q 437 -32 377 -51 m 219 -56 q 185 16 185 -27 l 90 16 q 28 -14 28 16 q 83 -48 28 -39 q 159 -54 121 -51 q 196 -56 186 -56 l 219 -56 m 1093 857 q 1090 854 1092 854 l 1089 854 q 1086 857 1086 855 l 1086 858 q 1085 858 1086 858 l 1084 858 q 1081 862 1082 858 l 1081 863 q 1080 863 1081 863 l 1079 863 q 1076 865 1077 863 l 1076 867 q 1080 871 1077 871 l 1080 871 q 1083 867 1082 871 q 1084 867 1083 867 l 1085 867 q 1088 863 1087 867 l 1088 862 q 1089 863 1088 862 l 1090 863 q 1093 859 1092 863 l 1093 857 m 1062 664 q 1059 660 1062 660 l 1059 660 q 1056 664 1056 660 l 1056 665 q 1059 669 1056 669 l 1059 669 q 1062 665 1062 669 l 1062 664 m 913 811 q 911 808 913 808 l 910 808 q 907 811 907 809 l 907 812 q 910 816 908 816 l 911 816 q 913 812 913 816 l 913 811 m 1046 660 l 1046 659 q 1043 656 1046 656 l 1040 660 q 1042 665 1040 665 l 1042 665 q 1046 660 1046 665 m 531 350 q 529 347 530 348 q 526 348 526 347 l 526 349 q 528 351 526 351 l 530 351 q 531 350 531 351 m 531 326 q 529 324 530 324 l 528 324 q 526 326 526 325 l 526 327 q 529 329 526 329 q 531 326 530 328 m 527 303 q 525 301 526 302 q 522 300 524 301 q 521 302 521 301 l 521 304 q 522 307 521 307 q 525 305 523 306 q 527 303 526 304 m 597 79 l 597 79 q 596 77 597 78 q 594 77 595 77 l 593 78 q 597 83 595 83 q 597 79 597 82 m 585 68 l 581 64 l 585 73 l 585 68 m 284 24 q 281 31 284 26 l 281 35 l 284 31 l 284 24 z "},"R":{"ha":1485,"x_min":16,"x_max":1961,"o":"m 1485 923 l 1444 898 l 1438 898 l 1482 923 l 1485 923 m 1303 166 q 1300 161 1301 163 q 1297 164 1297 162 l 1297 165 q 1300 168 1297 168 l 1303 166 m 1961 804 q 1872 627 1961 699 q 1681 561 1788 561 q 1640 566 1640 561 l 1638 566 l 1638 567 q 1841 627 1753 567 q 1939 805 1939 696 q 1926 864 1939 840 q 1821 944 1896 922 q 1794 950 1799 950 q 1599 928 1650 950 q 1509 882 1570 916 q 1433 829 1433 840 q 1434 826 1433 827 q 1482 698 1482 741 q 1428 559 1482 623 q 1305 471 1379 500 q 1214 442 1263 460 q 1260 328 1260 390 q 1246 257 1260 293 q 1187 105 1219 194 q 1182 81 1186 96 q 1187 73 1181 73 q 1292 153 1238 73 q 1251 94 1292 127 q 1183 60 1211 60 q 1209 45 1188 45 q 1217 46 1212 45 q 1225 48 1222 48 q 1321 121 1267 74 q 1412 201 1367 161 q 1438 257 1438 222 q 1396 305 1438 305 q 1282 244 1336 305 q 1219 126 1233 190 l 1219 142 q 1278 261 1219 202 q 1398 319 1337 319 q 1461 256 1461 319 q 1372 99 1461 172 q 1201 28 1286 28 q 1097 125 1097 28 q 1149 260 1097 173 q 1201 395 1201 347 q 1200 407 1201 399 q 1200 418 1200 414 q 1129 437 1190 437 l 1097 437 q 1045 371 1084 418 q 990 311 1002 320 q 861 176 944 243 q 863 143 861 165 q 866 111 866 121 q 866 77 866 77 q 828 21 865 50 q 765 -8 792 -8 l 673 -8 q 629 4 665 -8 q 575 16 593 16 q 568 16 568 16 q 482 -1 540 9 q 276 -16 388 -16 l 195 -16 q 157 -12 180 -16 q 119 -7 128 -8 q 16 68 16 1 q 171 153 16 153 q 344 127 243 153 l 410 111 l 415 111 q 418 124 415 115 q 421 136 421 132 q 414 144 421 142 q 438 163 419 144 q 477 182 457 182 q 511 163 504 182 q 514 121 514 153 q 666 140 608 121 q 797 219 734 161 q 810 232 802 223 l 741 338 q 728 348 735 348 q 691 345 715 348 q 653 342 666 342 q 610 343 616 342 q 564 378 578 353 q 536 430 550 404 q 494 487 515 458 q 476 556 476 516 q 487 616 476 587 q 646 822 532 739 q 886 926 749 898 l 886 930 q 680 882 744 930 q 615 836 658 867 q 505 697 564 788 q 471 640 494 677 q 460 635 467 635 q 524 755 460 671 q 853 950 671 950 q 930 941 904 950 q 1025 945 977 945 q 1312 904 1201 945 q 1339 895 1321 901 q 1361 882 1345 890 q 1399 895 1377 882 q 1434 909 1421 909 q 1415 886 1434 894 q 1386 869 1391 876 l 1391 869 l 1425 888 l 1430 888 l 1396 866 q 1417 845 1409 850 q 1748 966 1583 966 q 1891 928 1832 966 q 1961 804 1961 883 m 380 180 q 377 176 378 178 q 374 177 374 176 l 374 178 q 377 182 374 182 l 380 180 m 406 149 l 403 149 l 397 153 l 403 153 q 406 149 404 152 m 1353 838 q 1351 840 1353 840 q 1346 836 1348 840 q 1349 835 1348 835 q 1353 838 1353 836 m 1340 828 q 1337 832 1339 831 q 1334 827 1335 831 l 1334 826 q 1340 828 1338 826 m 1158 926 q 1108 933 1135 933 q 982 931 1011 933 q 965 926 975 929 l 995 903 q 1033 910 1008 903 q 1070 918 1058 918 q 1114 922 1085 918 q 1158 926 1143 926 m 1375 823 q 1361 836 1376 836 l 1358 836 q 1153 594 1240 755 q 1208 655 1158 600 q 1375 823 1284 724 m 1396 747 q 1391 795 1396 786 l 1383 787 q 1259 653 1365 779 q 1136 495 1156 530 l 1137 492 q 1128 481 1137 490 q 1135 481 1131 481 q 1159 474 1143 481 q 1185 467 1175 467 q 1235 481 1211 467 q 1396 747 1396 578 m 1334 859 q 1145 898 1282 898 q 1019 878 1048 898 l 1019 873 q 1034 842 1025 863 q 1044 732 1044 808 l 1049 732 q 1094 748 1083 748 q 1102 747 1097 748 q 1110 746 1107 746 l 1110 741 q 1042 707 1048 726 q 1024 633 1036 680 q 975 546 1010 598 q 1011 495 975 524 q 1097 616 1047 546 q 1331 854 1178 729 l 1334 859 m 1008 777 l 1008 797 q 985 873 1008 873 q 860 823 930 873 q 765 724 797 777 l 765 719 q 916 766 838 766 l 949 766 q 968 754 951 766 q 997 741 985 741 l 1000 741 q 1004 754 1000 741 q 1008 777 1008 766 m 1412 180 l 1412 182 q 1337 115 1388 156 q 1260 48 1282 70 q 1351 103 1293 56 q 1412 180 1412 153 m 995 722 q 909 757 995 757 q 756 702 802 757 q 714 543 714 652 l 714 490 q 720 454 714 475 q 738 427 728 427 l 739 427 l 741 430 q 957 623 915 479 q 979 672 960 633 q 995 722 995 703 m 970 895 q 950 913 970 904 q 918 923 930 923 q 871 913 908 923 q 618 787 730 878 q 484 553 484 679 q 529 452 484 492 q 551 527 534 452 q 652 695 569 609 q 970 895 766 813 m 806 799 q 637 656 705 738 q 554 457 554 556 l 554 437 q 626 414 569 414 q 701 418 682 414 l 703 420 l 703 422 l 701 423 q 688 481 688 485 l 688 535 q 720 680 688 617 q 806 799 743 727 m 1000 474 l 1000 486 l 962 529 q 765 363 850 401 q 788 301 765 344 q 827 248 812 259 q 1000 474 1000 451 m 810 433 l 741 410 q 746 390 741 396 q 810 433 795 408 m 720 382 l 711 399 l 615 399 q 586 407 605 399 q 557 415 568 415 q 574 382 557 397 q 610 368 591 368 l 682 368 q 714 375 695 368 l 720 382 m 853 77 l 853 134 q 845 161 853 149 q 607 31 728 66 l 607 26 q 720 0 695 0 q 853 77 823 0 m 823 201 l 823 204 q 505 105 679 109 q 500 81 500 100 q 502 77 500 79 l 502 73 l 574 43 q 631 59 597 43 q 722 113 665 75 q 802 176 779 152 q 823 201 808 184 m 532 26 q 455 53 477 33 q 410 88 439 68 q 176 140 285 140 l 120 140 q 94 135 114 140 q 28 68 28 117 q 231 -3 28 -3 q 269 -2 248 -3 q 292 -1 290 -1 l 395 -2 q 532 26 473 -2 m 1145 486 l 1142 482 q 1141 485 1141 484 l 1141 486 q 1142 489 1141 488 l 1143 489 q 1145 486 1145 488 m 706 674 l 706 672 q 701 663 706 663 q 699 664 700 663 q 697 665 697 665 q 705 675 697 675 q 706 674 706 675 m 680 652 q 635 604 665 629 q 680 652 655 626 z "},"S":{"ha":1251,"x_min":68,"x_max":1709,"o":"m 1709 764 q 1619 650 1709 709 q 1482 575 1584 626 q 1452 508 1472 552 q 1103 269 1375 355 q 984 145 1064 227 q 731 16 909 71 q 447 -33 570 -33 q 199 12 298 -33 q 68 206 68 74 q 255 474 68 373 q 593 559 410 559 q 654 554 613 559 q 715 549 695 549 q 751 562 730 549 q 864 783 742 709 q 1120 844 963 844 q 1122 843 1122 843 l 1126 843 l 1142 842 l 1209 837 q 1246 821 1222 832 q 1329 760 1280 803 q 1381 733 1360 733 q 1462 780 1377 733 q 1602 827 1547 827 q 1709 764 1709 827 m 1669 800 l 1669 801 q 1666 805 1668 805 l 1666 805 q 1663 801 1663 805 l 1663 800 q 1666 797 1664 797 l 1666 797 q 1669 800 1669 798 m 1631 818 l 1584 818 q 1564 813 1573 818 q 1617 810 1572 810 q 1631 818 1628 810 m 1691 766 q 1671 799 1691 799 q 1579 660 1671 722 l 1573 656 q 1508 606 1550 640 q 1618 672 1556 624 q 1691 766 1691 729 m 1551 792 q 1411 715 1476 792 l 1413 712 q 1551 792 1498 771 m 1592 766 q 1578 789 1592 789 q 1504 751 1556 789 q 1439 695 1457 718 q 1449 669 1439 684 q 1465 644 1463 648 q 1478 606 1474 621 q 1553 672 1513 616 q 1592 766 1592 729 m 1372 720 l 1367 725 l 1362 725 l 1367 720 l 1372 720 m 1400 703 l 1398 703 q 1385 690 1390 698 l 1388 690 q 1400 703 1393 694 m 1466 602 q 1426 682 1466 653 l 1400 656 l 1400 652 q 1411 626 1411 630 q 1406 613 1411 615 l 1388 644 q 1320 567 1343 600 q 1286 524 1310 552 l 1289 524 q 1417 572 1326 524 q 1461 593 1432 578 q 1466 602 1466 595 m 1303 764 q 1118 827 1255 827 q 970 792 1038 827 q 882 677 888 749 q 1187 772 1004 772 q 1243 767 1206 772 q 1299 762 1280 762 q 1303 764 1302 762 m 1334 521 l 1324 521 q 1302 514 1318 521 q 1278 508 1286 508 l 1273 503 q 1334 521 1285 502 m 979 812 l 979 814 q 977 818 979 818 l 976 818 q 972 814 973 818 l 972 812 q 975 810 973 810 l 977 810 q 979 812 979 810 m 1351 709 q 1309 744 1351 730 q 1247 754 1276 754 l 1116 754 q 978 718 1066 754 q 877 639 877 678 q 896 606 877 606 q 942 608 911 606 q 989 610 973 610 q 1137 559 1124 610 l 1136 557 l 1133 559 q 1124 566 1130 562 q 1107 575 1118 570 q 994 593 1105 593 l 932 593 q 895 585 905 593 q 898 580 895 583 q 993 511 939 529 q 1109 497 1034 497 q 1183 516 1168 497 q 1244 593 1197 532 q 1351 709 1280 637 m 1465 567 l 1461 567 q 1329 498 1417 543 q 1284 486 1324 496 q 1244 465 1254 477 l 1120 298 q 1116 291 1119 297 q 1158 303 1118 290 q 1344 401 1263 338 q 1465 567 1442 477 m 1168 490 l 1141 490 q 1103 488 1128 490 q 1065 486 1078 486 q 1114 481 1089 481 q 1163 486 1124 481 l 1168 490 m 966 810 q 920 792 961 811 q 762 599 762 720 q 766 572 762 572 q 840 593 772 572 q 966 810 840 734 m 992 460 q 856 559 904 481 q 848 575 856 567 q 835 573 844 575 q 823 572 827 572 q 772 554 789 559 l 772 549 q 779 534 778 540 q 861 486 821 509 q 952 460 908 460 l 992 460 m 1142 452 l 891 452 q 907 388 907 422 q 873 252 907 307 q 890 252 879 252 q 907 251 901 251 q 1002 260 957 251 q 1137 444 1044 298 q 1139 447 1137 445 q 1142 452 1140 450 m 898 404 q 895 409 898 408 q 893 406 893 408 l 893 404 q 895 401 893 401 q 898 404 897 402 m 759 541 l 759 546 l 758 546 q 746 541 747 546 l 759 541 m 891 414 q 850 469 891 446 q 714 524 752 524 q 677 498 698 524 q 891 414 831 494 m 869 278 l 844 252 l 846 252 l 848 251 q 869 278 856 251 m 886 351 q 719 457 886 457 q 642 449 658 457 q 613 382 613 435 q 684 282 613 320 q 810 251 742 251 q 857 291 828 251 q 886 351 886 331 m 840 235 l 827 235 q 648 153 755 185 q 840 235 765 153 m 792 239 q 738 252 781 242 q 613 332 640 277 q 606 355 606 348 l 606 387 q 608 413 606 395 q 610 439 610 431 q 549 414 596 439 q 388 193 388 326 q 440 170 388 179 q 505 163 478 163 l 511 163 l 498 176 q 502 184 501 180 l 503 184 q 529 176 519 178 q 528 196 528 186 q 580 256 528 256 q 613 224 613 256 q 586 192 613 192 q 561 212 570 192 q 551 232 553 232 q 536 198 536 232 q 546 166 536 174 l 562 166 q 685 191 601 166 q 792 239 777 217 m 984 243 l 976 243 q 920 239 957 243 q 866 235 884 235 q 644 138 762 138 q 609 139 632 138 q 575 140 587 140 q 562 138 564 140 q 411 161 493 139 q 393 166 392 166 l 388 166 q 477 60 395 98 q 621 31 543 31 q 781 66 707 31 q 928 166 869 108 q 695 107 818 107 q 585 125 610 107 q 606 121 591 126 q 626 115 621 115 q 821 135 752 115 q 984 243 916 163 m 687 524 l 687 529 q 599 534 644 534 q 270 458 423 534 q 81 210 81 366 q 203 28 81 87 q 433 -18 296 -18 q 648 13 559 -18 q 482 37 555 9 q 368 150 392 73 q 358 184 362 168 q 311 278 311 244 q 332 328 311 328 q 326 306 332 319 q 319 284 319 292 q 358 204 319 239 q 648 495 375 425 l 687 524 m 580 127 l 576 126 l 575 127 l 575 128 q 576 131 576 131 l 577 131 q 580 127 580 130 m 575 132 q 572 127 574 127 l 572 127 q 568 132 569 127 l 568 133 q 572 138 569 138 l 572 138 q 575 133 574 138 l 575 132 z "},"T":{"ha":1294,"x_min":50,"x_max":1848,"o":"m 1848 677 q 1800 725 1832 694 q 1696 764 1751 764 q 1684 760 1691 764 q 1672 755 1676 755 q 1539 746 1643 746 q 1421 679 1501 746 q 1319 576 1352 621 l 1076 244 q 1042 201 1064 231 q 1051 180 1042 190 q 1072 56 1069 131 q 1196 103 1120 56 q 1268 150 1272 150 l 1272 150 q 1118 43 1202 75 q 1076 31 1104 39 q 1057 -16 1067 26 q 1046 -67 1055 -33 q 882 -281 1004 -198 q 625 -361 764 -361 q 284 -11 305 -361 q 149 14 237 -3 q 50 94 50 37 q 284 176 50 176 q 275 251 275 203 q 334 401 275 332 q 471 490 391 469 q 566 508 517 503 q 633 559 581 518 q 711 612 667 586 q 745 631 723 618 q 768 660 752 637 q 1102 802 854 782 q 1169 805 1121 804 l 1438 814 q 1613 810 1573 814 q 1655 803 1620 809 q 1690 797 1688 797 q 1724 806 1706 797 q 1750 814 1742 814 l 1754 814 q 1731 784 1749 802 q 1848 677 1848 742 m 1105 772 q 1098 772 1103 772 q 1091 773 1093 773 q 883 723 975 773 q 883 724 883 724 l 883 726 q 880 730 883 730 l 880 730 q 877 726 877 730 l 877 724 q 879 721 877 722 l 875 718 q 876 720 876 719 l 876 722 q 872 725 875 725 l 871 725 q 869 722 869 725 l 869 720 q 871 718 869 718 l 873 718 l 873 718 q 817 669 838 696 q 1105 772 955 739 m 865 715 l 865 717 q 863 720 865 720 l 862 720 q 859 717 860 720 l 859 715 q 862 712 860 713 l 863 712 q 865 715 865 713 m 1489 743 l 1263 768 q 1246 768 1257 769 q 1176 758 1234 768 q 791 635 922 713 q 765 564 765 621 q 810 490 765 511 q 833 482 827 482 l 873 482 q 1141 618 1015 482 q 1153 642 1153 632 q 1065 684 1153 684 q 939 648 1006 684 q 1003 679 951 664 q 1076 692 1049 692 q 1161 648 1141 692 q 1198 685 1173 667 l 1200 680 l 1200 674 q 1143 580 1170 614 q 899 444 1040 444 q 786 474 820 444 q 739 538 739 516 l 739 607 q 668 565 729 607 q 594 508 608 524 q 804 334 783 494 q 1003 257 922 328 q 1118 420 1048 311 q 1228 581 1190 533 q 1377 712 1297 665 q 1417 730 1407 730 q 1425 725 1425 730 q 1417 717 1425 717 q 1356 677 1367 686 q 1310 623 1321 650 l 1373 679 l 1358 656 q 1489 743 1411 696 m 854 712 q 791 656 827 698 q 854 712 812 674 m 773 628 q 765 612 765 623 l 765 610 l 773 628 m 764 600 l 764 602 q 761 606 763 606 l 760 606 q 757 602 758 606 l 757 600 q 760 597 758 597 l 761 597 q 764 600 764 598 m 1046 56 l 1046 109 q 1025 184 1046 171 q 989 157 1025 184 q 854 68 917 102 q 1002 53 926 53 l 1031 53 q 1046 56 1038 53 m 990 239 q 922 299 990 273 q 824 321 865 321 l 804 321 q 708 184 786 232 q 543 142 640 142 l 543 138 l 759 86 q 845 117 789 86 q 977 225 898 145 q 990 239 982 230 m 778 318 q 647 265 721 318 q 553 158 573 212 q 642 170 606 158 q 734 223 697 186 q 778 318 778 266 m 811 91 l 786 81 l 792 81 q 811 91 806 81 m 778 334 l 778 347 q 715 441 778 409 q 597 467 667 467 q 568 464 587 467 q 540 462 548 462 q 380 257 485 429 q 338 176 338 189 l 338 171 q 458 155 414 155 l 467 155 q 440 172 463 161 q 422 192 422 180 l 423 192 l 425 193 q 467 176 450 180 q 488 201 468 177 q 517 214 500 214 q 537 208 526 214 q 554 201 549 201 l 556 201 q 696 309 623 278 q 778 334 725 312 m 505 449 l 505 454 q 474 447 489 454 q 300 229 300 372 q 318 171 300 171 l 323 171 q 505 449 393 331 m 701 78 l 540 120 q 535 120 539 120 q 527 100 527 115 l 527 99 q 680 73 568 73 q 701 78 692 73 m 752 60 q 727 68 747 68 q 690 66 714 68 q 653 64 665 64 q 563 79 617 64 q 527 91 524 91 q 509 43 509 91 l 509 35 q 545 31 530 31 l 598 31 q 752 60 698 31 m 521 140 l 521 142 q 518 145 520 145 l 517 145 q 514 142 515 145 l 514 140 q 517 138 515 138 l 518 138 q 521 140 521 138 m 505 146 l 505 146 q 501 149 504 149 l 499 149 q 496 147 496 149 l 496 146 l 496 145 q 502 144 499 144 q 505 146 505 144 m 492 150 l 492 151 q 489 155 492 155 l 488 155 q 486 151 486 155 l 486 150 q 488 145 486 145 l 489 145 q 492 150 492 145 m 514 125 q 502 130 509 127 l 492 130 q 505 117 496 125 l 507 117 l 508 115 l 509 117 q 514 125 513 117 m 574 14 q 545 16 564 14 q 516 18 526 18 l 505 18 l 505 5 q 574 14 549 5 m 1043 26 q 817 48 993 26 q 799 48 808 49 q 705 23 763 38 q 505 -11 603 -1 q 553 -126 505 -86 q 517 -100 536 -126 q 505 -75 513 -92 q 489 -11 501 -54 l 303 -11 q 626 -353 303 -353 q 867 -275 758 -353 q 1021 -72 976 -197 q 1043 26 1043 -9 m 505 104 q 462 138 488 130 q 404 150 433 144 q 349 155 382 155 l 331 155 q 326 138 326 145 q 395 76 326 114 q 489 40 460 40 l 492 43 l 505 104 m 490 14 q 489 22 490 18 q 323 112 385 50 l 318 112 q 305 25 305 55 l 305 5 q 323 1 323 1 l 471 1 q 490 14 490 1 m 305 112 q 288 158 305 145 q 267 159 281 158 q 246 160 253 160 q 104 142 142 160 q 62 94 62 123 q 151 26 62 54 q 275 5 220 5 l 288 5 q 305 112 305 102 m 883 723 q 880 720 882 720 l 880 720 q 879 721 879 720 l 883 723 m 935 643 q 932 640 934 641 l 930 640 q 928 643 928 641 l 928 645 q 931 648 928 648 l 932 648 q 935 645 934 648 l 935 643 m 923 640 l 923 640 q 921 635 923 635 q 917 637 919 635 q 921 642 919 642 q 923 640 922 642 m 913 631 q 911 628 913 628 l 910 628 q 907 631 907 628 l 907 632 q 910 635 908 635 l 911 635 q 913 632 913 635 l 913 631 m 898 623 l 898 622 q 893 618 897 618 l 891 620 l 893 623 l 896 625 q 898 623 897 624 m 885 615 l 885 614 q 882 609 884 609 q 878 612 880 610 q 883 616 880 616 q 885 615 884 616 m 868 600 l 867 597 l 865 597 l 864 597 l 863 597 l 862 600 l 862 600 l 863 602 l 864 603 l 865 603 l 867 602 l 868 600 l 868 600 m 846 585 l 846 584 q 842 580 846 580 l 840 581 l 842 585 l 844 586 q 846 585 846 586 m 824 562 q 821 559 823 559 l 821 559 q 818 562 818 559 l 818 564 q 821 567 819 567 l 821 567 q 824 564 824 567 l 824 562 z "},"U":{"ha":1147,"x_min":57,"x_max":1433,"o":"m 1433 910 q 1365 826 1433 882 q 1278 749 1284 759 l 1282 745 l 804 229 q 751 104 751 172 q 764 66 751 66 q 814 88 779 66 q 856 125 849 110 q 878 172 863 140 q 981 304 916 246 q 1128 372 1057 372 q 1183 338 1183 372 l 1183 313 q 1063 111 1183 203 q 838 14 955 26 l 836 11 q 829 -41 829 -9 q 831 -90 829 -80 q 821 -71 821 -80 l 821 11 q 790 21 819 14 q 755 28 762 28 q 736 26 749 28 q 717 24 724 24 q 678 41 694 24 q 661 80 661 58 q 703 173 661 105 q 764 270 733 222 q 498 53 623 139 q 399 19 450 19 q 334 104 334 19 q 401 237 334 159 l 728 615 q 799 751 799 696 q 693 831 799 831 q 695 802 693 821 q 696 773 696 783 q 675 688 696 728 q 635 610 639 618 l 728 688 l 728 685 q 684 639 713 669 q 597 566 668 624 q 516 486 543 522 q 484 436 506 469 q 201 273 369 273 q 64 374 78 273 q 57 441 57 425 q 64 481 57 461 q 109 583 64 509 q 551 910 306 910 q 635 896 604 910 q 663 883 648 883 q 683 885 669 883 q 703 888 696 888 l 727 888 q 844 833 818 888 q 851 813 851 819 q 835 661 851 719 q 759 527 814 587 l 467 210 q 444 177 459 199 q 403 123 423 150 q 378 60 378 86 q 382 52 378 56 q 396 51 389 51 q 568 126 498 51 l 1259 859 q 1281 871 1267 869 q 1345 898 1312 875 q 1412 925 1386 925 q 1433 910 1433 925 m 1406 910 l 1402 916 l 1396 916 q 1335 878 1376 903 l 1339 873 l 1340 873 l 1340 871 l 1303 824 q 1406 910 1351 856 m 821 805 q 730 869 821 869 l 703 869 q 821 805 786 848 m 746 838 q 745 838 746 838 l 743 838 q 741 838 742 838 q 743 836 742 838 q 745 833 743 835 q 746 838 746 835 m 736 840 q 687 856 715 856 q 724 840 687 840 l 736 840 m 663 846 q 648 859 659 851 q 639 860 644 860 q 507 810 594 860 l 509 810 l 509 808 l 511 810 q 554 823 526 814 q 663 846 591 827 m 556 851 q 553 853 555 853 l 551 851 q 553 848 551 849 l 556 851 m 502 806 q 499 810 501 810 l 498 810 q 494 806 494 810 l 494 804 q 498 799 494 802 l 498 799 q 501 804 501 799 l 502 806 m 1061 633 l 652 195 q 644 180 652 195 q 863 397 747 267 q 1061 633 900 439 m 626 878 q 548 893 600 893 q 197 688 377 893 l 201 688 q 623 873 391 858 l 626 878 m 1175 318 q 1128 361 1175 361 q 981 288 1061 361 q 883 150 909 220 l 883 144 q 965 214 953 214 l 968 214 q 971 210 970 213 l 861 98 q 838 27 838 75 q 1054 123 937 27 q 1175 318 1175 222 m 675 799 q 665 832 675 832 q 366 709 500 832 q 316 658 332 678 q 307 606 307 646 q 309 578 307 582 q 332 545 315 561 q 369 527 352 527 l 435 527 q 521 562 521 527 q 439 658 521 658 q 405 648 427 658 q 370 639 383 639 l 369 639 q 442 666 388 666 q 538 564 527 666 q 631 669 604 629 q 675 799 675 734 m 489 522 q 420 517 465 517 q 378 519 404 517 q 355 527 372 519 q 298 613 298 551 q 298 633 298 623 q 254 519 254 602 q 316 444 254 444 q 410 467 359 444 q 489 522 460 490 m 543 846 q 439 818 508 846 q 197 659 297 758 q 77 408 77 539 q 198 283 77 283 q 358 340 276 283 q 479 463 428 389 l 476 463 q 324 420 390 420 q 291 421 307 420 q 257 437 275 423 q 237 467 237 452 q 267 615 237 561 q 543 846 330 726 m 838 83 q 781 48 819 71 q 777 41 779 46 q 817 28 802 28 q 826 33 821 28 l 838 83 m 732 53 q 715 98 726 68 q 703 58 703 77 q 709 51 703 51 l 719 51 q 725 52 721 51 q 732 53 729 53 m 682 90 q 680 94 682 94 l 678 94 q 675 90 676 94 l 675 89 q 678 83 676 83 l 679 83 q 682 88 682 83 l 682 90 z "},"V":{"ha":760,"x_min":54,"x_max":2102,"o":"m 1638 837 q 1604 800 1638 800 q 1573 826 1573 800 q 1600 851 1573 851 q 1613 850 1605 851 q 1626 848 1622 848 l 1626 869 q 1638 837 1638 859 m 2102 724 q 1929 467 2102 564 q 1610 387 1784 387 q 1322 554 1322 387 q 1449 733 1322 667 q 1677 787 1553 787 q 1889 711 1823 787 q 1907 665 1907 690 l 1907 652 q 1685 766 1867 766 q 1463 715 1571 766 q 1332 551 1332 652 q 1430 433 1332 469 q 1597 409 1497 409 q 1910 480 1765 409 q 2091 715 2091 568 q 1767 907 2091 907 q 1609 890 1627 907 q 1623 872 1615 884 q 1605 879 1616 872 q 1584 886 1594 886 q 1578 886 1578 886 q 1518 871 1565 884 q 1225 733 1367 826 q 1109 652 1206 721 q 1025 593 1076 631 l 916 486 l 916 490 l 535 145 q 545 149 538 146 q 583 174 545 149 q 608 195 588 178 q 858 428 715 286 q 675 243 798 365 q 559 153 633 203 q 509 120 541 142 q 456 64 483 92 q 397 26 418 26 q 374 53 374 26 q 455 243 374 126 q 580 418 517 331 q 629 511 612 477 q 265 404 446 404 l 229 404 q 177 430 206 414 q 90 493 115 465 q 54 593 54 534 q 203 798 54 720 q 468 864 328 864 q 570 856 541 864 q 642 810 605 846 l 642 810 q 645 807 645 809 l 647 805 l 647 805 q 650 802 650 804 q 675 774 661 791 q 711 722 711 736 q 706 702 711 715 q 701 682 701 689 q 720 665 701 665 l 727 665 q 829 765 817 755 q 954 826 901 826 q 987 794 987 826 q 928 705 987 745 q 833 634 887 677 l 481 179 q 417 107 458 155 q 404 83 404 91 l 404 81 q 561 197 467 123 l 739 378 q 829 468 766 406 q 924 546 829 468 l 1115 703 q 1160 728 1134 713 q 1281 805 1199 755 q 1451 886 1342 838 q 1773 950 1632 950 q 1992 904 1906 950 q 2102 724 2102 845 m 975 797 q 950 813 975 813 q 854 763 911 813 q 787 673 798 712 l 791 673 q 812 676 800 673 q 778 656 783 661 l 783 655 q 890 698 836 655 l 885 690 q 937 726 907 697 q 970 778 970 758 l 970 779 l 903 715 q 851 695 895 715 q 903 733 873 709 q 968 784 925 749 q 975 797 975 790 m 650 800 l 650 801 l 650 802 l 647 805 l 646 805 q 645 804 646 805 q 644 801 645 802 l 644 800 q 646 797 644 797 l 647 797 q 650 800 648 800 l 650 800 m 645 804 l 645 806 l 645 807 l 642 810 l 642 810 q 639 806 639 810 l 639 804 q 642 800 640 800 l 642 800 q 644 801 643 800 l 644 801 q 645 804 644 804 m 653 795 l 653 796 q 650 800 652 800 l 650 800 l 650 800 q 648 797 650 797 l 647 797 l 647 796 l 647 795 q 650 792 648 792 l 650 792 q 653 795 653 793 m 637 808 l 637 809 q 635 813 637 813 l 633 813 q 633 812 633 813 l 633 814 q 629 818 632 818 l 629 818 q 626 814 627 818 l 626 812 q 629 810 627 810 l 630 810 q 631 810 631 810 l 631 809 l 631 808 q 633 805 631 805 l 635 805 q 637 808 637 806 m 658 787 l 658 789 q 655 792 657 792 l 654 792 q 652 789 652 792 l 652 787 q 654 784 652 785 l 655 784 q 658 787 658 785 m 662 781 q 660 784 662 782 q 656 781 656 784 l 656 781 q 658 779 656 779 q 660 779 659 779 q 662 781 661 779 m 621 818 q 618 819 620 819 l 616 818 q 618 814 616 816 q 621 818 621 816 m 612 823 q 610 824 612 824 l 610 824 q 608 823 608 824 l 608 822 q 610 819 609 821 q 612 823 612 821 l 612 823 m 667 741 l 667 759 q 663 766 667 765 l 663 759 q 667 741 665 751 m 826 644 q 765 631 825 644 l 719 532 l 826 644 m 557 797 q 538 805 553 805 l 517 805 q 400 779 463 805 q 302 711 335 751 q 368 736 308 717 q 437 765 405 748 q 557 797 494 794 m 629 669 q 574 784 588 744 q 420 749 479 784 q 540 717 540 749 l 540 715 q 462 733 513 733 q 338 637 338 733 q 351 589 338 610 q 390 562 365 562 q 474 586 456 562 q 548 703 498 626 l 549 701 l 551 701 q 519 601 551 665 l 519 595 q 577 625 535 595 q 629 669 617 652 m 706 631 q 678 646 700 636 q 650 656 656 656 l 642 656 q 521 580 589 608 q 489 554 495 569 l 492 553 q 544 568 509 553 q 595 593 570 581 q 484 536 574 565 q 477 531 481 534 q 476 532 476 531 l 387 442 q 642 536 553 470 q 706 631 646 539 m 604 826 q 477 848 568 848 q 219 785 345 848 q 67 589 67 708 q 157 460 67 498 q 158 548 157 537 q 195 626 164 585 q 347 762 251 701 q 536 829 452 829 q 604 826 530 829 m 446 551 q 439 553 446 553 l 436 553 q 429 551 433 553 q 437 546 429 546 q 446 551 446 546 m 366 556 q 348 588 366 563 q 331 635 331 612 q 361 715 331 671 q 285 685 326 715 q 241 618 241 652 q 366 556 241 556 m 241 651 l 241 652 q 238 656 241 656 l 237 656 q 235 652 235 656 l 235 651 q 237 647 235 647 l 238 647 q 241 651 241 647 m 430 532 q 349 547 408 544 q 269 560 290 550 q 233 629 233 578 q 233 644 233 635 q 177 502 177 602 q 199 447 177 460 q 260 437 215 437 q 430 532 343 437 m 502 132 q 468 107 490 124 q 470 108 469 107 q 502 132 486 115 m 468 94 l 468 98 q 388 32 388 71 q 417 43 406 32 q 468 94 436 60 m 851 695 q 812 676 829 682 q 851 695 831 686 m 633 812 q 631 810 632 811 q 633 812 631 812 m 628 613 q 625 608 627 608 l 624 608 q 621 613 622 608 l 621 614 q 624 618 622 618 l 625 618 q 628 614 627 618 l 628 613 m 608 601 q 604 595 608 596 l 602 597 q 606 602 604 602 q 608 601 608 602 z "},"W":{"ha":992,"x_min":54,"x_max":2338,"o":"m 2338 715 q 2166 459 2338 555 q 1848 378 2022 378 q 1663 410 1737 378 q 1562 549 1562 454 q 1689 729 1562 662 q 1919 784 1794 784 q 2145 673 2114 784 q 2150 652 2148 663 l 2145 647 q 1925 764 2102 764 q 1702 712 1810 764 q 1570 548 1570 649 q 1668 427 1570 465 q 1836 401 1737 401 q 2147 475 1997 401 q 2329 707 2329 565 q 2005 904 2329 904 q 1554 774 1799 904 q 1567 749 1567 772 q 1524 698 1567 698 q 1478 724 1503 698 q 1436 700 1470 724 q 1289 593 1383 666 l 826 153 q 752 83 801 130 q 675 21 706 35 q 635 8 661 17 l 627 5 q 624 4 627 5 q 606 0 613 0 q 599 9 599 0 l 599 13 l 625 46 q 610 45 620 46 q 595 43 600 43 q 586 46 603 43 q 608 64 599 59 q 615 59 614 64 q 623 54 616 54 q 647 85 647 54 l 647 90 l 629 77 l 625 77 q 660 115 637 90 q 687 165 669 133 q 954 545 785 338 q 898 498 940 543 l 458 39 q 418 18 439 18 q 395 39 402 18 q 356 15 385 35 q 315 -1 333 -1 l 315 8 q 412 123 394 92 l 688 595 q 698 608 688 595 q 621 647 671 618 q 535 618 567 637 q 494 545 521 593 q 604 593 527 545 l 608 593 q 551 553 591 570 q 484 529 517 541 q 395 437 439 483 q 279 391 340 391 q 195 430 225 391 q 71 210 71 313 q 120 103 71 142 q 235 67 166 67 q 268 72 246 67 q 302 77 290 77 l 305 77 q 239 54 292 54 l 219 54 q 100 100 146 54 q 54 217 54 145 q 182 460 54 340 q 185 517 185 513 q 199 570 189 545 q 339 736 241 665 q 540 810 441 810 q 608 800 589 810 q 625 792 616 797 q 655 762 635 782 q 688 734 671 748 q 707 697 707 716 l 707 697 l 706 690 q 808 730 778 703 q 860 774 851 768 q 923 797 892 797 q 962 774 949 797 q 1044 823 1019 823 q 1059 818 1059 823 q 970 759 1044 784 q 941 711 960 743 q 890 663 929 693 q 833 613 848 631 l 494 184 q 430 85 494 184 l 1171 787 q 1183 792 1176 792 q 1193 786 1193 792 q 1192 772 1193 778 q 1225 789 1211 782 l 1230 787 l 1136 683 q 1089 631 1121 668 q 989 487 1089 631 l 787 199 q 680 72 787 199 q 762 120 743 101 l 1128 490 q 1222 570 1131 493 q 1340 669 1261 604 q 2003 943 1690 943 q 2208 907 2123 943 q 2337 759 2322 859 q 2338 738 2338 748 l 2338 715 m 1179 749 l 1171 749 l 1171 746 l 1179 749 m 1161 741 q 1133 715 1141 727 q 1161 741 1144 724 m 945 768 q 920 784 945 784 q 833 728 880 784 q 944 762 840 727 q 945 768 945 764 m 1030 634 q 992 595 1007 615 q 1030 634 1015 612 m 972 578 l 972 579 q 970 583 972 583 l 969 583 q 966 579 966 583 l 966 578 q 969 575 967 575 l 970 575 q 972 578 972 576 m 923 741 l 817 707 q 774 656 787 679 q 858 696 793 656 q 923 741 918 733 m 885 703 l 880 703 q 826 669 862 691 q 787 653 822 667 q 760 629 760 642 q 826 644 811 629 l 885 703 m 658 753 l 658 755 q 655 759 658 759 l 654 759 q 652 755 652 759 l 652 753 q 654 749 652 749 l 655 749 q 658 753 658 749 m 673 730 q 658 751 673 751 q 667 711 658 714 q 673 730 673 720 m 762 690 q 732 682 753 688 q 693 667 693 671 l 693 661 q 711 647 693 647 q 762 690 728 647 m 958 576 q 872 498 945 569 q 783 409 802 431 q 958 576 814 433 m 711 634 q 707 637 711 637 l 705 637 q 701 634 701 637 q 706 633 704 633 q 711 634 709 633 m 1128 460 l 872 210 l 1102 430 q 1128 460 1111 440 m 696 638 l 696 640 q 694 644 696 644 l 693 644 q 690 640 690 644 l 690 638 q 693 634 690 634 l 694 634 q 696 638 696 634 m 795 613 q 749 608 797 613 l 706 524 l 706 519 l 795 613 m 608 660 q 594 716 609 675 q 570 772 580 757 l 540 772 q 408 734 471 772 q 336 628 336 692 l 336 606 q 361 567 336 594 l 519 631 q 548 677 527 647 q 553 669 553 675 q 550 656 553 665 q 548 642 548 647 q 608 660 556 642 m 863 199 l 863 201 q 860 204 862 204 l 859 204 q 856 201 857 204 l 856 199 q 859 197 857 197 l 860 197 q 863 199 863 197 m 507 606 l 496 606 q 387 554 460 587 q 446 540 400 540 q 507 606 471 540 m 548 784 l 540 787 q 535 788 538 787 q 530 789 532 789 l 519 789 q 300 690 404 789 q 197 476 197 591 q 213 483 203 476 q 348 562 279 521 q 337 591 348 570 q 326 629 326 612 q 406 741 326 697 q 548 784 469 776 m 446 524 q 391 539 427 529 l 374 545 q 287 499 357 545 q 216 446 216 454 q 271 422 216 422 q 446 524 363 422 m 701 72 q 660 46 667 72 l 663 46 l 701 72 m 629 248 l 484 111 q 566 174 514 130 q 629 248 587 199 m 701 56 q 667 31 690 47 q 701 56 675 31 m 535 140 q 442 77 522 132 q 412 39 412 56 q 423 28 412 28 q 479 76 438 28 q 535 140 507 109 m 399 72 l 382 56 q 399 72 395 60 z "},"X":{"ha":1428,"x_min":73,"x_max":2383,"o":"m 2383 714 q 2220 474 2383 565 q 1920 397 2083 397 q 1663 589 1653 397 q 1390 481 1525 519 q 1280 454 1353 472 q 1257 436 1270 451 q 1147 283 1181 345 q 1096 105 1096 192 q 1101 88 1096 94 l 1102 88 q 1141 96 1112 88 q 1173 104 1169 104 q 1103 78 1154 92 l 1103 77 q 1129 43 1103 55 q 1174 32 1150 32 q 1307 97 1237 32 q 1377 225 1377 163 q 1332 267 1377 267 q 1238 218 1278 267 q 1198 117 1202 174 l 1193 117 q 1232 226 1193 176 q 1332 279 1274 279 q 1394 222 1394 279 q 1323 86 1394 151 q 1179 22 1251 22 l 1163 22 q 1065 78 1131 22 q 1053 83 1065 78 q 1002 172 996 104 q 891 111 983 165 q 777 60 828 73 q 592 16 684 39 q 404 -6 486 -6 q 181 40 266 -6 q 73 227 73 100 q 229 467 73 376 q 521 543 359 543 q 581 537 541 543 q 640 530 621 530 q 648 535 646 530 q 689 618 661 563 q 937 859 781 781 q 1075 893 1004 893 q 1168 871 1123 893 q 1191 871 1175 871 q 1214 872 1206 872 q 1312 854 1289 872 q 1359 715 1359 818 q 1351 633 1359 680 q 1628 819 1508 774 q 2060 926 1907 926 q 2273 884 2190 926 q 2383 714 2383 830 m 2374 714 q 2062 901 2374 901 q 1842 867 1948 901 q 1768 842 1817 859 l 1765 837 q 1816 747 1813 795 l 1824 747 q 1858 760 1824 747 q 1985 781 1912 781 q 2182 688 2157 781 l 2180 689 q 2179 681 2180 689 q 2178 666 2178 673 l 2177 666 q 2006 760 2167 760 q 1807 714 1875 760 q 1774 680 1794 705 q 1786 701 1781 690 q 1752 679 1774 694 q 1696 620 1717 655 q 1737 643 1719 629 q 1692 607 1696 611 q 1674 548 1674 586 q 1906 418 1674 418 q 2099 444 2004 418 q 2271 530 2212 474 q 2374 714 2374 627 m 1789 802 l 1789 803 q 1786 806 1788 806 l 1786 806 q 1782 803 1783 806 l 1782 802 q 1785 799 1783 799 l 1786 799 q 1789 802 1789 799 m 1803 739 l 1803 760 q 1790 799 1803 789 q 1773 722 1787 773 q 1803 739 1781 725 m 1755 786 q 1727 819 1755 819 q 1671 794 1719 819 q 1300 487 1454 679 q 1301 486 1301 487 q 1295 479 1299 484 q 1505 553 1326 487 l 1535 564 q 1677 648 1615 593 q 1755 786 1755 715 m 1303 802 l 1303 803 q 1301 806 1303 806 l 1300 806 q 1297 803 1297 806 l 1297 802 q 1299 799 1297 799 l 1301 799 q 1303 802 1303 799 m 1678 625 l 1676 625 q 1407 496 1602 573 q 1398 492 1402 492 l 1402 492 q 1532 538 1423 492 q 1663 599 1636 582 q 1678 625 1671 604 m 1177 832 l 1177 837 q 1168 845 1175 840 l 1166 845 q 1101 819 1136 845 l 1114 819 q 1175 831 1135 819 l 1177 832 m 1094 814 l 1094 816 q 1091 819 1093 819 l 1090 819 q 1088 816 1088 819 l 1088 814 q 1090 811 1088 812 l 1091 811 q 1094 814 1094 812 m 1390 487 l 1390 488 q 1386 490 1389 490 q 1385 487 1385 489 q 1389 485 1385 486 q 1390 487 1390 485 m 1375 482 l 1375 484 q 1373 487 1375 487 l 1372 487 q 1369 484 1369 487 l 1369 482 q 1371 479 1369 479 l 1373 479 q 1375 482 1375 479 m 1360 481 q 1358 482 1360 482 l 1356 482 q 1355 481 1355 482 q 1356 479 1355 480 q 1358 476 1356 477 q 1359 479 1359 477 q 1360 481 1360 480 m 1346 474 l 1346 475 q 1343 479 1346 479 l 1343 479 q 1340 475 1341 479 l 1340 474 q 1343 471 1341 471 l 1343 471 q 1346 474 1346 472 m 1193 781 q 1177 819 1193 819 q 922 658 1014 819 q 886 535 886 597 q 945 526 907 526 q 1057 551 1022 526 q 1093 585 1067 557 q 1193 781 1193 685 m 1305 762 l 1305 786 q 1270 811 1293 803 q 1297 806 1289 806 q 1274 843 1297 829 q 1230 854 1254 854 q 1190 850 1208 854 l 1190 845 q 1198 832 1190 840 q 1245 818 1226 823 q 1206 821 1226 821 q 1208 793 1206 812 q 1211 765 1211 774 q 1177 633 1211 707 l 1228 679 q 1120 559 1156 599 q 888 433 1002 433 q 818 513 818 433 q 823 545 818 524 q 827 574 827 566 l 827 625 q 885 710 827 666 q 976 773 930 741 q 1057 832 1001 795 q 1134 867 1083 843 q 1072 876 1121 876 q 781 717 918 876 q 713 626 734 663 q 665 526 703 608 l 666 522 q 766 460 736 494 q 806 351 802 421 q 1031 414 907 385 q 1134 436 1065 420 q 1182 484 1148 439 q 1262 616 1226 542 q 1305 762 1305 705 m 1043 533 l 1043 534 q 1040 538 1042 538 l 1040 538 q 1037 534 1037 538 l 1037 533 q 1040 530 1037 530 l 1040 530 q 1043 533 1043 531 m 955 752 q 878 694 915 734 q 836 612 836 650 l 836 594 q 892 675 855 629 q 955 752 953 749 m 1057 415 l 1057 416 q 1054 418 1057 418 q 1053 415 1053 418 l 1056 412 q 1057 415 1057 414 m 1031 530 l 1030 530 q 988 524 1016 530 q 947 517 961 517 q 917 520 937 517 q 886 522 897 522 q 924 466 886 466 q 981 491 940 466 q 1031 530 1021 515 m 1046 412 q 1041 414 1044 414 l 1038 414 q 1036 412 1036 414 q 1040 409 1037 410 q 1046 412 1046 410 m 909 467 q 873 522 892 479 q 857 538 871 529 q 845 556 845 547 q 866 543 852 551 l 871 543 q 899 663 878 601 q 851 594 870 639 q 832 511 832 550 q 883 462 832 462 l 896 462 q 909 467 904 462 m 1027 408 l 1019 408 q 806 343 991 408 q 802 326 802 334 q 1027 408 913 371 m 1070 229 q 1015 140 1015 184 q 1062 91 1015 91 q 1057 136 1057 115 q 1064 182 1057 151 q 1070 229 1070 212 m 1126 415 l 1116 415 q 1101 410 1114 415 q 941 363 1046 395 q 789 292 848 333 q 762 262 777 284 q 738 232 747 239 q 669 182 704 207 q 644 102 644 157 q 648 91 644 96 l 663 91 q 888 189 758 91 q 1076 358 945 232 q 1126 415 1098 378 m 746 267 q 705 232 727 252 q 746 267 730 244 m 789 336 q 743 318 777 333 q 630 261 665 283 q 546 172 564 219 l 548 172 q 623 193 600 172 q 682 249 627 197 q 744 288 684 251 q 789 336 789 317 m 784 116 l 784 117 q 781 121 784 121 l 781 121 q 778 117 779 121 l 778 116 q 781 113 779 113 l 781 113 q 784 116 784 114 m 774 111 l 774 113 q 772 117 774 117 l 771 117 q 768 113 768 117 l 768 111 q 771 109 769 109 l 772 109 q 774 111 774 109 m 764 109 q 656 78 700 86 l 656 77 q 679 66 656 66 q 764 109 714 79 m 607 161 l 602 161 q 541 147 597 159 l 541 136 q 559 102 541 117 q 595 90 576 90 q 601 125 595 102 q 607 161 607 149 m 794 347 l 794 366 q 748 455 794 414 q 653 496 703 496 q 635 458 648 484 q 631 468 631 460 q 635 500 631 482 q 576 511 612 511 q 239 444 366 511 q 86 220 86 363 q 195 50 86 105 q 406 6 278 6 q 527 17 476 6 q 567 27 540 20 q 635 50 589 31 l 640 53 q 602 78 625 65 q 553 101 557 98 q 529 147 536 113 q 495 146 513 147 q 461 146 471 146 q 324 185 366 146 q 278 269 278 229 q 291 305 278 296 l 291 300 q 289 285 291 295 q 286 270 286 275 q 329 195 286 227 q 414 168 368 168 l 521 168 q 538 172 521 168 q 651 278 566 234 q 794 347 722 313 m 1774 680 q 1737 643 1760 659 q 1774 680 1757 658 m 1270 811 q 1245 818 1259 814 q 1270 811 1259 816 m 1247 699 q 1244 696 1247 696 l 1244 696 q 1241 699 1241 697 l 1241 701 q 1244 705 1242 705 l 1244 705 q 1247 701 1247 705 l 1247 699 z "},"Y":{"ha":1260,"x_min":16,"x_max":1830,"o":"m 1830 859 q 1813 833 1830 850 q 1730 770 1785 812 q 1527 591 1603 671 l 1529 587 q 1493 562 1526 569 l 1367 435 l 1367 409 l 1210 244 q 1131 161 1182 217 q 1081 90 1131 161 l 982 -51 q 931 -112 965 -76 q 854 -184 903 -133 l 637 -516 q 605 -577 626 -534 q 581 -637 581 -626 q 591 -648 581 -648 q 604 -644 600 -648 l 1003 -107 q 1061 -39 1021 -83 q 1131 41 1084 -12 q 1233 144 1165 75 l 1242 144 l 1117 5 q 1054 -64 1095 -17 q 909 -256 1054 -64 l 620 -639 q 581 -665 600 -665 q 553 -633 553 -665 q 591 -524 553 -587 q 778 -222 654 -424 q 494 -286 637 -286 q 264 -233 355 -286 q 152 -40 152 -169 q 172 53 152 20 q 187 77 177 61 q 177 111 186 93 l 174 140 q 37 -118 37 19 q 111 -217 37 -206 q 102 -224 109 -224 q 16 -120 16 -224 q 130 116 16 -9 q 177 166 147 132 q 205 224 191 186 q 229 284 221 270 q 469 538 301 423 q 526 574 503 562 q 556 591 536 579 q 593 625 557 592 q 665 686 623 653 q 1096 877 900 877 q 1268 770 1268 877 q 1114 507 1268 666 q 1089 481 1105 499 q 1067 430 1083 473 q 997 334 1050 384 q 863 220 930 277 q 778 81 778 140 q 811 54 778 54 q 931 118 865 54 l 1489 660 q 1516 682 1493 664 q 1657 795 1586 739 q 1808 872 1761 872 q 1830 859 1830 872 m 1805 861 q 1681 800 1768 860 q 1565 711 1610 753 l 1332 494 q 1410 549 1377 528 q 1445 570 1422 555 q 1483 606 1447 571 q 1580 690 1524 643 q 1735 808 1666 762 q 1795 846 1756 820 q 1805 861 1805 854 m 1379 502 q 1284 404 1327 466 l 1379 502 m 1249 783 q 1112 864 1249 864 q 831 792 970 864 q 607 608 699 723 l 610 608 q 883 680 765 680 q 966 660 941 680 q 1019 591 980 649 q 1088 532 1067 567 l 1093 532 q 1249 783 1249 686 m 982 588 q 957 593 960 593 l 935 593 q 946 562 935 582 q 962 532 960 540 q 982 588 983 543 m 1067 519 q 1044 561 1067 538 q 1002 583 1021 583 q 995 568 998 583 q 976 511 993 561 q 965 447 966 481 q 952 396 964 414 l 1067 519 m 1051 437 l 990 374 q 1051 437 1018 399 m 979 599 q 947 651 979 631 q 886 669 920 669 q 692 640 786 669 q 540 532 569 602 q 581 555 555 537 q 620 583 615 580 q 806 634 705 634 q 918 604 878 634 q 946 601 927 604 q 975 599 964 599 l 979 599 m 931 527 q 903 591 931 591 q 713 530 823 591 q 591 390 591 462 q 595 355 591 397 l 594 353 q 581 391 581 364 q 703 530 581 466 q 893 601 785 574 q 810 621 876 621 q 651 582 749 621 q 522 494 543 539 q 514 445 514 476 q 640 336 514 336 q 791 476 734 336 q 815 553 798 502 q 827 566 820 565 q 773 374 827 482 l 773 370 q 875 430 832 395 q 931 527 931 477 m 888 412 q 745 332 836 387 q 888 412 839 332 m 1097 243 q 1014 163 1075 211 q 936 93 954 116 q 1097 243 1053 140 m 658 315 q 581 332 632 319 q 504 461 504 356 q 505 481 504 471 q 446 347 446 428 q 473 288 446 309 q 536 267 498 267 q 658 315 620 267 m 1046 157 l 1042 157 q 928 81 991 117 q 805 33 844 33 q 739 112 739 33 q 850 358 739 201 l 850 361 q 770 329 806 339 q 734 319 758 327 q 701 294 724 311 q 553 246 637 246 q 468 269 503 246 q 428 342 428 294 q 484 469 428 391 q 540 557 540 546 l 540 562 q 199 182 262 378 q 241 201 205 183 q 326 225 287 225 q 363 215 341 225 q 390 204 386 204 q 417 206 399 204 q 446 208 436 208 q 602 165 532 208 q 684 33 684 115 q 629 -92 684 -39 q 505 -153 578 -140 q 536 -195 507 -173 q 586 -217 566 -217 l 610 -217 q 724 -198 679 -217 q 1046 157 872 -134 m 369 199 q 328 217 361 217 q 241 195 283 217 q 190 130 190 169 q 195 93 190 93 l 199 93 q 322 177 252 142 q 369 199 338 184 m 383 153 q 298 118 350 153 q 229 54 250 85 q 248 46 234 46 l 269 46 q 347 78 311 46 q 383 153 383 111 m 684 -230 q 649 -231 671 -230 q 617 -231 626 -231 q 496 -158 539 -231 q 345 -125 347 -158 q 407 -133 366 -125 q 469 -140 448 -140 q 489 -138 480 -140 q 484 -113 484 -126 q 534 -5 484 -5 q 574 -54 574 -5 q 540 -102 574 -102 q 516 -85 530 -102 q 498 -68 503 -68 l 496 -68 q 492 -86 492 -75 q 496 -132 492 -117 l 502 -138 q 610 -86 559 -138 q 660 24 660 -34 q 597 134 660 96 q 469 166 545 166 q 399 144 408 166 q 391 115 397 134 q 345 55 379 77 q 270 33 311 33 q 220 41 243 33 q 182 -75 182 19 q 284 -228 182 -177 q 477 -269 364 -269 q 684 -230 626 -269 m 990 475 l 987 473 l 987 473 l 984 475 l 984 477 l 987 481 l 987 481 l 990 477 l 990 475 m 602 348 l 600 345 l 598 345 l 596 348 l 596 349 l 599 353 l 600 353 l 602 349 l 602 348 m 607 343 l 604 340 l 604 340 l 601 343 l 601 345 l 604 348 l 604 348 l 607 345 l 607 343 z "},"Z":{"ha":1361,"x_min":43,"x_max":1485,"o":"m 1485 804 q 1373 672 1485 729 q 1190 621 1278 625 q 1049 585 1084 617 l 883 427 q 939 409 895 409 q 966 418 950 409 q 992 427 982 427 l 995 427 q 913 383 960 383 q 887 392 903 383 q 861 401 871 401 q 850 396 850 401 l 730 278 l 730 273 q 791 230 753 258 q 876 210 836 233 q 1143 286 1025 286 q 1319 163 1319 286 q 1192 1 1319 55 q 971 -39 1097 -39 q 696 18 831 -39 q 677 1 685 18 q 637 -111 659 -35 q 636 -105 637 -109 q 635 -100 635 -102 q 679 26 635 -60 q 530 104 532 104 q 475 71 522 104 q 378 12 418 31 q 254 -21 312 -21 q 172 5 196 -21 q 165 18 169 9 q 160 22 162 18 q 43 77 43 22 q 87 145 43 121 q 183 172 117 160 q 267 192 250 184 q 385 256 306 214 q 588 296 463 296 q 634 293 604 296 q 680 291 665 291 l 684 291 q 808 420 808 415 q 799 431 808 431 q 739 422 760 431 q 707 414 718 414 l 705 414 q 746 443 714 429 q 797 457 778 457 q 819 450 805 457 q 842 442 833 442 q 1011 593 872 454 q 943 606 958 601 q 901 652 901 621 q 916 684 901 665 q 931 719 931 703 q 804 764 931 764 q 638 724 720 764 q 538 602 538 675 q 570 549 538 570 q 633 532 597 532 q 744 559 695 532 q 804 650 804 593 q 730 707 804 707 q 640 669 677 707 q 676 709 640 694 q 733 720 704 720 q 824 647 824 720 q 817 606 824 616 q 876 715 834 623 l 880 715 q 815 543 880 632 q 675 418 755 463 q 570 396 635 396 q 454 498 454 396 q 456 529 454 509 q 458 559 458 549 q 441 597 458 564 q 423 652 423 630 q 509 799 423 736 q 675 856 587 856 l 896 856 q 1003 805 962 856 q 1040 764 1018 786 q 1148 712 1077 741 q 1156 715 1151 713 q 1279 802 1258 789 q 1420 845 1354 845 q 1485 804 1485 845 m 1438 792 q 1409 806 1438 806 q 1314 779 1359 806 q 1332 755 1332 772 q 1314 715 1332 738 q 1388 741 1341 715 q 1438 792 1438 769 m 1326 800 l 1326 801 q 1323 805 1325 805 l 1322 805 q 1319 801 1320 805 l 1319 800 q 1322 797 1320 797 l 1323 797 q 1326 800 1326 798 m 1318 796 l 1318 798 q 1315 802 1317 802 l 1314 802 q 1312 798 1312 802 l 1312 796 q 1314 792 1312 792 l 1315 792 q 1318 796 1318 792 m 1468 802 q 1425 832 1468 832 q 1331 805 1375 832 q 1366 813 1337 804 q 1407 823 1395 823 q 1455 795 1455 823 q 1331 711 1455 743 q 1263 680 1299 703 q 1174 635 1242 667 l 1183 635 q 1356 683 1257 635 q 1468 802 1468 738 m 1322 751 q 1318 766 1322 762 q 1312 768 1315 768 q 1200 703 1255 768 l 1222 703 q 1322 751 1322 703 m 1276 695 q 1225 691 1259 695 q 1174 687 1191 687 q 1123 644 1151 669 l 1124 642 q 1148 635 1135 635 q 1276 695 1198 635 m 1126 695 l 1054 715 q 1049 715 1053 715 q 1059 683 1049 703 q 1080 660 1069 660 q 1126 695 1097 660 m 1097 618 l 1097 618 q 1095 621 1097 621 l 1094 621 q 1093 618 1093 621 l 1093 618 q 1094 615 1093 616 q 1097 618 1096 616 m 1054 631 q 977 687 1003 658 q 944 635 966 658 l 943 631 q 1002 606 943 606 l 1019 606 q 1054 631 1034 606 m 957 725 q 931 777 957 755 q 863 809 922 779 q 792 831 822 831 q 643 758 740 831 q 519 640 556 692 q 482 572 509 625 q 518 544 482 556 q 568 534 548 534 l 576 534 q 530 604 530 564 q 637 730 530 679 q 811 772 725 772 q 957 725 895 772 m 806 593 q 773 562 773 559 q 806 593 794 572 m 768 557 l 768 558 q 766 562 768 562 l 765 562 q 762 558 762 562 l 762 557 q 764 554 762 554 l 766 554 q 768 557 768 555 m 760 836 q 714 840 741 840 q 534 799 612 840 q 436 655 436 747 q 467 580 436 602 q 760 836 543 747 m 1310 160 q 1153 260 1310 260 q 893 197 1017 260 q 888 192 889 197 q 876 142 882 155 q 845 102 870 130 q 861 26 845 26 q 931 60 876 26 q 896 37 922 49 q 863 13 871 25 q 876 8 867 8 q 1049 94 941 8 q 901 -3 1004 41 q 968 -20 920 -20 q 1181 12 1093 -20 q 1310 160 1310 58 m 778 559 q 608 519 705 519 q 479 549 535 519 q 469 530 469 547 l 469 508 q 564 422 469 422 q 717 495 638 422 q 778 559 745 520 m 859 198 q 825 219 859 219 l 813 219 q 808 218 812 219 q 804 217 805 217 q 829 179 811 203 l 832 179 q 859 198 842 184 m 842 163 q 838 165 840 164 l 837 163 q 838 160 838 161 q 842 163 841 161 m 747 222 q 733 244 747 233 q 709 256 720 256 q 633 189 700 256 q 747 222 635 188 m 768 107 q 725 62 754 92 q 743 48 725 47 q 768 107 750 68 m 781 31 l 781 36 q 778 48 781 43 l 778 45 l 777 41 q 781 31 777 32 m 765 125 l 765 180 q 749 210 765 210 q 648 184 718 210 q 568 134 568 156 l 568 132 l 709 64 l 765 125 m 625 214 q 574 176 620 212 l 574 171 q 625 214 608 195 m 556 166 q 535 150 543 161 q 556 166 542 152 m 663 269 q 618 278 642 278 l 575 278 q 305 197 427 278 q 300 192 302 195 q 509 158 403 187 q 591 211 530 168 q 663 269 652 254 m 548 145 l 548 146 q 545 149 547 149 l 545 149 q 543 146 543 148 l 543 145 q 545 142 543 143 q 548 145 547 143 m 505 115 l 500 115 q 385 35 462 87 q 505 115 465 71 m 471 132 q 305 171 406 171 l 267 171 q 179 39 179 109 q 471 132 291 39 m 380 30 l 380 31 q 377 35 380 35 l 376 35 q 374 31 374 35 l 374 30 q 376 26 374 26 l 377 26 q 380 30 380 26 m 372 25 l 372 26 q 370 31 372 31 l 369 31 q 366 26 366 31 l 366 25 q 368 22 366 22 l 370 22 q 372 25 372 23 m 331 51 l 326 51 q 256 40 300 51 q 185 26 206 27 q 251 -8 185 -8 q 318 5 284 -8 q 303 21 303 9 l 305 26 l 331 51 m 237 166 l 224 166 q 121 144 176 166 q 53 77 53 116 q 144 35 53 35 q 160 39 140 35 q 237 166 177 112 m 1105 140 q 1098 131 1105 137 q 1088 125 1091 125 q 1105 141 1099 141 q 1105 140 1105 141 m 1075 114 q 1062 102 1075 102 q 1074 116 1066 116 q 1075 115 1075 116 l 1075 114 m 1006 115 q 1004 112 1006 112 l 1002 112 q 1000 115 1000 113 l 1000 116 q 1003 120 1000 120 l 1004 120 q 1006 116 1006 120 l 1006 115 m 960 79 q 957 77 960 77 l 955 78 q 959 83 957 83 q 960 80 960 82 l 960 79 m 944 68 l 944 68 q 939 64 944 64 l 937 66 l 939 68 l 942 71 q 944 68 943 70 z "},"\\":{"ha":395,"x_min":58,"x_max":396,"o":"m 396 -62 l 354 -62 l 58 866 l 104 866 l 396 -62 z "},"^":{"ha":343,"x_min":60,"x_max":316,"o":"m 316 628 l 279 628 l 180 759 l 93 628 l 60 628 l 165 810 l 197 810 l 316 628 z "},"`":{"ha":442,"x_min":163,"x_max":310,"o":"m 310 671 l 309 667 q 223 723 279 674 q 163 799 163 773 q 190 820 163 820 q 208 813 202 820 q 236 755 217 800 q 269 703 253 716 q 298 680 279 695 q 310 671 299 679 z "},"a":{"ha":482,"x_min":-19,"x_max":477,"o":"m 477 157 q 454 131 477 153 q 420 103 430 109 q 420 101 420 102 q 414 99 420 99 q 320 37 374 66 q 281 18 307 31 q 276 8 276 14 q 294 0 276 0 q 313 5 300 0 q 332 9 326 9 q 288 -6 305 -6 q 243 12 276 -6 q 210 39 210 30 q 210 57 210 45 q 211 75 211 69 q 166 51 204 75 q 153 56 163 56 q 51 13 105 27 l 51 9 q 68 0 51 0 q 85 2 75 0 q 102 5 96 5 q 67 -6 83 -6 q -19 83 -19 -6 q 71 266 -19 182 q 260 350 161 350 l 286 350 q 326 284 306 350 q 342 273 329 273 q 383 338 378 334 q 452 345 393 345 l 427 307 l 427 297 l 447 297 l 447 286 q 354 175 401 231 q 286 60 286 90 q 300 43 286 43 q 391 90 333 43 q 477 158 475 157 l 477 157 m 313 300 q 291 342 313 342 l 265 342 q 189 316 216 342 q 140 269 168 297 l 140 260 l 150 260 q 313 300 237 300 m 311 276 l 311 281 l 307 286 l 291 286 q 184 230 248 286 q 43 54 43 108 q 51 35 43 39 q 61 34 55 35 q 71 33 67 33 q 226 120 140 33 q 311 276 311 206 z "},"b":{"ha":418,"x_min":-80,"x_max":837,"o":"m 837 907 q 791 817 837 863 l 666 692 q 604 629 648 671 q 472 526 604 629 l 208 318 q 159 263 182 298 q 132 197 132 223 q 220 247 151 197 q 343 297 289 297 q 404 246 404 297 q 382 190 404 229 q 361 144 361 150 q 369 136 361 132 q 361 131 369 132 q 340 123 353 123 q 130 16 233 16 q 65 48 96 16 q 28 80 35 80 q -12 40 8 60 q -62 16 -39 16 q -80 28 -80 16 q -62 62 -80 41 q 21 190 -49 79 l 21 198 q 11 196 18 198 q 0 195 3 195 q 127 331 44 239 q 471 743 128 331 q 562 824 504 782 q 661 893 611 859 q 786 949 740 949 q 837 907 837 949 m 800 916 q 772 939 800 939 q 723 924 755 939 q 688 893 688 907 q 709 880 688 890 q 752 824 740 866 l 757 824 q 789 861 774 824 q 800 916 800 892 m 724 829 q 701 871 724 857 q 692 871 698 871 q 682 872 686 872 q 655 867 660 872 q 522 730 609 823 l 403 586 q 310 476 370 551 l 241 374 l 241 363 q 465 539 264 363 q 693 747 649 701 q 724 829 724 780 m 332 265 q 331 271 332 268 q 313 276 326 276 q 203 232 273 276 q 111 153 141 191 q 75 51 75 110 q 204 115 140 94 q 241 123 231 124 q 233 118 241 121 q 105 45 105 80 q 121 32 105 32 q 259 113 185 32 l 259 118 q 251 126 259 130 q 279 139 264 139 q 319 195 303 149 q 332 265 332 233 z "},"c":{"ha":342,"x_min":-21,"x_max":345,"o":"m 345 158 q 184 26 232 45 q 176 35 184 35 q 90 9 171 35 l 90 1 q 124 7 101 1 q 160 13 148 13 l 163 13 q 85 -8 125 -8 q 22 13 60 -8 q -21 56 -21 35 l -21 145 q -1 174 -7 157 q 91 297 23 245 q 232 350 158 350 q 316 292 316 350 q 260 187 316 187 q 243 203 243 187 q 248 219 243 208 q 252 237 252 230 q 243 286 252 247 q 125 199 195 286 q 56 62 56 112 q 98 31 56 31 q 340 158 193 31 l 345 158 m 281 319 q 269 340 281 331 q 263 341 267 340 q 257 342 259 342 q 158 307 197 342 q 132 281 141 292 q 115 251 115 262 l 125 251 q 273 302 197 288 q 281 319 281 310 z "},"d":{"ha":484,"x_min":-24,"x_max":725,"o":"m 725 687 l 359 197 q 319 125 347 173 q 286 60 286 66 q 303 43 286 43 q 492 171 340 43 l 495 171 q 428 92 461 132 q 347 45 382 45 l 345 45 q 296 22 329 37 q 257 14 283 20 q 248 5 248 12 q 270 -11 248 -12 q 252 -16 260 -16 q 210 50 210 -16 q 213 71 210 57 q 217 91 217 84 l 211 91 q 123 35 150 35 q 86 24 111 35 q 45 13 61 13 q 33 14 41 13 q 21 14 25 15 q 51 -9 21 -9 q 71 -8 60 -9 q 32 -16 50 -16 q -24 64 -24 -16 q 83 262 -24 170 q 294 351 186 351 q 347 310 347 351 q 345 288 347 302 q 343 267 343 274 q 351 264 351 267 q 359 273 354 266 l 722 768 l 725 768 l 725 687 m 283 -8 q 281 -10 283 -10 l 281 -10 q 278 -8 280 -10 q 279 -5 278 -5 q 283 -7 283 -5 l 283 -8 m 91 1 q 90 -1 91 -1 q 86 1 87 -1 l 88 3 q 91 1 90 3 m 336 283 q 334 323 336 317 q 302 342 328 342 q 234 324 275 342 q 187 281 187 303 q 234 290 203 281 q 281 298 265 298 q 316 286 311 298 q 288 289 299 289 q 143 195 241 289 q 45 54 45 101 q 53 35 45 41 q 138 54 103 35 q 243 139 182 80 q 321 244 308 203 q 318 256 320 245 q 318 283 318 266 l 336 283 z "},"e":{"ha":343,"x_min":-13,"x_max":345,"o":"m 345 150 q 233 46 266 71 q 94 -8 161 -8 q 30 10 62 -8 q -13 56 -13 35 q -8 145 -13 128 q 11 180 0 160 q 21 201 14 187 q 122 304 50 258 q 257 350 194 350 q 286 350 286 350 q 315 328 303 349 q 324 292 324 311 q 231 167 324 218 q 72 107 183 140 q 64 66 64 86 q 109 31 64 31 q 234 70 169 31 q 340 150 260 86 l 345 150 m 291 316 q 276 342 291 329 l 256 342 q 184 315 225 342 q 139 259 139 287 q 149 260 149 260 q 286 298 218 292 q 291 316 291 304 m 270 262 q 269 270 270 265 q 269 278 269 275 q 249 283 263 283 q 217 275 229 283 q 98 150 142 226 l 98 139 q 201 181 137 139 q 270 262 270 226 m 199 31 l 199 40 q 149 28 181 40 q 98 9 99 10 l 98 0 q 199 31 139 0 z "},"f":{"ha":296,"x_min":-409,"x_max":904,"o":"m 904 905 q 831 787 904 865 q 719 685 824 780 q 606 583 682 650 q 467 471 559 545 q 358 388 418 431 q 350 397 360 397 q 310 373 338 397 q 281 337 281 349 q 286 329 281 329 q 235 278 267 312 q 144 154 216 254 q 66 40 66 44 l 66 31 q 155 59 100 31 q 235 112 205 85 q 324 189 266 136 l 329 189 q 311 159 329 176 q 281 138 304 153 q 250 113 271 129 q 153 51 197 73 q 80 21 129 41 q 22 -33 37 1 q -51 -224 -1 -98 q -256 -557 -143 -432 q -374 -642 -332 -642 q -409 -604 -409 -642 q -374 -496 -409 -568 q -28 31 -280 -306 q -18 61 -26 33 q 26 102 -14 77 l 112 214 l 112 222 l 94 222 q 138 256 116 239 q 171 294 167 279 l 503 682 q 575 752 503 682 q 664 838 645 821 q 760 916 718 888 q 858 950 814 950 q 904 905 904 950 m 81 210 l 68 197 l 64 197 l 77 210 l 81 210 m 869 912 l 869 928 q 842 941 859 941 q 707 848 800 941 l 707 838 q 762 823 751 838 q 768 766 768 814 l 774 766 q 869 912 869 854 m 754 806 q 741 826 754 821 q 735 827 739 826 q 730 827 732 827 q 677 818 686 827 l 332 401 l 342 401 q 429 461 347 401 q 524 532 503 515 q 545 551 531 538 q 686 678 618 618 q 754 806 754 737 m 0 -72 l 0 -60 q -16 -72 -7 -60 q -110 -190 -47 -111 q -328 -514 -238 -357 q -361 -601 -361 -573 q -345 -616 -361 -616 q -305 -599 -323 -616 l -254 -548 q -199 -474 -234 -528 q -115 -340 -170 -431 q -9 -96 -75 -264 q 0 -72 -5 -84 z "},"g":{"ha":468,"x_min":-540,"x_max":486,"o":"m 486 337 l 230 -3 l 230 -13 l 243 -13 q 465 145 285 3 l 468 145 q 204 -46 338 13 q 60 -248 159 -116 q -33 -360 14 -304 q -132 -463 -96 -433 q -353 -608 -171 -495 q -469 -642 -407 -642 q -540 -591 -540 -642 q -498 -498 -540 -541 q -425 -425 -475 -472 l -254 -292 q -170 -225 -229 -271 q -67 -163 -138 -206 l 138 -39 q 157 -3 155 -5 q 184 26 172 22 l 217 77 l 217 86 l 210 86 q 120 18 153 31 q 112 26 120 26 q 80 19 101 26 q 48 13 59 13 q 29 15 41 13 q 9 18 16 18 q 48 -9 9 -9 q 61 -9 52 -9 q 73 -8 69 -8 q 37 -18 62 -18 q -26 58 -26 -18 q 113 276 -26 188 q 289 342 216 342 q 319 337 308 342 q 238 319 287 337 q 180 273 180 298 q 236 286 200 273 q 292 298 273 298 q 311 295 298 298 q 329 291 323 291 q 332 304 329 296 q 334 317 334 313 q 324 332 334 326 q 345 298 345 332 q 344 276 345 291 q 343 254 343 261 q 385 286 367 254 q 417 332 408 326 q 473 337 454 337 l 486 337 m 329 265 q 297 286 329 286 q 151 195 247 286 q 54 54 54 104 q 56 46 54 52 q 56 39 56 41 q 68 33 60 33 l 81 33 q 234 121 139 33 q 329 265 329 208 m 104 -85 l 94 -85 l -179 -256 q -283 -355 -240 -294 q -332 -487 -332 -422 q -291 -536 -332 -536 q -264 -532 -269 -536 q -176 -442 -231 -503 q -123 -387 -157 -425 l 99 -102 q 104 -85 104 -96 m -305 -561 l -305 -557 q -370 -487 -370 -540 q -354 -429 -370 -465 q -338 -375 -338 -393 q -369 -395 -347 -376 q -449 -477 -417 -436 q -489 -583 -489 -530 l -489 -608 q -449 -629 -481 -629 q -383 -612 -414 -629 q -305 -561 -305 -570 z "},"h":{"ha":511,"x_min":-68,"x_max":851,"o":"m 851 909 q 778 787 851 861 q 720 728 759 768 q 608 608 686 686 l 251 323 q 126 166 174 262 l 127 158 l 136 158 q 200 211 140 158 q 269 273 255 260 q 274 266 273 273 q 279 264 275 264 l 284 264 q 404 297 368 297 q 416 316 416 304 q 415 332 416 321 q 414 347 414 342 q 403 348 410 347 q 392 349 396 349 q 387 348 388 349 q 361 340 377 348 l 356 340 q 391 358 374 358 q 450 307 450 358 q 387 182 450 266 q 297 59 303 71 l 297 51 q 315 48 303 51 q 332 46 326 46 q 433 106 362 46 q 522 192 485 150 l 522 187 q 420 72 497 146 q 412 81 422 81 l 408 81 q 332 35 385 60 q 302 16 301 21 l 303 9 q 325 11 311 9 q 347 13 339 13 l 348 13 q 302 0 328 0 q 250 14 278 0 q 216 50 216 29 q 246 115 216 77 l 356 251 l 356 271 q 349 272 354 271 q 342 273 345 273 q 328 271 331 273 q 315 269 318 272 q 33 18 178 205 q 26 8 31 14 l -43 8 q -68 26 -52 12 q 13 161 -24 123 q 5 184 13 184 q 0 184 2 184 q 44 222 4 186 q 90 264 85 258 l 455 727 q 514 791 486 765 q 612 854 551 823 q 703 913 642 875 q 804 949 758 949 q 851 909 851 949 m 348 332 q 347 329 348 330 q 343 332 345 330 l 345 334 q 348 332 347 334 m 336 322 q 334 320 335 320 l 334 320 q 331 323 332 321 q 332 326 331 325 q 336 323 335 326 l 336 322 m 318 311 q 316 309 318 310 q 314 312 315 309 q 316 313 315 313 l 317 313 q 318 311 318 313 m 297 294 l 297 294 q 293 289 297 289 l 289 289 q 292 294 290 291 l 297 294 m 817 907 q 784 941 817 941 q 684 880 742 941 l 684 872 q 747 800 734 859 l 757 800 q 795 850 776 825 q 817 907 817 882 m 714 826 q 671 859 714 859 l 661 859 q 655 854 660 859 q 548 745 618 819 q 412 586 534 730 q 318 473 372 541 q 264 383 300 443 l 264 370 l 271 370 q 294 388 273 370 q 450 514 347 429 l 564 616 q 675 719 612 658 q 714 826 714 768 z "},"i":{"ha":267,"x_min":-5,"x_max":382,"o":"m 382 500 q 354 458 382 479 q 303 437 326 437 l 300 442 l 300 460 q 358 514 300 514 q 382 500 382 514 m 279 171 q 219 94 246 117 l 219 98 q 211 104 219 104 q 142 54 216 104 q 71 18 106 30 q 53 6 53 12 q 77 -11 53 -11 q 103 -3 87 -11 q 130 5 119 5 q 66 -19 112 -19 q 18 4 41 -19 q -5 51 -5 27 q 71 197 -5 79 l 71 210 l 62 210 q 11 166 46 194 q 0 158 8 162 l 0 160 q 62 235 0 172 q 75 225 62 225 q 132 294 132 267 l 126 294 l 96 269 l 96 273 q 166 337 117 298 q 204 340 173 340 l 224 340 q 212 321 222 335 q 206 297 206 311 q 237 289 225 297 l 168 204 q 111 135 139 170 q 73 54 73 85 q 90 43 73 43 q 155 73 121 43 q 275 171 197 104 l 279 171 m 208 78 q 193 64 203 73 l 193 68 l 206 81 l 208 80 l 208 78 m 155 26 q 142 13 152 21 l 139 13 q 152 26 144 21 l 155 26 z "},"j":{"ha":270,"x_min":-760,"x_max":368,"o":"m 368 502 q 341 463 368 484 q 296 442 315 442 q 284 463 284 442 q 343 516 284 516 q 368 502 368 516 m 286 171 l 235 120 q 166 77 228 120 l 161 77 l 286 176 l 286 171 m 31 189 l 18 176 l 13 176 l 26 189 l 31 189 m 0 163 l -13 150 l -13 153 l -5 163 l 0 163 m 264 337 q 225 281 251 318 l 0 -6 l 0 -13 l 13 -14 q 83 28 45 5 l 149 68 l 155 68 l 13 -24 q -7 -44 13 -33 q -33 -62 -30 -58 l -224 -313 q -301 -395 -244 -340 q -695 -640 -559 -640 q -760 -593 -760 -640 q -738 -527 -760 -562 q -696 -469 -718 -498 q -478 -275 -624 -369 q -220 -130 -441 -252 q -109 -62 -125 -77 q -96 -50 -100 -54 l 120 239 l 120 246 q 43 197 98 246 l 39 197 q 111 260 61 222 q 123 265 116 261 q 179 310 135 270 q 264 337 209 337 m -170 -134 l -170 -120 q -198 -130 -182 -120 l -484 -309 q -538 -351 -503 -323 q -556 -364 -540 -353 q -633 -442 -598 -395 q -675 -540 -675 -498 q -618 -576 -675 -576 q -450 -494 -536 -576 q -345 -378 -390 -434 q -250 -254 -317 -343 q -170 -134 -170 -144 m -572 -585 q -605 -589 -583 -585 q -639 -594 -627 -594 q -674 -585 -652 -594 q -705 -576 -695 -576 q -714 -585 -714 -576 q -675 -625 -714 -625 l -661 -625 q -572 -585 -572 -625 z "},"k":{"ha":505,"x_min":-50,"x_max":867,"o":"m 867 909 q 802 797 867 858 q 623 631 742 739 q 503 534 623 631 l 262 340 q 147 179 246 328 l 147 171 q 163 174 159 171 q 292 281 269 264 q 439 355 390 355 q 492 315 492 355 q 457 251 492 296 q 449 235 457 244 q 366 202 435 218 q 303 172 303 188 q 317 149 303 163 q 331 121 331 136 q 320 88 331 109 q 309 54 309 66 q 315 46 309 46 l 328 46 q 521 179 372 46 l 521 174 q 465 110 492 142 q 403 51 412 52 l 401 53 l 403 56 l 408 58 q 408 67 407 62 q 316 21 377 51 l 316 14 q 344 20 326 14 q 370 26 361 26 l 372 26 q 309 0 356 0 q 270 13 299 0 q 222 77 222 34 q 238 143 222 111 q 254 177 254 175 q 214 192 254 192 l 201 192 l 117 107 q 48 31 87 71 q 27 13 39 14 l -37 8 q -50 27 -50 7 l -50 33 q -28 77 -43 49 q 32 166 -28 77 q 14 184 32 179 q 32 201 20 190 q 96 256 58 222 q 99 260 97 257 l 449 728 q 640 886 537 847 q 638 887 639 886 q 645 889 640 888 q 690 897 660 891 q 699 899 694 898 q 696 899 698 899 q 756 930 711 903 q 819 950 792 950 q 867 909 867 950 m 385 33 q 384 31 385 31 l 383 31 q 380 33 382 32 q 382 37 380 36 q 385 34 385 37 l 385 33 m 832 910 q 800 943 832 943 q 753 926 784 943 q 720 895 720 908 q 731 879 720 888 q 743 864 743 869 l 743 842 q 733 802 743 827 q 724 762 724 776 l 734 762 q 832 910 832 859 m 658 869 l 658 878 q 564 819 621 878 q 487 728 526 774 l 487 720 l 495 720 l 658 869 m 717 845 l 717 864 q 700 878 709 878 l 583 762 q 526 703 565 744 q 439 596 526 703 l 265 383 q 256 363 256 372 l 270 363 l 559 601 q 661 711 615 646 q 717 845 717 789 m 441 300 l 441 332 q 420 342 441 342 q 326 298 393 342 l 326 289 q 356 294 336 289 q 387 298 376 298 l 390 298 q 423 292 397 298 l 431 290 l 433 289 l 433 289 q 441 300 441 289 m 380 235 l 380 273 q 358 281 380 281 q 224 212 302 281 l 222 210 q 262 195 222 195 q 380 235 359 195 z "},"l":{"ha":300,"x_min":0,"x_max":871,"o":"m 871 909 q 819 813 871 867 l 724 713 q 675 663 710 696 q 522 538 675 663 l 216 289 q 145 193 194 271 q 83 85 100 123 q 82 80 83 83 q 81 75 81 77 q 83 63 81 72 q 83 51 83 55 l 88 46 q 220 111 138 46 l 224 111 q 146 44 197 76 q 54 8 91 8 q 0 50 0 8 q 37 161 0 87 q 45 174 40 165 l 46 176 q 37 187 46 187 q 93 243 57 205 l 479 711 q 612 829 502 739 q 821 949 757 949 q 871 909 871 949 m 292 170 q 273 152 286 163 l 271 153 l 289 171 l 291 171 l 292 170 m 249 131 l 237 118 l 233 118 q 248 132 238 123 l 249 131 m 27 179 q 6 160 19 170 l 27 179 m 837 910 q 805 941 837 941 q 761 926 789 941 q 730 898 730 910 l 730 893 q 747 891 736 893 q 765 890 759 890 q 778 885 770 885 q 811 850 807 850 q 831 875 823 850 q 837 910 837 895 m 786 850 q 768 877 786 869 q 696 867 706 877 q 615 787 667 841 l 288 396 l 288 387 q 305 391 298 387 q 474 519 366 435 q 567 603 503 545 l 752 770 q 786 850 786 800 z "},"m":{"ha":819,"x_min":1,"x_max":819,"o":"m 675 321 q 674 319 675 320 q 673 316 673 317 q 671 319 671 317 l 670 321 l 670 321 q 672 323 671 323 l 673 323 q 675 321 675 322 m 819 149 q 717 62 783 104 q 595 13 642 13 q 546 66 546 13 q 615 192 546 125 q 684 264 637 216 l 684 271 q 530 197 625 271 q 364 59 474 153 q 326 21 351 47 q 260 16 300 16 q 262 21 260 18 q 364 174 291 88 q 428 259 428 249 q 410 273 428 273 q 316 230 361 273 l 96 21 q 62 19 85 21 q 28 16 40 16 q 1 26 1 16 l 1 31 q 70 136 25 77 q 147 235 109 185 q 155 257 155 245 q 142 269 155 269 q 89 243 120 269 q 45 210 46 210 l 40 210 q 133 286 75 250 q 243 329 199 329 q 283 296 283 329 q 262 243 283 277 q 241 192 241 210 l 249 192 q 406 302 323 246 q 418 294 405 294 q 474 298 455 294 q 449 324 474 321 q 468 328 457 328 q 500 289 500 328 q 475 214 500 256 q 428 149 473 212 l 428 140 l 441 140 q 564 248 498 193 l 564 243 q 556 238 561 241 l 557 232 q 607 252 576 232 q 655 281 648 278 q 689 292 665 286 q 713 308 713 299 q 711 321 713 311 l 684 321 q 705 329 692 329 q 740 306 724 329 q 755 262 755 282 q 694 156 755 226 q 632 74 632 87 q 652 46 632 46 l 666 46 q 814 149 699 46 l 819 149 m 32 199 l 6 174 l 1 174 l 27 199 l 32 199 m 257 307 q 252 319 257 315 l 230 319 q 184 302 184 319 l 184 300 q 212 280 189 303 q 229 269 220 269 q 249 281 240 269 q 257 307 257 294 z "},"n":{"ha":597,"x_min":-5,"x_max":597,"o":"m 597 170 q 536 111 578 149 q 492 73 522 98 q 366 0 409 0 q 323 13 346 0 q 298 46 298 28 q 355 154 298 83 q 439 251 397 202 l 439 270 q 428 271 435 270 q 416 273 420 273 q 350 243 399 273 q 210 133 285 204 q 86 5 187 111 q 26 0 58 0 l 14 0 q 20 12 20 5 q 19 17 20 14 q 18 22 18 20 q 155 225 18 55 q 166 265 166 239 q 145 269 159 267 q 79 222 115 254 q 18 170 48 196 q -1 153 11 164 l -5 153 q 158 302 144 302 l 155 297 l 157 289 q 177 291 163 289 q 198 294 191 294 q 216 291 204 294 q 235 289 229 289 q 244 307 244 289 q 220 324 244 324 q 194 317 211 324 q 168 310 177 310 q 229 332 203 332 q 270 284 270 332 q 210 166 270 251 l 210 160 q 219 157 212 159 q 297 216 243 166 q 380 284 356 271 q 388 276 380 276 q 433 287 404 276 q 477 297 462 297 q 482 311 482 302 q 462 324 482 324 q 443 319 455 324 q 423 315 430 315 q 471 332 446 332 q 508 270 508 332 q 444 158 508 235 q 380 60 380 82 q 396 43 380 43 q 500 95 432 43 q 597 174 549 134 l 597 170 m 414 27 l 408 27 q 375 18 404 27 l 375 6 q 414 27 414 6 z "},"o":{"ha":397,"x_min":-11,"x_max":397,"o":"m 397 150 q 352 111 397 136 q 306 89 317 92 q 252 86 294 86 q 196 41 255 86 q 81 -3 136 -3 q 26 14 53 -3 q -8 56 -8 35 q -6 99 -8 71 q -3 142 -3 128 q -11 150 -3 151 q 53 244 10 182 q 144 323 85 292 q 260 355 203 355 q 313 334 294 355 q 342 283 319 326 q 359 241 359 249 q 350 204 359 220 q 273 107 317 151 l 273 100 q 313 104 304 100 q 397 150 351 117 m 316 252 q 313 313 316 300 q 269 347 303 347 q 150 278 208 347 l 150 269 q 209 284 170 269 q 268 299 248 299 q 273 298 271 299 l 278 296 q 139 189 210 260 q 54 46 54 104 q 56 39 54 44 q 56 31 56 33 l 66 22 q 235 120 147 22 q 264 178 243 152 q 309 227 286 203 q 316 252 316 236 m 132 9 l 132 18 l 120 18 l 120 9 l 132 9 z "},"p":{"ha":535,"x_min":-468,"x_max":548,"o":"m 105 260 l 80 235 l 75 235 l 100 260 l 105 260 m 41 201 q 31 192 34 193 l 28 193 l 37 201 l 41 201 m 548 171 q 467 90 468 91 q 374 18 409 35 l 369 18 q 374 22 374 20 q 373 26 374 23 q 372 31 372 28 q 330 22 356 31 q 298 1 298 13 l 340 1 q 303 -6 319 -6 q 273 8 288 -6 q 251 22 258 22 q 226 20 243 22 q 201 18 210 18 q 130 39 155 18 q 112 45 121 45 q 88 27 101 45 l -370 -589 q -437 -640 -408 -640 q -468 -607 -468 -640 q -430 -508 -468 -560 l 152 289 q 141 288 149 289 q 131 286 134 286 q 276 423 161 309 q 353 517 307 460 q 387 554 363 530 q 442 564 440 564 l 442 559 l -396 -556 q -409 -581 -396 -556 q -406 -594 -408 -585 q -397 -599 -402 -599 q -370 -576 -387 -599 l 98 48 q 112 86 100 52 q 138 119 119 108 q 224 196 160 133 q 305 265 284 256 l 310 260 l 318 260 q 430 298 383 297 l 430 316 q 395 324 430 324 q 428 334 409 334 q 463 273 463 334 q 397 163 463 235 q 331 66 331 90 q 336 48 331 53 q 346 47 339 48 q 355 46 352 46 q 406 64 380 46 q 545 171 486 118 l 548 171 m 396 264 q 378 275 396 275 q 130 77 295 275 q 126 58 126 72 q 171 31 126 31 q 265 98 218 31 q 289 130 273 109 q 396 264 396 248 z "},"q":{"ha":513,"x_min":-197,"x_max":517,"o":"m 517 168 l 517 167 q 513 163 517 163 l 509 163 l 513 168 l 517 168 m 471 125 l 403 56 l 403 60 l 467 125 l 471 125 m 372 22 l 343 -6 l 343 -1 l 372 27 l 372 22 m 492 291 q 279 5 492 287 q 13 -351 39 -315 q -120 -551 13 -351 q -131 -597 -131 -568 q -94 -576 -109 -597 l 40 -385 q 53 -359 43 -372 l 331 -22 l -86 -576 q -140 -633 -105 -596 q -166 -640 -149 -640 q -197 -610 -197 -640 q -171 -543 -197 -581 l 270 99 l 262 99 q 172 22 235 71 q 161 32 173 32 l 160 31 q 59 14 99 14 l 59 1 q 66 -6 59 -2 l 88 -6 q 121 2 100 -6 q 155 9 143 9 q 80 -14 111 -14 q 11 93 11 -14 q 14 130 11 105 q 16 168 16 155 l 0 168 l 0 171 q 80 252 40 212 q 176 315 125 294 q 288 342 241 342 q 325 331 311 342 q 351 298 330 327 q 369 286 357 298 l 351 286 q 347 254 347 262 q 347 248 347 252 q 348 241 348 243 q 366 256 361 241 q 372 281 369 269 q 382 287 375 283 q 397 313 390 300 q 420 331 409 331 q 404 290 420 318 q 388 244 388 262 l 395 244 q 433 283 433 282 q 487 296 451 296 q 492 291 492 296 m 336 307 l 336 310 q 289 334 336 334 q 222 315 251 334 q 170 267 207 304 q 152 248 163 260 l 152 239 l 165 239 q 334 303 258 289 l 336 307 m 340 288 q 241 236 300 288 q 158 152 199 194 q 96 54 96 90 q 104 35 96 43 l 123 35 q 272 123 201 35 q 340 288 340 208 z "},"r":{"ha":337,"x_min":3,"x_max":323,"o":"m 323 150 q 310 138 321 147 q 104 13 169 13 q 56 51 56 13 q 95 138 56 89 q 163 212 129 176 q 214 269 180 231 l 214 276 l 134 276 l 8 161 l 3 161 l 121 281 l 121 284 q 117 297 121 290 q 112 310 112 305 q 136 348 112 331 q 180 363 158 363 q 201 348 201 363 l 176 323 l 176 318 q 201 305 176 305 q 229 310 211 305 q 257 315 248 315 q 278 299 264 315 q 291 276 291 284 q 212 173 279 253 q 150 72 155 104 q 149 51 149 60 q 162 48 153 51 q 176 46 171 46 q 318 150 197 46 l 323 150 m 241 296 l 241 302 q 180 297 210 302 l 180 289 l 235 289 q 241 296 241 289 z "},"s":{"ha":382,"x_min":-32,"x_max":372,"o":"m 372 149 q 364 140 372 140 l 363 139 l 361 139 l 359 140 q 369 149 363 143 l 372 149 m 216 289 q 212 286 214 287 q 211 289 211 287 l 211 290 q 212 292 212 292 l 213 292 q 216 289 216 292 m 351 131 q 219 45 309 83 q 66 8 132 8 q -32 85 -32 8 q -7 150 -32 118 q 50 182 17 182 q 63 180 54 182 q 75 179 71 179 l 75 163 q 41 113 75 142 q 6 59 6 83 q 39 21 6 21 q 168 107 115 21 q 237 259 177 122 l 237 271 l 229 271 q 91 179 175 231 l 88 187 q 130 225 102 199 q 139 216 129 216 q 194 250 152 216 q 237 294 237 283 q 229 302 237 302 q 286 345 234 305 q 340 378 331 378 q 351 370 351 378 q 321 328 351 348 q 275 294 279 299 q 273 237 275 276 q 263 144 270 169 q 216 64 253 109 l 216 56 q 347 131 239 56 l 351 131 z "},"t":{"ha":267,"x_min":-11,"x_max":403,"o":"m 403 522 q 278 382 355 473 q 220 315 257 360 q 217 308 220 313 l 214 303 q 213 302 214 302 q 212 302 212 301 q 212 299 212 300 q 214 294 212 296 l 310 294 l 323 289 l 318 283 l 199 283 q 123 179 192 283 q 72 51 72 102 q 93 46 72 46 q 254 149 135 46 l 259 149 q 33 13 123 13 q -11 51 -11 13 q 48 184 -11 78 q 53 192 50 186 q 50 203 53 201 l 51 204 l 49 203 q 46 204 47 204 l 113 271 l 113 281 l 46 281 q 33 289 43 288 q 51 288 41 288 q 131 294 89 288 q 233 408 139 300 q 305 481 264 443 q 395 529 357 529 q 403 522 403 529 m 50 203 q 29 186 42 199 l 43 201 q 49 203 45 203 l 50 203 m 29 186 l 3 157 q 29 186 12 166 m 3 157 l 2 155 q -3 152 0 153 q -1 157 -1 154 l 3 157 z "},"u":{"ha":508,"x_min":-13,"x_max":519,"o":"m 519 153 q 396 43 506 135 q 294 -13 330 -13 q 243 58 243 -13 q 247 86 243 67 q 251 115 251 106 l 243 115 q 149 33 211 88 q 64 -5 107 -5 q 17 12 40 -5 q -8 53 -8 30 q 33 140 -8 84 q 73 212 73 196 l 68 212 l -8 149 l -13 149 q 72 243 32 206 q 81 233 71 233 l 85 233 q 123 258 104 245 q 147 294 147 277 l 131 294 q 214 328 157 328 l 233 328 q 220 307 225 313 q 233 289 220 292 q 155 190 233 284 q 77 64 77 95 q 93 46 77 46 q 138 59 117 46 q 282 168 231 118 q 399 307 320 204 q 425 319 409 319 l 476 319 q 471 307 476 311 l 471 297 q 494 288 482 297 l 358 115 q 331 59 331 81 q 336 46 331 53 l 353 46 q 438 87 386 46 q 514 153 476 121 l 519 153 m 120 281 q 117 278 119 279 q 115 281 115 279 q 116 283 115 283 l 117 283 q 120 281 119 282 m 343 18 q 311 14 332 18 q 278 11 289 11 q 300 -5 278 -5 q 343 18 343 -5 m 150 51 l 140 51 q 56 13 93 24 l 56 3 q 112 16 81 3 q 150 51 150 31 z "},"v":{"ha":496,"x_min":-8,"x_max":503,"o":"m 503 165 q 496 160 500 163 l 495 160 l 494 161 l 503 170 l 503 165 m 163 323 q 160 319 162 321 q 158 323 158 320 q 159 324 158 324 l 160 324 q 163 323 162 324 m 486 152 q 353 85 445 100 q 319 80 326 80 q 289 62 309 75 q 281 59 274 59 l 276 59 q 329 113 329 112 q 318 123 329 123 l 311 123 q 224 77 298 115 q 132 33 140 34 q 115 21 121 26 q 155 6 115 6 q 179 8 174 6 q 164 3 172 3 l 112 3 q 85 13 102 13 q 61 11 77 13 q 39 8 46 8 q 18 24 18 8 q 22 37 18 31 q 176 241 70 109 q 163 267 176 267 q -3 149 130 267 l -8 149 q 0 161 -5 153 q 16 179 5 168 q 77 251 35 204 q 88 241 75 241 l 94 241 q 214 297 136 271 q 222 318 222 300 q 217 331 222 331 l 176 331 q 206 340 185 340 q 248 313 248 340 l 248 279 q 213 177 248 234 q 149 93 189 138 q 115 55 115 55 q 116 48 115 53 q 117 41 117 44 l 132 41 q 224 83 146 41 q 319 139 300 123 q 355 220 332 186 q 414 292 360 227 q 431 317 422 304 q 457 331 441 331 q 477 302 477 331 q 358 118 477 253 q 363 105 358 105 q 481 152 414 105 l 486 152 m 351 140 q 336 125 336 140 q 351 140 351 125 z "},"w":{"ha":684,"x_min":-9,"x_max":685,"o":"m 685 155 l 677 145 l 673 145 l 680 155 l 685 155 m 665 138 q 572 99 637 99 q 547 108 561 99 q 524 117 534 117 q 502 104 509 117 q 486 81 496 95 q 309 -3 368 -3 q 253 13 267 -3 q 241 58 241 26 q 242 82 241 64 q 243 111 243 100 q 199 86 231 110 q 192 91 198 91 l 187 91 q 111 40 157 66 q 53 16 88 34 q 54 6 55 14 q 62 5 57 6 q 68 5 66 5 q 96 11 80 5 q 115 18 112 18 l 120 18 q 56 -3 93 -3 q -9 53 -9 -3 q 94 227 -9 112 l 94 233 q 87 235 83 235 q 0 168 82 235 l -5 168 q 153 316 46 219 q 210 334 174 334 l 235 334 q 216 303 216 315 q 235 291 216 294 l 235 286 q 72 67 72 124 q 77 47 72 47 q 158 78 119 47 q 290 186 266 162 q 391 321 338 233 q 399 329 395 323 q 457 334 428 334 l 468 334 q 442 291 442 296 q 460 278 442 279 l 460 273 q 353 132 425 226 q 319 58 319 91 q 345 35 319 35 q 440 72 378 35 q 519 138 503 109 q 527 171 527 152 q 564 239 542 193 q 573 297 568 269 q 610 334 583 334 q 639 298 629 334 q 643 290 640 297 q 647 283 647 283 q 606 203 647 248 q 540 138 573 170 q 576 107 540 107 q 661 138 587 107 l 665 138 m 142 292 q 126 276 126 292 q 142 292 142 276 m 391 32 q 355 25 376 32 q 319 14 326 16 l 319 3 q 391 32 391 3 z "},"x":{"ha":465,"x_min":-48,"x_max":484,"o":"m 449 144 l 436 131 l 431 131 l 444 144 l 449 144 m 418 118 q 410 111 418 110 l 409 109 l 408 109 l 406 111 q 415 118 409 113 l 418 118 m 484 309 q 457 279 484 286 q 458 260 458 268 q 410 203 458 203 q 388 216 388 203 q 395 235 388 223 q 403 254 403 246 q 385 269 403 269 q 334 241 363 269 q 227 51 227 140 l 227 37 q 248 32 233 32 q 393 100 307 32 l 397 100 q 323 41 369 71 q 239 3 269 3 q 175 28 199 3 q 150 93 150 53 l 142 93 q 80 33 95 44 q 0 3 41 3 q -48 37 -48 3 q -31 67 -48 37 q -9 110 -20 88 q 31 131 5 131 q 58 109 58 131 q 42 79 58 95 q 27 50 27 63 q 45 32 27 32 q 158 120 94 32 q 219 257 219 205 l 219 269 q 211 276 219 273 l 185 276 q 102 247 146 276 q 32 190 85 236 l 27 190 q 121 289 30 197 q 220 343 176 343 q 271 290 255 343 q 291 237 286 237 l 294 238 l 296 238 q 338 284 307 257 l 338 279 q 321 259 333 273 l 321 256 l 323 252 q 366 276 330 252 q 431 297 402 300 l 431 302 q 409 323 431 323 q 377 310 395 323 q 351 297 359 297 q 441 343 390 343 q 484 309 484 343 m 1 165 l -6 157 l -11 157 l -3 166 l 0 166 l 1 165 m 232 297 l 232 331 q 217 336 232 336 q 156 311 195 336 q 115 265 115 286 q 144 275 126 265 q 172 290 169 288 q 232 297 176 291 z "},"y":{"ha":511,"x_min":-195,"x_max":511,"o":"m 511 158 l 489 138 l 486 138 l 507 158 l 511 158 m 481 134 q 451 106 473 127 q 481 134 467 124 m 451 106 q 390 40 432 83 q 412 68 399 52 q 451 106 422 81 m 77 227 l 73 224 q 72 227 72 225 l 72 227 q 73 230 73 230 l 74 230 q 77 227 77 229 m 56 212 q 53 208 55 210 q 50 211 52 209 q 52 212 50 212 l 54 212 q 56 212 56 212 m 30 191 q 29 188 30 189 q 27 185 28 186 q 25 188 26 186 q 24 191 25 189 q 26 192 24 191 l 28 192 q 30 191 30 191 m 0 163 l -3 158 l -8 158 l -3 163 l 0 163 m 123 22 q 121 19 123 20 l 118 22 q 120 26 119 25 l 121 26 q 123 23 123 25 l 123 22 m 486 286 l 243 -35 q 214 -113 214 -73 q 271 -83 243 -113 l 387 40 l 387 35 q 267 -105 357 -3 q 153 -249 191 -191 q 90 -377 132 -292 q 51 -441 76 -402 l 46 -444 l 46 -441 l 80 -372 l 80 -359 l 72 -359 l -28 -505 q -21 -517 -28 -518 q -50 -534 -38 -532 q -101 -598 -75 -566 q -165 -640 -137 -640 q -195 -610 -195 -640 q -161 -530 -195 -579 l 225 31 q 284 145 225 31 l 284 152 q 271 155 280 153 q 170 60 237 124 q 161 71 172 71 l 160 71 q 46 14 125 47 l 46 8 q 80 5 58 6 q 105 14 104 14 l 111 14 q 58 -6 75 -6 q 15 12 38 -6 q -8 50 -8 31 q 5 96 -8 75 q 73 189 31 137 q 102 222 84 200 q 110 235 106 229 l 111 235 l 111 238 l 109 243 q 100 241 106 243 q 91 239 94 239 l 90 239 q 149 283 125 270 q 158 309 158 294 q 131 329 158 329 q 51 298 107 329 l 46 298 q 130 334 68 334 q 177 315 168 334 q 217 296 186 296 q 230 291 225 292 q 131 158 198 245 q 91 113 117 143 q 67 60 67 87 q 86 48 67 48 q 192 104 114 48 q 396 337 318 195 q 420 348 402 348 q 444 347 428 348 q 468 347 460 347 q 446 305 446 325 q 449 297 446 304 l 486 297 l 486 286 m 232 -125 q 198 -141 211 -125 q 185 -179 185 -157 q 216 -159 200 -179 q 232 -125 232 -140 m 153 -185 l 153 -170 q 136 -180 144 -170 l -62 -467 q -67 -474 -65 -471 l -67 -486 q -51 -514 -67 -514 q -46 -513 -48 -514 l 118 -278 q 132 -248 119 -278 q 142 -219 133 -248 l 153 -185 m -62 -529 q -83 -508 -62 -508 q -93 -513 -90 -508 q -132 -597 -132 -576 l -113 -597 q -62 -529 -62 -547 z "},"z":{"ha":404,"x_min":-540,"x_max":417,"o":"m 391 149 l 383 140 l 378 140 q 388 149 381 144 l 388 150 l 390 150 l 391 149 m 366 127 q 363 123 363 126 l 358 123 l 358 123 q 362 127 358 127 l 366 127 m 0 158 l -8 149 l -8 154 q -4 158 -8 158 l 0 158 m 417 337 q 414 328 416 334 q 387 302 387 303 q 370 273 380 296 q 238 158 348 220 q 172 124 205 141 q 120 85 120 95 l 120 81 q 204 31 184 71 q 225 35 218 31 l 345 115 l 353 115 l 212 18 q 192 -90 212 -47 q -111 -446 103 -271 q -204 -522 -165 -491 q -332 -601 -258 -565 q -473 -642 -418 -642 q -540 -589 -540 -642 q -378 -377 -540 -511 q -271 -289 -344 -345 l 73 -64 q 98 -29 79 -60 q 129 -3 113 -3 l 132 -3 q 138 -13 134 -13 q 158 -8 158 -13 q 156 36 158 27 q 126 60 150 60 q 59 28 104 60 q -16 -8 31 9 q -21 9 -21 1 q 59 73 -21 34 q 147 119 89 88 q 222 174 172 138 q 230 166 222 166 l 235 166 q 326 246 326 220 l 323 248 l 319 248 q 298 235 305 239 q 289 239 297 240 q 269 230 279 235 q 260 232 262 230 q 254 235 258 235 q 232 230 246 235 q 210 225 217 225 l 127 225 q 115 197 115 212 q 120 184 115 184 q 174 190 153 184 q 206 197 195 197 l 210 197 q 132 174 172 174 q 77 187 91 174 q 56 212 74 198 q 94 264 64 227 q 99 286 99 278 q 163 337 118 337 q 184 328 179 337 q 161 288 161 315 q 219 264 161 264 q 345 289 319 264 q 409 340 397 340 q 417 337 415 340 m 155 -24 q 139 -45 139 -24 q 155 -24 155 -45 m 66 -105 l 51 -105 l -271 -345 q -326 -399 -272 -345 q -409 -553 -409 -483 q -366 -591 -409 -591 q -284 -548 -340 -591 q 56 -136 -77 -388 q 66 -105 66 -117 m 6 -118 l -3 -118 l -256 -289 q -279 -310 -264 -296 q -305 -328 -288 -316 q -433 -443 -376 -376 q -507 -591 -507 -528 q -489 -629 -507 -616 q -399 -613 -399 -629 q -418 -594 -399 -612 q -437 -545 -437 -577 q -251 -302 -437 -429 l 0 -131 q 6 -118 7 -127 z "},"{":{"ha":436,"x_min":39,"x_max":854,"o":"m 854 766 l 851 762 q 723 758 756 762 q 606 709 649 747 q 517 583 564 670 q 437 449 465 481 q 296 361 390 391 q 259 350 283 357 q 251 338 251 347 q 269 315 251 330 q 286 288 286 300 q 269 235 286 269 l 132 -24 q 123 -67 123 -42 q 135 -96 123 -87 q 204 -131 167 -123 q 39 -39 39 -131 q 109 112 39 18 q 180 205 138 152 q 211 244 191 218 q 225 300 225 267 l 225 324 q 204 355 219 340 q 271 369 258 365 q 323 409 307 382 l 468 669 q 524 742 490 707 q 601 784 568 784 q 548 725 600 780 q 495 639 495 671 l 502 639 q 784 766 588 766 l 854 766 m 127 43 l 127 53 q 86 6 105 53 q 71 -62 71 -34 l 81 -62 q 127 43 93 -22 z "},"|":{"ha":337,"x_min":32,"x_max":444,"o":"m 444 866 l 73 -62 l 32 -62 l 398 866 l 444 866 z "},"}":{"ha":473,"x_min":-219,"x_max":594,"o":"m 594 674 q 501 503 594 616 q 408 348 408 390 q 433 298 408 319 q 336 260 362 285 q 227 102 290 219 q 121 -68 158 -26 q -40 -149 52 -149 l -40 -144 q 26 -123 -5 -138 q 68 -77 68 -103 l 62 -77 q -168 -132 -27 -132 q -214 -131 -174 -132 l -219 -127 q 3 -90 -62 -127 q 92 22 41 -67 q 191 178 157 138 q 361 294 262 265 q 350 321 361 310 q 338 342 338 332 q 408 486 338 366 q 502 648 455 568 q 519 712 519 682 q 518 723 519 716 q 517 733 517 730 q 425 766 499 755 q 594 674 594 766 z "},"~":{"ha":363,"x_min":16,"x_max":345,"o":"m 345 353 q 310 314 345 336 q 254 292 275 292 q 180 314 228 292 q 107 336 133 336 l 83 336 q 41 289 56 324 q 16 315 16 302 q 49 356 16 336 q 102 374 79 374 q 244 331 136 374 q 319 374 284 331 l 324 374 l 345 353 z "}}}
